<svg width="62" height="58" viewBox="0 0 62 58" fill="none" xmlns="http://www.w3.org/2000/svg">
<path d="M21.1355 7.90172C22.7864 7.90172 24.1248 6.57128 24.1248 4.93011C24.1248 3.28893 22.7864 1.9585 21.1355 1.9585C19.4846 1.9585 18.1463 3.28893 18.1463 4.93011C18.1463 6.57128 19.4846 7.90172 21.1355 7.90172Z" stroke="#ffffff" stroke-width="2" stroke-linecap="round" stroke-linejoin="round"/>
<path d="M31.6726 25.8613L43.7603 54.8903" stroke="#ffffff" stroke-width="2" stroke-linecap="round" stroke-linejoin="round"/>
<path d="M23.6764 7.12158L24.8347 9.87032" stroke="#ffffff" stroke-width="2" stroke-linecap="round" stroke-linejoin="round"/>
<path d="M28.646 26.9756L40.9766 56.0417" stroke="#ffffff" stroke-width="2" stroke-linecap="round" stroke-linejoin="round"/>
<path d="M20.9113 8.25439L21.9389 10.6874" stroke="#ffffff" stroke-width="2" stroke-linecap="round" stroke-linejoin="round"/>
<path d="M32.5133 25.3042L11.8876 33.7733L5.10576 17.7823L25.6941 9.61035L32.5133 25.3042Z" stroke="#ffffff" stroke-width="2" stroke-linecap="round" stroke-linejoin="round"/>
<path d="M7.329 23.0571L1.5 25.4716L8.28182 31.7305L8.22577 41.8711L23.9193 34.9436L21.8642 30.0033" stroke="#ffffff" stroke-width="2" stroke-linecap="round" stroke-linejoin="round"/>
<path d="M11.8876 33.7734L23.9193 34.9435" stroke="#ffffff" stroke-width="2" stroke-linecap="round" stroke-linejoin="round"/>
<path d="M40.8645 7.90172C42.5154 7.90172 43.8537 6.57128 43.8537 4.93011C43.8537 3.28893 42.5154 1.9585 40.8645 1.9585C39.2136 1.9585 37.8752 3.28893 37.8752 4.93011C37.8752 6.57128 39.2136 7.90172 40.8645 7.90172Z" stroke="#ffffff" stroke-width="2" stroke-linecap="round" stroke-linejoin="round"/>
<path d="M29.0383 29.1113L18.2584 54.8901" stroke="#ffffff" stroke-width="2" stroke-linecap="round" stroke-linejoin="round"/>
<path d="M38.3236 7.12158L37.1653 9.87032" stroke="#ffffff" stroke-width="2" stroke-linecap="round" stroke-linejoin="round"/>
<path d="M31 32.5659L21.0234 56.0417" stroke="#ffffff" stroke-width="2" stroke-linecap="round" stroke-linejoin="round"/>
<path d="M41.0887 8.25439L40.0798 10.6874" stroke="#ffffff" stroke-width="2" stroke-linecap="round" stroke-linejoin="round"/>
<path d="M32.8496 26.5857L50.1311 33.7733L56.8942 17.7823L36.3059 9.61035" stroke="#ffffff" stroke-width="2" stroke-linecap="round" stroke-linejoin="round"/>
<path d="M54.6897 23.0571L60.5 25.4716L53.7182 31.7305L53.7742 41.8711L38.0807 34.9436L40.1545 30.0033" stroke="#ffffff" stroke-width="2" stroke-linecap="round" stroke-linejoin="round"/>
<path d="M50.1311 33.7734L38.0807 34.9435" stroke="#ffffff" stroke-width="2" stroke-linecap="round" stroke-linejoin="round"/>
<path d="M36.3059 9.61035L31.1681 21.5711" stroke="#ffffff" stroke-width="2" stroke-linecap="round" stroke-linejoin="round"/>
</svg>
