<svg width="48" height="33" viewBox="0 0 48 33" fill="none" xmlns="http://www.w3.org/2000/svg">
<rect y="0.0625" width="48" height="32" rx="4" fill="#EC354B"/>
<path d="M5.82 24.0625V9.2625H10.68C13.96 9.2625 16.48 10.4025 16.48 13.9025C16.48 17.2825 13.94 18.8025 10.76 18.8025H8.78V24.0625H5.82ZM8.78 16.4625H10.56C12.6 16.4625 13.58 15.6025 13.58 13.9025C13.58 12.1825 12.5 11.6025 10.46 11.6025H8.78V16.4625ZM19.1598 24.0625V9.2625H23.2198C27.7398 9.2625 30.5398 11.6025 30.5398 16.6025C30.5398 21.5825 27.7398 24.0625 23.3798 24.0625H19.1598ZM22.1198 21.6825H23.0398C25.7998 21.6825 27.5198 20.2025 27.5198 16.6025C27.5198 12.9825 25.7998 11.6225 23.0398 11.6225H22.1198V21.6825ZM33.4372 24.0625V9.2625H42.5572V11.7225H36.3972V15.5825H41.6572V18.0625H36.3972V24.0625H33.4372Z" fill="white"/>
</svg>
