<svg width="20" height="20" viewBox="0 0 20 20" fill="none" xmlns="http://www.w3.org/2000/svg">
<path d="M10 9.99984C9.08337 9.99984 8.33337 9.24984 8.33337 8.33317C8.33337 7.4165 9.08337 6.6665 10 6.6665C10.9167 6.6665 11.6667 7.4165 11.6667 8.33317C11.6667 9.24984 10.9167 9.99984 10 9.99984ZM15 8.49984C15 5.47484 12.7917 3.33317 10 3.33317C7.20837 3.33317 5.00004 5.47484 5.00004 8.49984C5.00004 10.4498 6.62504 13.0332 10 16.1165C13.375 13.0332 15 10.4498 15 8.49984ZM10 1.6665C13.5 1.6665 16.6667 4.34984 16.6667 8.49984C16.6667 11.2665 14.4417 14.5415 10 18.3332C5.55837 14.5415 3.33337 11.2665 3.33337 8.49984C3.33337 4.34984 6.50004 1.6665 10 1.6665Z" fill="black"/>
</svg>
