<svg width="68" height="33" viewBox="0 0 68 33" fill="none" xmlns="http://www.w3.org/2000/svg">
<rect y="0.0625" width="68" height="32" rx="4" fill="#4CDA49"/>
<path d="M24.804 26.0625L19.38 8.3025H23.1L25.452 16.9425C26.004 18.9105 26.364 20.6865 26.94 22.6785H27.06C27.612 20.6865 28.02 18.9105 28.572 16.9425L30.876 8.3025H34.476L29.028 26.0625H24.804ZM40.9119 26.3985C38.1039 26.3985 36.2079 25.3425 34.9599 23.9265L36.6159 21.6945C37.6719 22.7265 38.9679 23.5185 40.5759 23.5185C42.3759 23.5185 43.5999 22.6305 43.5999 21.0465C43.5999 19.2945 42.5679 18.2145 38.7039 18.2145V15.6705C41.9679 15.6705 43.0239 14.5425 43.0239 12.9585C43.0239 11.5665 42.1599 10.7505 40.6479 10.7265C39.3759 10.7505 38.3439 11.3505 37.2879 12.3105L35.4879 10.1505C37.0239 8.8065 38.7279 7.9665 40.8159 7.9665C44.2479 7.9665 46.5759 9.6465 46.5759 12.6945C46.5759 14.6145 45.4959 16.0065 43.5999 16.7505V16.8705C45.6159 17.4225 47.1519 18.9105 47.1519 21.2385C47.1519 24.5025 44.2959 26.3985 40.9119 26.3985Z" fill="white"/>
</svg>
