<svg width="53" height="58" viewBox="0 0 53 58" fill="none" xmlns="http://www.w3.org/2000/svg">
<g clip-path="url(#clip0_42_492)">
<path d="M52.0943 56.6029L47.8542 49.4263H4.52276L1.10562 56.6029H52.0943Z" stroke="black" stroke-width="2" stroke-linecap="round" stroke-linejoin="round"/>
<path d="M28.0849 15.2658L32.4145 15.9297L29.2478 18.9618L29.9456 23.2857L26.099 21.2045L22.2167 23.2139L22.986 18.908L19.8909 15.8041L24.2205 15.23L26.1885 11.3008L28.0849 15.2658Z" stroke="black" stroke-width="2" stroke-linecap="round" stroke-linejoin="round"/>
<path d="M13.1819 36.7061H39.1235" stroke="black" stroke-width="2" stroke-linecap="round" stroke-linejoin="round"/>
<path d="M17.6546 41.6401H34.6508" stroke="black" stroke-width="2" stroke-linecap="round" stroke-linejoin="round"/>
<path d="M44.938 48.0449V7.46131C44.938 7.0666 44.616 6.74365 44.2224 6.74365H38.9446C35.6885 3.44242 31.1621 1.41504 26.1706 1.41504C21.1791 1.41504 16.6527 3.46037 13.3966 6.74365H8.11881C7.72522 6.74365 7.40318 7.0666 7.40318 7.46131V48.0449" stroke="black" stroke-width="2" stroke-linecap="round" stroke-linejoin="round"/>
</g>
<defs>
<clipPath id="clip0_42_492">
<rect width="52.7778" height="57" fill="white" transform="translate(0.21109 0.5)"/>
</clipPath>
</defs>
</svg>
