<svg width="16" height="16" viewBox="0 0 16 16" fill="none" xmlns="http://www.w3.org/2000/svg">
<g id="lock">
<path id="Vector" d="M12.6667 7.33398H3.33333C2.59695 7.33398 2 7.93094 2 8.66732V13.334C2 14.0704 2.59695 14.6673 3.33333 14.6673H12.6667C13.403 14.6673 14 14.0704 14 13.334V8.66732C14 7.93094 13.403 7.33398 12.6667 7.33398Z" stroke="white" stroke-width="2" stroke-linecap="round" stroke-linejoin="round"/>
<path id="Vector_2" d="M4.6665 7.33398V4.66732C4.6665 3.78326 5.01769 2.93542 5.64281 2.3103C6.26794 1.68517 7.11578 1.33398 7.99984 1.33398C8.88389 1.33398 9.73174 1.68517 10.3569 2.3103C10.982 2.93542 11.3332 3.78326 11.3332 4.66732V7.33398" stroke="white" stroke-width="2" stroke-linecap="round" stroke-linejoin="round"/>
</g>
</svg>
