<svg width="20" height="22" viewBox="0 0 20 22" fill="none" xmlns="http://www.w3.org/2000/svg">
<g id="Group 1">
<path id="Vector" d="M0.786252 5.96063L2.16219 7.33657C1.92096 8.06028 1.78694 8.83759 1.78694 9.64172C1.78694 13.5819 4.99449 16.7895 8.93469 16.7895C12.8749 16.7895 16.0824 13.5819 16.0824 9.64172C16.0824 5.70152 12.8749 2.49397 8.93469 2.49397C8.13056 2.49397 7.35325 2.62799 6.62954 2.86923L5.26253 1.50222C6.3883 0.992941 7.63022 0.707031 8.93469 0.707031C13.8666 0.707031 17.8694 4.70977 17.8694 9.64172C17.8694 14.5737 13.8666 18.5764 8.93469 18.5764C4.00274 18.5764 0 14.5737 0 9.64172C0 8.32832 0.28591 7.0864 0.786252 5.96063ZM4.46734 3.83417C4.46734 4.57575 3.86872 5.17437 3.12714 5.17437C2.38556 5.17437 1.78694 4.57575 1.78694 3.83417C1.78694 3.09259 2.38556 2.49397 3.12714 2.49397C3.86872 2.49397 4.46734 3.09259 4.46734 3.83417Z" fill="#333333"/>
<path id="Line 1 (Stroke)" fill-rule="evenodd" clip-rule="evenodd" d="M18.7262 21.294L14.2955 16.7903L15.5693 15.5371L20 20.0408L18.7262 21.294Z" fill="#333333"/>
</g>
</svg>
