<svg width="90" height="76" viewBox="0 0 90 76" fill="none" xmlns="http://www.w3.org/2000/svg">
<path d="M38.0003 69.6654C38.0003 69.6654 63.3337 56.9987 63.3337 37.9987V15.832L38.0003 6.33203L12.667 15.832V37.9987C12.667 56.9987 38.0003 69.6654 38.0003 69.6654Z" fill="white" stroke="#222222" stroke-width="3" stroke-linecap="round" stroke-linejoin="round"/>
<path d="M83.9996 32L79.9996 36L83.9996 32ZM64.7796 51.22C65.8123 52.2389 66.6332 53.4521 67.1951 54.7896C67.757 56.1271 68.0488 57.5625 68.0536 59.0133C68.0585 60.464 67.7763 61.9014 67.2234 63.2426C66.6705 64.5838 65.8577 65.8025 64.8319 66.8283C63.806 67.8541 62.5874 68.6669 61.2462 69.2198C59.9049 69.7728 58.4676 70.0549 57.0168 70.0501C55.5661 70.0452 54.1307 69.7534 52.7932 69.1915C51.4556 68.6296 50.2425 67.8087 49.2236 66.776C47.2198 64.7014 46.1111 61.9228 46.1362 59.0386C46.1612 56.1544 47.3181 53.3955 49.3576 51.356C51.3971 49.3165 54.156 48.1596 57.0402 48.1346C59.9243 48.1095 62.7029 49.2183 64.7776 51.222L64.7796 51.22ZM64.7796 51.22L72.9996 43L64.7796 51.22ZM72.9996 43L78.9996 49L85.9996 42L79.9996 36M72.9996 43L79.9996 36L72.9996 43Z" fill="white"/>
<path d="M83.9996 32L79.9996 36M64.7796 51.22L72.9996 43M72.9996 43L78.9996 49L85.9996 42L79.9996 36M72.9996 43L79.9996 36M64.7796 51.22C65.8123 52.2389 66.6332 53.4521 67.1951 54.7896C67.757 56.1271 68.0488 57.5625 68.0536 59.0133C68.0585 60.464 67.7763 61.9014 67.2234 63.2426C66.6705 64.5838 65.8577 65.8025 64.8319 66.8283C63.806 67.8541 62.5874 68.6669 61.2462 69.2198C59.9049 69.7728 58.4676 70.0549 57.0168 70.0501C55.5661 70.0452 54.1307 69.7534 52.7932 69.1915C51.4556 68.6296 50.2425 67.8087 49.2236 66.776C47.2198 64.7014 46.1111 61.9228 46.1362 59.0386C46.1612 56.1544 47.3181 53.3955 49.3576 51.356C51.3971 49.3165 54.156 48.1596 57.0402 48.1346C59.9243 48.1095 62.7029 49.2183 64.7776 51.222L64.7796 51.22Z" stroke="#222222" stroke-width="3" stroke-linecap="round" stroke-linejoin="round"/>
</svg>
