<svg width="22" height="22" viewBox="0 0 22 22" fill="none" xmlns="http://www.w3.org/2000/svg">
<path d="M17.1417 11.3667C16.8851 11.2201 16.6192 11.1009 16.3534 11.0001C16.6192 10.8992 16.8851 10.7801 17.1417 10.6334C18.9017 9.61589 19.8826 7.77339 19.8917 5.87589C19.0576 5.39922 18.1042 5.14255 17.1326 5.14255C16.1976 5.14255 15.2534 5.38089 14.3917 5.87589C14.1351 6.02255 13.8967 6.19672 13.6767 6.37089C13.7226 6.08672 13.7501 5.79339 13.7501 5.50005C13.7501 3.46505 12.6409 1.69589 11.0001 0.742554C9.35923 1.69589 8.25006 3.46505 8.25006 5.50005C8.25006 5.79339 8.27756 6.08672 8.3234 6.37089C8.1034 6.18755 7.86506 6.01339 7.6084 5.86672C6.74673 5.37172 5.80256 5.13339 4.86756 5.13339C3.90506 5.13339 2.94257 5.39005 2.1084 5.86672C2.1084 7.76422 3.08923 9.60672 4.8584 10.6242C5.11507 10.7709 5.3809 10.8901 5.64673 10.9909C5.3809 11.0917 5.11507 11.2109 4.8584 11.3576C3.0984 12.3751 2.11757 14.2176 2.1084 16.1151C2.94257 16.5917 3.8959 16.8484 4.86756 16.8484C5.80256 16.8484 6.74673 16.6101 7.6084 16.1151C7.86506 15.9684 8.1034 15.7942 8.3234 15.6201C8.27756 15.9134 8.25006 16.2067 8.25006 16.5001C8.25006 18.5351 9.35923 20.3042 11.0001 21.2576C12.6409 20.3042 13.7501 18.5351 13.7501 16.5001C13.7501 16.2067 13.7226 15.9134 13.6767 15.6292C13.8967 15.8126 14.1351 15.9776 14.3917 16.1242C15.2534 16.6192 16.1976 16.8576 17.1326 16.8576C18.0951 16.8576 19.0576 16.6009 19.8917 16.1242C19.8826 14.2267 18.9017 12.3842 17.1417 11.3667ZM14.8134 7.81005C15.0059 7.65422 15.1617 7.54422 15.3084 7.47089C15.8676 7.15005 16.5001 6.97589 17.1417 6.97589C17.3892 6.97589 17.6276 7.00339 17.8659 7.04922C17.5817 7.88339 17.0042 8.59839 16.2342 9.04755C16.0784 9.13922 15.9042 9.21255 15.7026 9.29505L14.4376 9.77172C14.2817 9.35005 14.0617 8.97422 13.7776 8.63505L14.8134 7.81005ZM11.0001 3.08922C11.5776 3.74922 11.9167 4.61089 11.9167 5.50005C11.9167 5.67422 11.8984 5.87589 11.8709 6.07755L11.6601 7.39755C11.4401 7.36089 11.2201 7.33339 11.0001 7.33339C10.7801 7.33339 10.5601 7.36089 10.3492 7.39755L10.1384 6.07755C10.1017 5.87589 10.0834 5.67422 10.0834 5.50005C10.0834 4.60172 10.4226 3.74922 11.0001 3.08922ZM4.13423 7.04005C4.37257 6.98505 4.62006 6.96672 4.86756 6.96672C5.50006 6.96672 6.13256 7.13172 6.69173 7.46172C6.82923 7.54422 6.98506 7.64505 7.1409 7.78255L8.19506 8.66255C7.92006 8.99255 7.70923 9.35922 7.5534 9.76255L6.2884 9.28589C6.0959 9.20339 5.92173 9.12089 5.77506 9.03839C4.97756 8.58005 4.40923 7.87422 4.13423 7.04005ZM7.18673 14.1809C6.99423 14.3367 6.8384 14.4467 6.69173 14.5201C6.13256 14.8409 5.50006 15.0151 4.8584 15.0151C4.6109 15.0151 4.37257 14.9876 4.13423 14.9417C4.4184 14.1076 4.9959 13.3926 5.7659 12.9434C5.92173 12.8517 6.0959 12.7784 6.29756 12.6959L7.56256 12.2192C7.70923 12.6409 7.9384 13.0259 8.22256 13.3559L7.18673 14.1809ZM11.0001 18.9109C10.4226 18.2509 10.0834 17.3892 10.0834 16.5001C10.0834 16.3167 10.1017 16.1242 10.1384 15.9042L10.3401 14.6026C10.5509 14.6392 10.7709 14.6667 11.0001 14.6667C11.2201 14.6667 11.4401 14.6392 11.6509 14.6026L11.8617 15.9226C11.8984 16.1242 11.9167 16.3259 11.9167 16.5001C11.9167 17.3984 11.5776 18.2509 11.0001 18.9109ZM17.1326 15.0242C16.5001 15.0242 15.8676 14.8592 15.3084 14.5292C15.1434 14.4376 14.9967 14.3276 14.8592 14.2176L13.8051 13.3376C14.0801 13.0076 14.3001 12.6409 14.4467 12.2284L15.7117 12.7051C15.9134 12.7784 16.0876 12.8609 16.2342 12.9434C17.0134 13.3926 17.5817 14.1076 17.8659 14.9417C17.6184 15.0059 17.3709 15.0242 17.1326 15.0242Z" fill="#B59378"/>
</svg>
