<svg width="60" height="58" viewBox="0 0 60 58" fill="none" xmlns="http://www.w3.org/2000/svg">
<g clip-path="url(#clip0_42_501)">
<path d="M12.854 23.8101L8.8322 21.1134C9.96454 21.7924 12.2878 20.415 14.0253 18.0287C16.1729 15.0409 16.7781 11.9368 15.3529 11.0831C13.5763 10.0161 9.94502 12.1696 7.25083 15.8946C6.93846 16.3214 6.64562 16.7676 6.37229 17.1944C3.73668 21.4238 3.15098 25.5174 5.16186 26.7397C6.95798 27.8261 9.98406 26.7785 13.0492 24.334C14.6891 23.0147 16.3486 21.2686 17.8323 19.2315C23.1036 11.9562 24.5483 4.37044 21.0732 2.29454C16.739 -0.305177 7.87557 4.95246 1.29629 14.0321L6.09897 17.1944" stroke="#ffffff" stroke-width="2" stroke-linecap="round" stroke-linejoin="round"/>
<path d="M21.9322 2.93506L34.7198 21.0361C36.0864 22.8792 37.7068 24.5282 39.5225 25.9639L57.7961 40.7474C57.7961 40.7474 59.7679 44.2978 56.039 49.3614C52.3687 54.328 47.0779 53.8818 47.0779 53.8818L30.62 38.1283C28.2967 35.8972 25.583 34.1123 22.6155 32.8512L5.18139 26.7594" stroke="#ffffff" stroke-width="2" stroke-linecap="round" stroke-linejoin="round"/>
<path d="M15.3529 11.1025L19.8823 15.7782" stroke="#ffffff" stroke-linecap="round" stroke-linejoin="round"/>
<path d="M23.2598 33.5883C23.2598 33.5883 21.8736 36.1298 24.1773 37.1969C25.583 37.8565 27.7501 37.4491 30.1514 35.7418C31.4399 34.8299 32.7675 33.6077 33.9779 32.1526C38.2925 26.9726 39.8153 21.3851 37.3554 19.6973C37.3554 19.6973 36.1645 18.8436 34.5636 19.8719" stroke="#ffffff" stroke-width="2" stroke-linecap="round" stroke-linejoin="round"/>
<path d="M24.9583 37.6628C26.2077 38.594 28.3943 38.6522 31.108 37.4882C32.5723 36.8673 34.1146 35.9555 35.6179 34.772C40.9281 30.6009 43.5833 25.4596 41.5529 23.2867C41.5529 23.2867 40.5767 22.2197 38.7806 22.8793" stroke="#ffffff" stroke-width="2" stroke-linecap="round" stroke-linejoin="round"/>
<path d="M24.763 37.7788L24.0407 37.6817C20.3313 37.2161 17.1295 40.2039 17.3247 43.9094C17.52 47.2852 20.4875 49.8267 23.865 49.4969L28.1601 49.0895C30.9519 48.8179 33.5679 50.5251 34.427 53.1831L35.4617 56.3648" stroke="#ffffff" stroke-width="2" stroke-linecap="round" stroke-linejoin="round"/>
</g>
<defs>
<clipPath id="clip0_42_501">
<rect width="58.9597" height="56.67" fill="white" transform="translate(0.320137 0.665039)"/>
</clipPath>
</defs>
</svg>
