<svg width="62" height="52" viewBox="0 0 62 52" fill="none" xmlns="http://www.w3.org/2000/svg">
<path d="M32.9073 35.7735H7.37393V2.19745C7.37393 1.69578 7.79162 1.28369 8.30011 1.28369H54.518C55.0265 1.28369 55.4442 1.69578 55.4442 2.19745V35.7914H50.5409" stroke="black" stroke-width="2" stroke-linecap="round" stroke-linejoin="round"/>
<path d="M55.4442 35.7734L60.8196 46.7743C61.0921 47.3835 60.6381 48.0644 59.9661 48.0644H2.83388C2.16195 48.0644 1.70794 47.3835 1.98034 46.7743L7.35579 35.7734" stroke="black" stroke-width="2" stroke-linecap="round" stroke-linejoin="round"/>
<path d="M15.3826 13.1265H35.4134" stroke="black" stroke-width="2" stroke-linecap="round" stroke-linejoin="round"/>
<path d="M15.3826 21.0278H25.4071" stroke="black" stroke-width="2" stroke-linecap="round" stroke-linejoin="round"/>
<path d="M49.9416 35.8453C49.9416 40.3604 46.2369 44.0154 41.6606 44.0154C37.0842 44.0154 33.3795 40.3604 33.3795 35.8453C33.3795 31.3303 37.0842 27.6753 41.6606 27.6753C46.2369 27.6753 49.9416 31.3303 49.9416 35.8453Z" stroke="black" stroke-width="2" stroke-linecap="round" stroke-linejoin="round"/>
<path d="M47.3084 41.7939L55.4987 50.7165" stroke="black" stroke-width="2" stroke-linecap="round" stroke-linejoin="round"/>
</svg>
