<svg width="100" height="92" viewBox="0 0 100 92" fill="none" xmlns="http://www.w3.org/2000/svg">
<path d="M15.5 30.5V15.5C15.5 13.5109 16.2902 11.6032 17.6967 10.1967C19.1032 8.79018 21.0109 8 23 8H54.875L75.5 28.625V75.5C75.5 77.4891 74.7098 79.3968 73.3033 80.8033C71.8968 82.2098 69.9891 83 68 83H15.5" fill="#EEF3F9"/>
<path d="M15.5 30.5V15.5C15.5 13.5109 16.2902 11.6032 17.6967 10.1967C19.1032 8.79018 21.0109 8 23 8H54.875L75.5 28.625V75.5C75.5 77.4891 74.7098 79.3968 73.3033 80.8033C71.8968 82.2098 69.9891 83 68 83H15.5" stroke="#222222" stroke-width="3" stroke-linecap="round" stroke-linejoin="round"/>
<path d="M53 8V30.5H75.5" fill="#EEF3F9"/>
<path d="M53 8V30.5H75.5" stroke="#222222" stroke-width="3" stroke-linecap="round" stroke-linejoin="round"/>
<path d="M38 58.625L53 68V45.5L38 54.875" fill="#EEF3F9"/>
<path d="M38 58.625L53 68V45.5L38 54.875" stroke="#222222" stroke-width="3" stroke-linecap="round" stroke-linejoin="round"/>
<path d="M34.25 45.5H11.75C9.67893 45.5 8 47.1789 8 49.25V64.25C8 66.3211 9.67893 68 11.75 68H34.25C36.3211 68 38 66.3211 38 64.25V49.25C38 47.1789 36.3211 45.5 34.25 45.5Z" fill="#EEF3F9" stroke="#222222" stroke-width="3" stroke-linecap="round" stroke-linejoin="round"/>
<path d="M85.5 86.25V82.75C85.5 80.8935 84.7625 79.113 83.4497 77.8003C82.137 76.4875 80.3565 75.75 78.5 75.75H68C66.1435 75.75 64.363 76.4875 63.0503 77.8003C61.7375 79.113 61 80.8935 61 82.75V86.25" fill="#EEF3F9"/>
<path d="M85.5 86.25V82.75C85.5 80.8935 84.7625 79.113 83.4497 77.8003C82.137 76.4875 80.3565 75.75 78.5 75.75H68C66.1435 75.75 64.363 76.4875 63.0503 77.8003C61.7375 79.113 61 80.8935 61 82.75V86.25" stroke="#222222" stroke-width="3" stroke-linecap="round" stroke-linejoin="round"/>
<path d="M73.25 68.75C77.116 68.75 80.25 65.616 80.25 61.75C80.25 57.884 77.116 54.75 73.25 54.75C69.384 54.75 66.25 57.884 66.25 61.75C66.25 65.616 69.384 68.75 73.25 68.75Z" fill="#EEF3F9" stroke="#222222" stroke-width="3" stroke-linecap="round" stroke-linejoin="round"/>
<path d="M96 86.25V82.75C95.9988 81.199 95.4826 79.6923 94.5324 78.4665C93.5822 77.2407 92.2517 76.3652 90.75 75.9775" stroke="#222222" stroke-width="3" stroke-linecap="round" stroke-linejoin="round"/>
<path d="M85.5 54.9775C87.0057 55.363 88.3403 56.2387 89.2934 57.4665C90.2464 58.6943 90.7637 60.2044 90.7637 61.7587C90.7637 63.313 90.2464 64.8231 89.2934 66.0509C88.3403 67.2788 87.0057 68.1545 85.5 68.54" stroke="#222222" stroke-width="3" stroke-linecap="round" stroke-linejoin="round"/>
</svg>
