<svg width="94" height="74" viewBox="0 0 94 74" fill="none" xmlns="http://www.w3.org/2000/svg">
<path d="M22.2331 46.25L8.20393 22.015C7.59899 20.9694 7.31448 19.7691 7.38574 18.5632C7.457 17.3572 7.88088 16.1988 8.60477 15.2317L13.5689 8.63335C14.1433 7.86748 14.8882 7.24586 15.7444 6.81772C16.6007 6.38958 17.5449 6.16669 18.5023 6.16669H55.5023C56.4596 6.16669 57.4038 6.38958 58.2601 6.81772C59.1164 7.24586 59.8612 7.86748 60.4356 8.63335L65.3689 15.2317C66.0976 16.1957 66.527 17.3525 66.6037 18.5585C66.6805 19.7645 66.4012 20.9664 65.8006 22.015L51.7714 46.25" fill="#EEF3F9"/>
<path d="M22.2331 46.25L8.20393 22.015C7.59899 20.9694 7.31448 19.7691 7.38574 18.5632C7.457 17.3572 7.88088 16.1988 8.60477 15.2317L13.5689 8.63335C14.1433 7.86748 14.8882 7.24586 15.7444 6.81772C16.6007 6.38958 17.5449 6.16669 18.5023 6.16669H55.5023C56.4596 6.16669 57.4038 6.38958 58.2601 6.81772C59.1164 7.24586 59.8612 7.86748 60.4356 8.63335L65.3689 15.2317C66.0976 16.1957 66.527 17.3525 66.6037 18.5585C66.6805 19.7645 66.4012 20.9664 65.8006 22.015L51.7714 46.25" stroke="#222222" stroke-width="3" stroke-linecap="round" stroke-linejoin="round"/>
<path d="M33.9191 37L15.7891 6.78333L33.9191 37Z" fill="#EEF3F9"/>
<path d="M33.9191 37L15.7891 6.78333" stroke="#222222" stroke-width="3" stroke-linecap="round" stroke-linejoin="round"/>
<path d="M40.0859 37L58.2159 6.78333" stroke="#222222" stroke-width="3" stroke-linecap="round" stroke-linejoin="round"/>
<path d="M24.6641 21.5833H49.3307" stroke="#222222" stroke-width="3" stroke-linecap="round" stroke-linejoin="round"/>
<path d="M37.0026 67.8333C45.517 67.8333 52.4193 60.9311 52.4193 52.4167C52.4193 43.9023 45.517 37 37.0026 37C28.4882 37 21.5859 43.9023 21.5859 52.4167C21.5859 60.9311 28.4882 67.8333 37.0026 67.8333Z" fill="#EEF3F9" stroke="#222222" stroke-width="3" stroke-linecap="round" stroke-linejoin="round"/>
<path d="M37.0026 55.5V49.3333H35.4609" stroke="#222222" stroke-width="3" stroke-linecap="round" stroke-linejoin="round"/>
<path d="M68.3359 41H88.5026" stroke="#222222" stroke-width="3" stroke-linecap="round" stroke-linejoin="round"/>
<path d="M68.3359 52H88.5026" stroke="#222222" stroke-width="3" stroke-linecap="round" stroke-linejoin="round"/>
<path d="M68.3359 63H88.5026" stroke="#222222" stroke-width="3" stroke-linecap="round" stroke-linejoin="round"/>
<path d="M55.5 41L57.3333 42.8334L61 39.1667" stroke="#222222" stroke-width="3" stroke-linecap="round" stroke-linejoin="round"/>
<path d="M55.5 52L57.3333 53.8334L61 50.1667" stroke="#222222" stroke-width="3" stroke-linecap="round" stroke-linejoin="round"/>
<path d="M55.5 63L57.3333 64.8334L61 61.1667" stroke="#222222" stroke-width="3" stroke-linecap="round" stroke-linejoin="round"/>
</svg>
