<svg width="60" height="46" viewBox="0 0 60 46" fill="none" xmlns="http://www.w3.org/2000/svg">
<g clip-path="url(#clip0_42_471)">
<path d="M19.45 20.346C24.6967 20.346 28.95 16.0295 28.95 10.7047C28.95 5.38001 24.6967 1.06348 19.45 1.06348C14.2033 1.06348 9.95001 5.38001 9.95001 10.7047C9.95001 16.0295 14.2033 20.346 19.45 20.346Z" fill="" stroke="#1D1D1B" stroke-width="2" stroke-linejoin="round"/>
<path d="M37.2385 41.9706C37.2385 33.793 34.3539 26.5719 29.8923 22.1025C27.1423 24.6983 23.4885 26.2791 19.45 26.2791C15.4116 26.2791 11.7385 24.6787 9.00771 22.1025C4.56541 26.5719 1.66156 33.793 1.66156 41.9706C1.66156 42.7707 1.70002 43.5514 1.73848 44.3126H37.1423C37.2 43.5319 37.2193 42.7512 37.2193 41.9706H37.2385Z" fill="#F3F3F3" stroke="#1D1D1B" stroke-width="2" stroke-linejoin="round"/>
<path d="M40.95 20.951C46.1967 20.951 50.45 16.6344 50.45 11.3097C50.45 5.98499 46.1967 1.66846 40.95 1.66846C35.7033 1.66846 31.45 5.98499 31.45 11.3097C31.45 16.6344 35.7033 20.951 40.95 20.951Z" fill="" stroke="#1D1D1B" stroke-width="2" stroke-linejoin="round"/>
<path d="M58.7385 42.5951C58.7385 34.4176 55.8539 27.1964 51.3923 22.7271C48.6423 25.3228 44.9885 26.9036 40.95 26.9036C36.9116 26.9036 33.2385 25.3033 30.5077 22.7271C26.0654 27.1964 23.1616 34.4176 23.1616 42.5951C23.1616 43.3953 23.2 44.1759 23.2385 44.9371H58.6423C58.7 44.1564 58.7193 43.3757 58.7193 42.5951H58.7385Z" fill="#F3F3F3" stroke="#1D1D1B" stroke-width="2" stroke-linejoin="round"/>
</g>
<defs>
<clipPath id="clip0_42_471">
<rect width="59" height="45.8252" fill="white" transform="translate(0.700012 0.0874023)"/>
</clipPath>
</defs>
</svg>
