<svg width="32" height="33" viewBox="0 0 32 33" fill="none" xmlns="http://www.w3.org/2000/svg">
<rect y="0.0625" width="32" height="32" rx="4" fill="#1B68DD"/>
<path d="M9.72 24.0625L6.86 9.2625H9.88L11.06 16.4825C11.28 18.0425 11.52 19.6225 11.74 21.2025H11.82C12.12 19.6225 12.44 18.0225 12.76 16.4825L14.48 9.2625H17L18.72 16.4825C19.04 18.0025 19.34 19.6025 19.66 21.2025H19.76C19.98 19.6025 20.2 18.0225 20.42 16.4825L21.58 9.2625H24.4L21.66 24.0625H17.98L16.32 16.7425C16.08 15.5825 15.86 14.4425 15.68 13.3225H15.6C15.4 14.4425 15.2 15.5825 14.96 16.7425L13.34 24.0625H9.72Z" fill="white"/>
</svg>
