<svg width="18" height="10" viewBox="0 0 18 10" fill="none" xmlns="http://www.w3.org/2000/svg">
<path d="M12.75 0.5C10.2675 0.5 8.25 2.5175 8.25 5C8.25 7.4825 10.2675 9.5 12.75 9.5C15.2325 9.5 17.25 7.4825 17.25 5C17.25 2.5175 15.2325 0.5 12.75 0.5ZM3.75 2C2.0925 2 0.75 3.3425 0.75 5C0.75 6.6575 2.0925 8 3.75 8C5.4075 8 6.75 6.6575 6.75 5C6.75 3.3425 5.4075 2 3.75 2ZM3.75 6.5C2.925 6.5 2.25 5.825 2.25 5C2.25 4.175 2.925 3.5 3.75 3.5C4.575 3.5 5.25 4.175 5.25 5C5.25 5.825 4.575 6.5 3.75 6.5Z" fill="#283981"/>
</svg>
