<svg width="102" height="92" viewBox="0 0 102 92" fill="none" xmlns="http://www.w3.org/2000/svg">
<path d="M15.1641 76.3334L75.8307 76.3334C80.0189 76.3334 83.4141 72.9382 83.4141 68.75V64.9584C83.4141 60.7702 80.0189 57.375 75.8307 57.375L15.1641 57.375C10.9759 57.375 7.58073 60.7702 7.58073 64.9584V68.75C7.58073 72.9382 10.9759 76.3334 15.1641 76.3334Z" fill="#EEF3F9" stroke="#222222" stroke-width="3" stroke-linecap="round" stroke-linejoin="round"/>
<path d="M75.8359 57.375V23.25C75.8359 21.2388 75.037 19.3099 73.6148 17.8878C72.1927 16.4656 70.2638 15.6667 68.2526 15.6667L22.7526 15.6667C20.7414 15.6667 18.8125 16.4656 17.3904 17.8878C15.9682 19.3099 15.1693 21.2388 15.1693 23.25L15.1693 57.375" fill="#EEF3F9"/>
<path d="M75.8359 57.375V23.25C75.8359 21.2388 75.037 19.3099 73.6148 17.8878C72.1927 16.4656 70.2638 15.6667 68.2526 15.6667L22.7526 15.6667C20.7414 15.6667 18.8125 16.4656 17.3904 17.8878C15.9682 19.3099 15.1693 21.2388 15.1693 23.25L15.1693 57.375" stroke="#222222" stroke-width="3" stroke-linecap="round" stroke-linejoin="round"/>
<path d="M53.0859 42.2084H37.9193H53.0859Z" fill="#EEF3F9"/>
<path d="M53.0859 42.2084H37.9193" stroke="#222222" stroke-width="3" stroke-linecap="round" stroke-linejoin="round"/>
<path d="M78 65.5C84.6274 65.5 90 60.1274 90 53.5C90 46.8726 84.6274 41.5 78 41.5C71.3726 41.5 66 46.8726 66 53.5C66 60.1274 71.3726 65.5 78 65.5Z" fill="#EEF3F9" stroke="#222222" stroke-width="3" stroke-linecap="round" stroke-linejoin="round"/>
<path d="M84.954 63.28L88 81.5L78 75.5L68 81.5L71.046 63.28" fill="#EEF3F9"/>
<path d="M84.954 63.28L88 81.5L78 75.5L68 81.5L71.046 63.28" stroke="#222222" stroke-width="3" stroke-linecap="round" stroke-linejoin="round"/>
</svg>
