<svg width="98" height="78" viewBox="0 0 98 78" fill="none" xmlns="http://www.w3.org/2000/svg">
<path d="M16.333 53.8333H13.1663C11.4866 53.8333 9.87573 53.1661 8.688 51.9783C7.50027 50.7906 6.83301 49.1797 6.83301 47.5V15.8333C6.83301 14.1536 7.50027 12.5427 8.688 11.355C9.87573 10.1673 11.4866 9.5 13.1663 9.5H63.833C65.5127 9.5 67.1236 10.1673 68.3113 11.355C69.4991 12.5427 70.1663 14.1536 70.1663 15.8333V47.5C70.1663 49.1797 69.4991 50.7906 68.3113 51.9783C67.1236 53.1661 65.5127 53.8333 63.833 53.8333H60.6663" stroke="#222222" stroke-width="3" stroke-linecap="round" stroke-linejoin="round"/>
<path d="M38.5003 47.5L54.3337 66.5H22.667L38.5003 47.5Z" stroke="#222222" stroke-width="3" stroke-linecap="round" stroke-linejoin="round"/>
<path d="M83.5 34H63.5C61.2909 34 59.5 35.7909 59.5 38V70C59.5 72.2091 61.2909 74 63.5 74H83.5C85.7091 74 87.5 72.2091 87.5 70V38C87.5 35.7909 85.7091 34 83.5 34Z" fill="white" stroke="#222222" stroke-width="3" stroke-linecap="round" stroke-linejoin="round"/>
<path d="M73.5 66H73.52" stroke="#222222" stroke-width="4" stroke-linecap="round" stroke-linejoin="round"/>
</svg>
