<svg width="79" height="78" viewBox="0 0 79 78" fill="none" xmlns="http://www.w3.org/2000/svg">
<path d="M13.332 22.75V13C13.332 11.2761 14.0169 9.62279 15.2358 8.40381C16.4548 7.18482 18.1081 6.5 19.832 6.5H47.457L65.332 24.375V65C65.332 66.7239 64.6472 68.3772 63.4282 69.5962C62.2092 70.8152 60.5559 71.5 58.832 71.5H39.332" stroke="#222222" stroke-width="3" stroke-linecap="round" stroke-linejoin="round"/>
<path d="M45.832 6.5V26H65.332" stroke="#222222" stroke-width="3" stroke-linecap="round" stroke-linejoin="round"/>
<path d="M16.582 55.25C17.8624 55.25 19.1303 54.9978 20.3132 54.5078C21.4961 54.0178 22.571 53.2997 23.4763 52.3943C24.3817 51.4889 25.0999 50.4141 25.5899 49.2312C26.0798 48.0482 26.332 46.7804 26.332 45.5C26.332 44.2196 26.0798 42.9518 25.5899 41.7688C25.0999 40.5859 24.3817 39.5111 23.4763 38.6057C22.571 37.7003 21.4961 36.9822 20.3132 36.4922C19.1303 36.0022 17.8624 35.75 16.582 35.75C13.9962 35.75 11.5162 36.7772 9.68774 38.6057C7.85926 40.4342 6.83203 42.9141 6.83203 45.5C6.83203 48.0859 7.85926 50.5658 9.68774 52.3943C11.5162 54.2228 13.9962 55.25 16.582 55.25V55.25Z" stroke="#222222" stroke-width="3" stroke-linecap="round" stroke-linejoin="round"/>
<path d="M23.082 53.625L26.332 71.5L16.582 68.25L6.83203 71.5L10.082 53.625" stroke="#222222" stroke-width="3" stroke-linecap="round" stroke-linejoin="round"/>
</svg>
