<svg width="90" height="76" viewBox="0 0 90 76" fill="none" xmlns="http://www.w3.org/2000/svg">
<path d="M13.1641 47.5C13.1641 47.5 16.3307 44.3334 25.8307 44.3334C35.3307 44.3334 41.6641 50.6667 51.1641 50.6667C60.6641 50.6667 63.8307 47.5 63.8307 47.5V9.50004C63.8307 9.50004 60.6641 12.6667 51.1641 12.6667C41.6641 12.6667 35.3307 6.33337 25.8307 6.33337C16.3307 6.33337 13.1641 9.50004 13.1641 9.50004V47.5Z" fill="#EEF3F9" stroke="black" stroke-width="3" stroke-linecap="round" stroke-linejoin="round"/>
<path d="M13.1641 69.6667V47.5" stroke="black" stroke-width="3" stroke-linecap="round" stroke-linejoin="round"/>
<path d="M67.8333 67.6667C75.1971 67.6667 81.1667 61.6971 81.1667 54.3333C81.1667 46.9695 75.1971 41 67.8333 41C60.4695 41 54.5 46.9695 54.5 54.3333C54.5 61.6971 60.4695 67.6667 67.8333 67.6667Z" fill="#EEF3F9" stroke="black" stroke-width="3" stroke-linecap="round" stroke-linejoin="round"/>
<path d="M84.5 71L77.25 63.75" stroke="black" stroke-width="3" stroke-linecap="round" stroke-linejoin="round"/>
<path d="M32.5 45.5C32.5 44.61 32.7639 43.74 33.2584 42.9999C33.7529 42.2599 34.4557 41.6831 35.2779 41.3425C36.1002 41.0019 37.005 40.9128 37.8779 41.0865C38.7508 41.2601 39.5526 41.6887 40.182 42.318C40.8113 42.9474 41.2399 43.7492 41.4135 44.6221C41.5872 45.495 41.4981 46.3998 41.1575 47.2221C40.8169 48.0443 40.2401 48.7471 39.5001 49.2416C38.76 49.7361 37.89 50 37 50M32.5 45.5C32.5 44.61 32.2361 43.74 31.7416 42.9999C31.2471 42.2599 30.5443 41.6831 29.7221 41.3425C28.8998 41.0019 27.995 40.9128 27.1221 41.0865C26.2492 41.2601 25.4474 41.6887 24.818 42.318C24.1887 42.9474 23.7601 43.7492 23.5865 44.6221C23.4128 45.495 23.5019 46.3998 23.8425 47.2221C24.1831 48.0443 24.7599 48.7471 25.4999 49.2416C26.24 49.7361 27.11 50 28 50M32.5 45.5V47V45.5ZM28 50C27.11 50 26.24 50.2639 25.4999 50.7584C24.7599 51.2529 24.1831 51.9557 23.8425 52.7779C23.5019 53.6002 23.4128 54.505 23.5865 55.3779C23.7601 56.2508 24.1887 57.0526 24.818 57.682C25.4474 58.3113 26.2492 58.7399 27.1221 58.9135C27.995 59.0872 28.8998 58.9981 29.7221 58.6575C30.5443 58.3169 31.2471 57.7401 31.7416 57.0001C32.2361 56.26 32.5 55.39 32.5 54.5M28 50H29.5H28ZM37 50C37.89 50 38.76 50.2639 39.5001 50.7584C40.2401 51.2529 40.8169 51.9557 41.1575 52.7779C41.4981 53.6002 41.5872 54.505 41.4135 55.3779C41.2399 56.2508 40.8113 57.0526 40.182 57.682C39.5526 58.3113 38.7508 58.7399 37.8779 58.9135C37.005 59.0872 36.1002 58.9981 35.2779 58.6575C34.4557 58.3169 33.7529 57.7401 33.2584 57.0001C32.7639 56.26 32.5 55.39 32.5 54.5M37 50H35.5H37ZM32.5 54.5V53V54.5Z" fill="#EEF3F9"/>
<path d="M32.5 45.5C32.5 44.61 32.7639 43.74 33.2584 42.9999C33.7529 42.2599 34.4557 41.6831 35.2779 41.3425C36.1002 41.0019 37.005 40.9128 37.8779 41.0865C38.7508 41.2601 39.5526 41.6887 40.182 42.318C40.8113 42.9474 41.2399 43.7492 41.4135 44.6221C41.5872 45.495 41.4981 46.3998 41.1575 47.2221C40.8169 48.0443 40.2401 48.7471 39.5001 49.2416C38.76 49.7361 37.89 50 37 50M32.5 45.5C32.5 44.61 32.2361 43.74 31.7416 42.9999C31.2471 42.2599 30.5443 41.6831 29.7221 41.3425C28.8998 41.0019 27.995 40.9128 27.1221 41.0865C26.2492 41.2601 25.4474 41.6887 24.818 42.318C24.1887 42.9474 23.7601 43.7492 23.5865 44.6221C23.4128 45.495 23.5019 46.3998 23.8425 47.2221C24.1831 48.0443 24.7599 48.7471 25.4999 49.2416C26.24 49.7361 27.11 50 28 50M32.5 45.5V47M28 50C27.11 50 26.24 50.2639 25.4999 50.7584C24.7599 51.2529 24.1831 51.9557 23.8425 52.7779C23.5019 53.6002 23.4128 54.505 23.5865 55.3779C23.7601 56.2508 24.1887 57.0526 24.818 57.682C25.4474 58.3113 26.2492 58.7399 27.1221 58.9135C27.995 59.0872 28.8998 58.9981 29.7221 58.6575C30.5443 58.3169 31.2471 57.7401 31.7416 57.0001C32.2361 56.26 32.5 55.39 32.5 54.5M28 50H29.5M37 50C37.89 50 38.76 50.2639 39.5001 50.7584C40.2401 51.2529 40.8169 51.9557 41.1575 52.7779C41.4981 53.6002 41.5872 54.505 41.4135 55.3779C41.2399 56.2508 40.8113 57.0526 40.182 57.682C39.5526 58.3113 38.7508 58.7399 37.8779 58.9135C37.005 59.0872 36.1002 58.9981 35.2779 58.6575C34.4557 58.3169 33.7529 57.7401 33.2584 57.0001C32.7639 56.26 32.5 55.39 32.5 54.5M37 50H35.5M32.5 54.5V53" stroke="black" stroke-width="2" stroke-linecap="round" stroke-linejoin="round"/>
<path d="M32.5 53C34.1569 53 35.5 51.6569 35.5 50C35.5 48.3431 34.1569 47 32.5 47C30.8431 47 29.5 48.3431 29.5 50C29.5 51.6569 30.8431 53 32.5 53Z" stroke="black" stroke-width="2" stroke-linecap="round" stroke-linejoin="round"/>
<path d="M28.5 54L30 52.5" stroke="black" stroke-width="2" stroke-linecap="round" stroke-linejoin="round"/>
<path d="M35 47.5L36.5 46" stroke="black" stroke-width="2" stroke-linecap="round" stroke-linejoin="round"/>
<path d="M28.5 46L30 47.5" stroke="black" stroke-width="2" stroke-linecap="round" stroke-linejoin="round"/>
<path d="M35 52.5L36.5 54" stroke="black" stroke-width="2" stroke-linecap="round" stroke-linejoin="round"/>
</svg>
