<svg width="16" height="16" viewBox="0 0 16 16" fill="none" xmlns="http://www.w3.org/2000/svg">
<g id="users">
<path id="Vector" d="M10.6654 14V12.6667C10.6654 11.9594 10.3844 11.2811 9.88432 10.781C9.38422 10.281 8.70594 10 7.9987 10H3.9987C3.29145 10 2.61318 10.281 2.11308 10.781C1.61298 11.2811 1.33203 11.9594 1.33203 12.6667V14" stroke="white" stroke-width="2" stroke-linecap="round" stroke-linejoin="round"/>
<path id="Vector_2" d="M5.9987 7.33333C7.47146 7.33333 8.66537 6.13943 8.66537 4.66667C8.66537 3.19391 7.47146 2 5.9987 2C4.52594 2 3.33203 3.19391 3.33203 4.66667C3.33203 6.13943 4.52594 7.33333 5.9987 7.33333Z" stroke="white" stroke-width="2" stroke-linecap="round" stroke-linejoin="round"/>
<path id="Vector_3" d="M14.668 13.9993V12.6659C14.6675 12.0751 14.4709 11.5011 14.1089 11.0341C13.7469 10.5672 13.2401 10.2336 12.668 10.0859" stroke="white" stroke-width="2" stroke-linecap="round" stroke-linejoin="round"/>
<path id="Vector_4" d="M10.668 2.08594C11.2416 2.2328 11.75 2.5664 12.1131 3.03414C12.4761 3.50188 12.6732 4.07716 12.6732 4.66927C12.6732 5.26138 12.4761 5.83666 12.1131 6.3044C11.75 6.77214 11.2416 7.10574 10.668 7.2526" stroke="white" stroke-width="2" stroke-linecap="round" stroke-linejoin="round"/>
</g>
</svg>
