<svg width="32" height="33" viewBox="0 0 32 33" fill="none" xmlns="http://www.w3.org/2000/svg">
<rect y="0.0625" width="32" height="32" rx="4" fill="#575757"/>
<path d="M15.74 24.3425C13.76 24.3425 11.78 23.5625 10.34 22.1825L12.04 20.1425C13.1 21.1225 14.5 21.7825 15.8 21.7825C17.34 21.7825 18.16 21.1225 18.16 20.0825C18.16 18.9825 17.26 18.6425 15.94 18.0825L13.96 17.2425C12.46 16.6225 10.96 15.4225 10.96 13.2625C10.96 10.8425 13.08 8.9825 16.08 8.9825C17.8 8.9825 19.52 9.6625 20.72 10.8825L19.22 12.7425C18.28 11.9625 17.3 11.5225 16.08 11.5225C14.78 11.5225 13.94 12.1025 13.94 13.0825C13.94 14.1425 15 14.5225 16.26 15.0225L18.2 15.8425C20 16.5825 21.18 17.7225 21.18 19.8625C21.18 22.2825 19.16 24.3425 15.74 24.3425Z" fill="white"/>
</svg>
