<svg width="78" height="78" viewBox="0 0 78 78" fill="none" xmlns="http://www.w3.org/2000/svg">
<path d="M65 63.375V65C65 66.7239 64.3152 68.3772 63.0962 69.5962C61.8772 70.8152 60.2239 71.5 58.5 71.5H19.5C17.7761 71.5 16.1228 70.8152 14.9038 69.5962C13.6848 68.3772 13 66.7239 13 65V13C13 11.2761 13.6848 9.62279 14.9038 8.40381C16.1228 7.18482 17.7761 6.5 19.5 6.5H47.125L58.5 17.875" stroke="#222222" stroke-width="3" stroke-linecap="round" stroke-linejoin="round"/>
<path d="M26 58.5H29.25" stroke="#222222" stroke-width="3" stroke-linecap="round" stroke-linejoin="round"/>
<path d="M59.865 31.2325C60.4988 30.5987 61.2512 30.096 62.0793 29.7529C62.9074 29.4099 63.7949 29.2334 64.6913 29.2334C65.5876 29.2334 66.4751 29.4099 67.3032 29.7529C68.1313 30.096 68.8837 30.5987 69.5175 31.2325C70.1513 31.8663 70.654 32.6187 70.997 33.4468C71.3401 34.2749 71.5166 35.1624 71.5166 36.0587C71.5166 36.9551 71.3401 37.8426 70.997 38.6707C70.654 39.4988 70.1513 40.2512 69.5175 40.885L55.0875 55.25L42.25 58.5L45.4675 45.6625L59.865 31.2325Z" stroke="#222222" stroke-width="3" stroke-linecap="round" stroke-linejoin="round"/>
</svg>
