<svg width="68" height="33" viewBox="0 0 68 33" fill="none" xmlns="http://www.w3.org/2000/svg">
<rect y="0.0625" width="68" height="32" rx="4" fill="#A8E284"/>
<path d="M8.6 17.9625H12.12L11.68 16.3425C11.22 14.8025 10.82 13.1025 10.38 11.5025H10.3C9.92 13.1225 9.48 14.8025 9.04 16.3425L8.6 17.9625ZM13.8 24.0625L12.76 20.2625H7.96L6.92 24.0625H3.92L8.66 9.2625H12.14L16.9 24.0625H13.8ZM18.6325 24.0625V9.2625H21.5925V21.5825H27.5925V24.0625H18.6325ZM30.8005 24.0625V18.6425L26.3605 9.2625H29.5005L30.9805 12.8625C31.4005 13.9625 31.8005 15.0025 32.2605 16.1425H32.3405C32.8005 15.0025 33.2405 13.9625 33.6605 12.8625L35.1405 9.2625H38.2205L33.7605 18.6425V24.0625H30.8005ZM42.3305 17.9625H45.8505L45.4105 16.3425C44.9505 14.8025 44.5505 13.1025 44.1105 11.5025H44.0305C43.6505 13.1225 43.2105 14.8025 42.7705 16.3425L42.3305 17.9625ZM47.5305 24.0625L46.4905 20.2625H41.6905L40.6505 24.0625H37.6505L42.3905 9.2625H45.8705L50.6305 24.0625H47.5305ZM58.1686 24.3425C54.4286 24.3425 51.3886 21.6625 51.3886 16.7225C51.3886 11.8425 54.5286 8.9825 58.2686 8.9825C60.1486 8.9825 61.6486 9.8825 62.6086 10.8825L61.0486 12.7625C60.3086 12.0425 59.4486 11.5225 58.3286 11.5225C56.0886 11.5225 54.4086 13.4425 54.4086 16.6225C54.4086 19.8425 55.9286 21.7825 58.2686 21.7825C59.5286 21.7825 60.5286 21.1825 61.3286 20.3225L62.8886 22.1625C61.6686 23.5825 60.0886 24.3425 58.1686 24.3425Z" fill="white"/>
</svg>
