<svg width="100" height="90" viewBox="0 0 100 90" fill="none" xmlns="http://www.w3.org/2000/svg">
<path d="M11.625 22.75L33.875 11.625L56.125 22.75L78.375 11.625V67.25L56.125 78.375L33.875 67.25L11.625 78.375V22.75Z" fill="#EEF3F9" stroke="#222222" stroke-width="3" stroke-linecap="round" stroke-linejoin="round"/>
<path d="M33.875 11.625V67.25" stroke="#222222" stroke-width="3" stroke-linecap="round" stroke-linejoin="round"/>
<path d="M56.125 22.75V78.375" stroke="#222222" stroke-width="3" stroke-linecap="round" stroke-linejoin="round"/>
<path d="M92.8307 44.1666C92.8307 54.1666 79.4974 64.1666 79.4974 64.1666C79.4974 64.1666 66.1641 54.1666 66.1641 44.1666C66.1641 40.6304 67.5688 37.239 70.0693 34.7386C72.5698 32.2381 75.9612 30.8333 79.4974 30.8333C83.0336 30.8333 86.425 32.2381 88.9255 34.7386C91.426 37.239 92.8307 40.6304 92.8307 44.1666Z" fill="#EEF3F9" stroke="#222222" stroke-width="3" stroke-linecap="round" stroke-linejoin="round"/>
<path d="M79.5 49.1667C82.2614 49.1667 84.5 46.9281 84.5 44.1667C84.5 41.4053 82.2614 39.1667 79.5 39.1667C76.7386 39.1667 74.5 41.4053 74.5 44.1667C74.5 46.9281 76.7386 49.1667 79.5 49.1667Z" fill="#EEF3F9" stroke="#222222" stroke-width="3" stroke-linecap="round" stroke-linejoin="round"/>
</svg>
