<svg width="10" height="8" viewBox="0 0 10 8" fill="none" xmlns="http://www.w3.org/2000/svg">
<path d="M9.7704 7.78954C10.0664 7.51012 10.0664 7.05876 9.7704 6.77935L6.83302 3.99955L9.77799 1.21975C10.074 0.940333 10.074 0.488973 9.77799 0.20956C9.48197 -0.0698533 9.0038 -0.0698533 8.70778 0.20956L5.22391 3.49804C4.92789 3.77745 4.92789 4.22881 5.22391 4.50822L8.70778 7.7967C8.99621 8.06895 9.47439 8.06895 9.7704 7.78954Z" fill="#fff"/>
<path d="M4.7685 7.78954C5.06452 7.51012 5.06452 7.05876 4.7685 6.77935L1.83112 3.99955L4.77609 1.21975C5.07211 0.940333 5.07211 0.488973 4.77609 0.20956C4.48008 -0.0698533 4.0019 -0.0698533 3.70588 0.20956L0.222011 3.49804C-0.0740038 3.77745 -0.0740038 4.22881 0.222011 4.50822L3.70588 7.7967C3.99431 8.06895 4.47249 8.06895 4.7685 7.78954Z" fill="#fff"/>
</svg>
