<svg width="84" height="84" viewBox="0 0 84 84" fill="none" xmlns="http://www.w3.org/2000/svg">
<path d="M14 24.5V14C14 12.1435 14.7375 10.363 16.0503 9.05025C17.363 7.7375 19.1435 7 21 7H50.75L70 26.25V70C70 71.8565 69.2625 73.637 67.9497 74.9497C66.637 76.2625 64.8565 77 63 77H42" stroke="black" stroke-width="3" stroke-linecap="round" stroke-linejoin="round"/>
<path d="M49 7V28H70" stroke="black" stroke-width="3" stroke-linecap="round" stroke-linejoin="round"/>
<path d="M17.5 59.5C18.8789 59.5 20.2443 59.2284 21.5182 58.7007C22.7921 58.1731 23.9496 57.3996 24.9246 56.4246C25.8996 55.4496 26.6731 54.2921 27.2007 53.0182C27.7284 51.7443 28 50.3789 28 49C28 47.6211 27.7284 46.2557 27.2007 44.9818C26.6731 43.7079 25.8996 42.5504 24.9246 41.5754C23.9496 40.6004 22.7921 39.8269 21.5182 39.2993C20.2443 38.7716 18.8789 38.5 17.5 38.5C14.7152 38.5 12.0445 39.6062 10.0754 41.5754C8.10625 43.5445 7 46.2152 7 49C7 51.7848 8.10625 54.4555 10.0754 56.4246C12.0445 58.3938 14.7152 59.5 17.5 59.5V59.5Z" stroke="black" stroke-width="3" stroke-linecap="round" stroke-linejoin="round"/>
<path d="M24.5 57.75L28 77L17.5 73.5L7 77L10.5 57.75" stroke="black" stroke-width="3" stroke-linecap="round" stroke-linejoin="round"/>
</svg>
