<svg width="9" height="8" viewBox="0 0 9 8" fill="none" xmlns="http://www.w3.org/2000/svg">
<path d="M0.19981 0.210464C-0.0666034 0.489877 -0.0666034 0.941237 0.19981 1.22065L2.85028 4.00045L0.19981 6.78025C-0.0666034 7.05967 -0.0666034 7.51103 0.19981 7.79044C0.466224 8.06985 0.896585 8.06985 1.163 7.79044L4.29848 4.50196C4.5649 4.22255 4.5649 3.77119 4.29848 3.49178L1.16983 0.210464C0.903416 -0.068949 0.466224 -0.068949 0.19981 0.210464Z" fill="#767680"/>
<path d="M4.70152 0.210464C4.4351 0.489877 4.4351 0.941237 4.70152 1.22065L7.35199 4.00045L4.70152 6.78025C4.4351 7.05967 4.4351 7.51103 4.70152 7.79044C4.96793 8.06985 5.39829 8.06985 5.66471 7.79044L8.80019 4.50196C9.0666 4.22255 9.0666 3.77119 8.80019 3.49178L5.66471 0.2033C5.40512 -0.0689491 4.96793 -0.0689489 4.70152 0.210464Z" fill="#767680"/>
</svg>
