<svg width="32" height="33" viewBox="0 0 32 33" fill="none" xmlns="http://www.w3.org/2000/svg">
<rect y="0.0625" width="32" height="32" rx="4" fill="#1C91FF"/>
<path d="M15.636 21.8145C17.076 21.8145 18.204 21.2625 18.204 20.1585C18.204 19.0545 17.076 18.5025 15.636 18.5025C14.172 18.5025 13.068 19.0545 13.068 20.1585C13.068 21.2625 14.172 21.8145 15.636 21.8145ZM15.636 15.8385C18.972 15.8385 21.42 17.6385 21.42 20.1585C21.42 22.6785 18.972 24.4785 15.636 24.4785C12.3 24.4785 9.828 22.6785 9.828 20.1585C9.828 17.6385 12.3 15.8385 15.636 15.8385ZM17.22 12.1425H22.884V14.7105H8.316V12.1425H14.052V9.4065H17.22V12.1425Z" fill="white"/>
</svg>
