<svg width="98" height="78" viewBox="0 0 98 78" fill="none" xmlns="http://www.w3.org/2000/svg">
<path d="M16.5 53.8333H13.3333C11.6536 53.8333 10.0427 53.1661 8.85499 51.9783C7.66726 50.7906 7 49.1797 7 47.5V15.8333C7 14.1536 7.66726 12.5427 8.85499 11.355C10.0427 10.1673 11.6536 9.5 13.3333 9.5H64C65.6797 9.5 67.2906 10.1673 68.4783 11.355C69.6661 12.5427 70.3333 14.1536 70.3333 15.8333V47.5C70.3333 49.1797 69.6661 50.7906 68.4783 51.9783C67.2906 53.1661 65.6797 53.8333 64 53.8333H60.8333" stroke="#222222" stroke-width="3" stroke-linecap="round" stroke-linejoin="round"/>
<path d="M38.6654 47.5L54.4987 66.5H22.832L38.6654 47.5Z" stroke="#222222" stroke-width="3" stroke-linecap="round" stroke-linejoin="round"/>
<path d="M83.666 34H63.666C61.4569 34 59.666 35.7909 59.666 38V70C59.666 72.2091 61.4569 74 63.666 74H83.666C85.8752 74 87.666 72.2091 87.666 70V38C87.666 35.7909 85.8752 34 83.666 34Z" fill="white" stroke="#222222" stroke-width="3" stroke-linecap="round" stroke-linejoin="round"/>
<path d="M73.666 66H73.686" stroke="#222222" stroke-width="4" stroke-linecap="round" stroke-linejoin="round"/>
</svg>
