<svg width="84" height="6" viewBox="0 0 84 6" fill="none" xmlns="http://www.w3.org/2000/svg">
<path id="Line 31" d="M1 2.5C0.723858 2.5 0.5 2.72386 0.5 3C0.5 3.27614 0.723858 3.5 1 3.5V2.5ZM78.3333 3C78.3333 4.47276 79.5272 5.66667 81 5.66667C82.4728 5.66667 83.6667 4.47276 83.6667 3C83.6667 1.52724 82.4728 0.333333 81 0.333333C79.5272 0.333333 78.3333 1.52724 78.3333 3ZM1 3.5H2V2.5H1V3.5ZM4 3.5H6V2.5H4V3.5ZM8 3.5H10V2.5H8V3.5ZM12 3.5H14V2.5H12V3.5ZM16 3.5H18V2.5H16V3.5ZM20 3.5H22V2.5H20V3.5ZM24 3.5H26V2.5H24V3.5ZM28 3.5H30V2.5H28V3.5ZM32 3.5H34V2.5H32V3.5ZM36 3.5H38V2.5H36V3.5ZM40 3.5H42V2.5H40V3.5ZM44 3.5H46V2.5H44V3.5ZM48 3.5H50V2.5H48V3.5ZM52 3.5H54V2.5H52V3.5ZM56 3.5H58V2.5H56V3.5ZM60 3.5H62V2.5H60V3.5ZM64 3.5H66V2.5H64V3.5ZM68 3.5H70V2.5H68V3.5ZM72 3.5H74V2.5H72V3.5ZM76 3.5H78V2.5H76V3.5ZM80 3.5H81V2.5H80V3.5Z" fill="#BBBBBB"/>
</svg>
