<svg width="380" height="363" viewBox="0 0 380 363" fill="none" xmlns="http://www.w3.org/2000/svg">
<rect x="156.5" y="231.5" width="121" height="47" rx="23.5" fill="#526FEE"/>
<path d="M206.058 259.808V256.912H203.85V255.584H206.058V253.856H203.85V252.512H206.058V248.784H207.706V259.808H206.058ZM203.786 250.432V251.744H195.77V250.432H199.018V248.752H200.666V250.432H203.786ZM198.074 255.216C198.074 256.16 198.794 256.72 199.834 256.72C200.89 256.72 201.61 256.16 201.61 255.216C201.61 254.288 200.89 253.696 199.834 253.696C198.794 253.696 198.074 254.288 198.074 255.216ZM203.162 255.216C203.162 256.88 201.802 258.016 199.834 258.016C197.882 258.016 196.522 256.88 196.522 255.216C196.522 253.536 197.882 252.416 199.834 252.416C201.802 252.416 203.162 253.536 203.162 255.216ZM199.962 261.616H208.042V262.96H198.298V258.88H199.962V261.616ZM211.609 255.2L211.113 253.936C214.009 253.728 215.817 252.72 216.025 251.44H211.753V250.144H216.153V248.768H217.801V250.144H222.201V251.44H217.929C218.137 252.72 219.945 253.728 222.841 253.936L222.329 255.2C219.817 254.992 217.881 254.16 216.969 252.88C216.073 254.16 214.137 254.992 211.609 255.2ZM220.265 260.8C220.265 260.016 219.097 259.6 216.953 259.6C214.825 259.6 213.657 260.016 213.657 260.8C213.657 261.584 214.825 261.984 216.953 261.984C219.097 261.984 220.265 261.584 220.265 260.8ZM223.513 257.136H217.801V258.4C220.409 258.56 221.929 259.392 221.929 260.8C221.929 262.368 220.089 263.232 216.953 263.232C213.833 263.232 211.977 262.368 211.977 260.8C211.977 259.376 213.529 258.544 216.153 258.4V257.136H210.441V255.824H223.513V257.136ZM232.743 256.912L231.127 256.768C231.495 254.528 231.527 252.848 231.527 251.632H225.799V250.304H233.143V251.264C233.143 252.528 233.143 254.352 232.743 256.912ZM229.511 254.448V258.752C231.015 258.688 232.535 258.608 233.943 258.416L234.023 259.632C231.047 260.128 227.735 260.192 225.207 260.192L225.031 258.832C225.911 258.832 226.887 258.816 227.895 258.8V254.448H229.511ZM238.503 254.72V256.112H236.375V263.232H234.711V248.784H236.375V254.72H238.503Z" fill="white"/>
<rect x="156.5" y="231.5" width="121" height="47" rx="23.5" stroke="#526FEE"/>
<rect x="42.5" y="98.5" width="121" height="47" rx="23.5" fill="white"/>
<path d="M89.3699 121.976L87.7539 121.8C88.0419 120.248 88.0899 119.112 88.1059 118.216H82.4579V116.872H89.7219V117.704C89.7219 118.68 89.7219 120.104 89.3699 121.976ZM90.5699 122.696L90.6819 123.896C87.6739 124.424 84.2659 124.504 81.7539 124.504L81.5779 123.16C82.4419 123.16 83.4339 123.16 84.4579 123.128V120.168H86.0899V123.08C87.5939 123.016 89.1459 122.92 90.5699 122.696ZM85.4179 125.672V128.616H93.5779V129.96H83.7539V125.672H85.4179ZM93.1139 120.36H95.0339V121.72H93.1139V126.632H91.4499V115.784H93.1139V120.36ZM98.9366 122.424V125.464C101.225 125.448 103.225 125.336 105.513 124.968L105.689 126.312C103.209 126.744 101.049 126.824 98.5046 126.824H97.2726V121.096H102.313V118.408H97.2406V117.064H103.977V122.424H98.9366ZM106.713 115.752H108.377V130.264H106.713V115.752ZM118.743 123.912L117.127 123.768C117.495 121.528 117.527 119.848 117.527 118.632H111.799V117.304H119.143V118.264C119.143 119.528 119.143 121.352 118.743 123.912ZM115.511 121.448V125.752C117.015 125.688 118.535 125.608 119.943 125.416L120.023 126.632C117.047 127.128 113.735 127.192 111.207 127.192L111.031 125.832C111.911 125.832 112.887 125.816 113.895 125.8V121.448H115.511ZM124.503 121.72V123.112H122.375V130.232H120.711V115.784H122.375V121.72H124.503Z" fill="#333333"/>
<rect x="42.5" y="98.5" width="121" height="47" rx="23.5" stroke="#333333"/>
<rect x="42.5" y="0.5" width="159" height="47" rx="23.5" fill="#B59378"/>
<path d="M77.029 24.856H71.301V27.224H75.461V32.232H73.813V28.552H65.269V27.224H69.637V24.856H63.941V23.528H73.429C73.749 21.976 73.781 20.808 73.781 19.768H65.573V18.44H75.397V19.544C75.397 20.632 75.397 21.88 75.077 23.528H77.029V24.856ZM87.4118 23.72L87.6038 25.064C85.3318 25.432 83.3798 25.496 80.6118 25.496H79.3958V21.304H84.3558V19.8H79.3638V18.456H85.9718V22.552H81.0278V24.152C83.5078 24.152 85.3158 24.072 87.4118 23.72ZM88.9318 30.728V29.224H82.7398V30.728H88.9318ZM88.9318 27.928V26.44H90.5638V32.056H81.0918V26.44H82.7398V27.928H88.9318ZM88.9158 17.784H90.5638V25.768H88.9158V17.784ZM95.4745 20.84V27.432C97.1385 27.416 98.4505 27.336 99.9385 27.032L100.083 28.392C98.3385 28.728 96.8505 28.792 94.8185 28.792H93.8585V19.496H99.2025V20.84H95.4745ZM104.131 17.768H105.699V32.216H104.131V24.824H102.419V31.512H100.867V18.072H102.419V23.48H104.131V17.768ZM115.793 21.656H118.417V17.8H120.065V28.36H118.417V23.016H115.793V21.656ZM116.689 25.032L115.873 26.312C114.273 25.768 113.105 24.632 112.497 23.208C111.857 24.776 110.641 26.04 108.929 26.632L108.081 25.336C110.321 24.552 111.633 22.648 111.633 20.696V20.2H108.577V18.872H116.305V20.2H113.297V20.696C113.297 22.472 114.529 24.28 116.689 25.032ZM112.353 30.616H120.433V31.96H110.705V27.448H112.353V30.616ZM133.136 28.808V25.912H130.928V24.584H133.136V22.856H130.928V21.512H133.136V17.784H134.784V28.808H133.136ZM130.864 19.432V20.744H122.848V19.432H126.096V17.752H127.744V19.432H130.864ZM125.152 24.216C125.152 25.16 125.872 25.72 126.912 25.72C127.968 25.72 128.688 25.16 128.688 24.216C128.688 23.288 127.968 22.696 126.912 22.696C125.872 22.696 125.152 23.288 125.152 24.216ZM130.24 24.216C130.24 25.88 128.88 27.016 126.912 27.016C124.96 27.016 123.6 25.88 123.6 24.216C123.6 22.536 124.96 21.416 126.912 21.416C128.88 21.416 130.24 22.536 130.24 24.216ZM127.04 30.616H135.12V31.96H125.376V27.88H127.04V30.616ZM138.687 24.2L138.191 22.936C141.087 22.728 142.895 21.72 143.103 20.44H138.831V19.144H143.231V17.768H144.879V19.144H149.279V20.44H145.007C145.215 21.72 147.023 22.728 149.919 22.936L149.407 24.2C146.895 23.992 144.959 23.16 144.047 21.88C143.151 23.16 141.215 23.992 138.687 24.2ZM147.343 29.8C147.343 29.016 146.175 28.6 144.031 28.6C141.903 28.6 140.735 29.016 140.735 29.8C140.735 30.584 141.903 30.984 144.031 30.984C146.175 30.984 147.343 30.584 147.343 29.8ZM150.591 26.136H144.879V27.4C147.487 27.56 149.007 28.392 149.007 29.8C149.007 31.368 147.167 32.232 144.031 32.232C140.911 32.232 139.055 31.368 139.055 29.8C139.055 28.376 140.607 27.544 143.231 27.4V26.136H137.519V24.824H150.591V26.136ZM159.742 26.264H162.574V17.768H164.222V28.76H162.574V27.416H159.742V26.264ZM156.862 19.544C155.661 19.544 154.846 20.056 154.846 20.872C154.846 21.688 155.661 22.2 156.862 22.2C158.046 22.2 158.862 21.688 158.862 20.872C158.862 20.056 158.046 19.544 156.862 19.544ZM156.862 23.416C154.734 23.416 153.278 22.408 153.278 20.872C153.278 19.336 154.734 18.328 156.862 18.328C158.974 18.328 160.43 19.336 160.43 20.872C160.43 22.408 158.974 23.416 156.862 23.416ZM156.206 28.296V25.608C154.83 25.672 153.518 25.688 152.382 25.688L152.174 24.344C154.83 24.328 158.382 24.296 161.438 23.912L161.566 25.096C160.35 25.304 159.086 25.448 157.854 25.512V28.296H156.206ZM155.774 30.616H164.558V31.96H154.126V27.688H155.774V30.616ZM175.452 24.584L174.652 25.864C173.036 25.352 171.884 24.312 171.26 22.968C170.62 24.504 169.404 25.736 167.676 26.328L166.844 25.032C169.116 24.248 170.38 22.392 170.38 20.424V20.136H167.308V18.808H175.068V20.136H172.044V20.408C172.044 22.2 173.244 23.88 175.452 24.584ZM173.596 30.936C175.612 30.936 176.78 30.424 176.78 29.496C176.78 28.552 175.612 28.056 173.596 28.056C171.58 28.056 170.412 28.552 170.412 29.496C170.412 30.424 171.58 30.936 173.596 30.936ZM173.596 26.76C176.572 26.76 178.412 27.768 178.412 29.496C178.412 31.208 176.572 32.232 173.596 32.232C170.62 32.232 168.78 31.208 168.78 29.496C168.78 27.768 170.62 26.76 173.596 26.76ZM178.252 21.304H180.3V22.664H178.252V26.424H176.604V17.784H178.252V21.304Z" fill="white"/>
<rect x="42.5" y="0.5" width="159" height="47" rx="23.5" stroke="#B59378"/>
<path d="M0 203C0 191.954 8.95431 183 20 183H65C76.0457 183 85 191.954 85 203C85 214.046 76.0457 223 65 223H20C8.9543 223 0 214.046 0 203Z" fill="#D9D9D9"/>
<path d="M30.3899 201.904V205.408H28.8539V197.04H30.3899V200.544H31.8939V196.768H33.4619V205.888H31.8939V201.904H30.3899ZM28.3579 198.4V199.696H21.1579V198.4H23.9579V196.912H25.5739V198.4H28.3579ZM23.1579 202.816C23.1579 203.6 23.7979 204.112 24.7739 204.112C25.7339 204.112 26.4059 203.6 26.4059 202.816C26.4059 202.032 25.7339 201.52 24.7739 201.52C23.7979 201.52 23.1579 202.032 23.1579 202.816ZM27.8779 202.816C27.8779 204.32 26.5979 205.312 24.7739 205.312C22.9659 205.312 21.6859 204.32 21.6859 202.816C21.6859 201.328 22.9659 200.32 24.7739 200.32C26.5979 200.32 27.8779 201.328 27.8779 202.816ZM28.6619 209.984C30.7419 209.984 31.8939 209.52 31.8939 208.656C31.8939 207.792 30.7419 207.344 28.6619 207.344C26.5979 207.344 25.4139 207.792 25.4139 208.656C25.4139 209.52 26.5979 209.984 28.6619 209.984ZM28.6619 206.096C31.7179 206.096 33.5419 207.024 33.5419 208.656C33.5419 210.288 31.7179 211.232 28.6619 211.232C25.6059 211.232 23.7659 210.288 23.7659 208.656C23.7659 207.024 25.6059 206.096 28.6619 206.096ZM43.7166 200.416H46.2766V196.784H47.9246V205.392H46.2766V201.76H43.7166V200.416ZM44.5486 203.632L43.7326 204.928C42.1326 204.368 40.9806 203.232 40.3726 201.84C39.7326 203.424 38.5166 204.704 36.8046 205.312L35.9566 204C38.1966 203.2 39.4926 201.28 39.4926 199.296V199.088H36.4366V197.76H44.1646V199.088H41.1566V199.28C41.1566 201.088 42.3886 202.88 44.5486 203.632ZM43.1246 209.968C45.1566 209.968 46.3406 209.456 46.3406 208.512C46.3406 207.568 45.1566 207.056 43.1246 207.056C41.0606 207.056 39.8926 207.568 39.8926 208.512C39.8926 209.456 41.0606 209.968 43.1246 209.968ZM43.1246 205.776C46.1326 205.776 47.9886 206.8 47.9886 208.512C47.9886 210.24 46.1326 211.248 43.1246 211.248C40.1006 211.248 38.2446 210.24 38.2446 208.512C38.2446 206.8 40.1006 205.776 43.1246 205.776ZM59.4754 202.912L59.6354 204.224C57.5714 204.56 55.7954 204.608 52.6914 204.608H51.4914V197.616H58.4034V198.944H53.1234V200.432H57.9874V201.728H53.1234V203.296C55.9074 203.296 57.5554 203.232 59.4754 202.912ZM54.7394 207.376V209.744H60.9634V207.376H54.7394ZM53.1234 211.056V206.064H62.5794V211.056H53.1234ZM60.9314 196.784H62.5794V205.392H60.9314V196.784Z" fill="#777777"/>
<path d="M97 203C97 191.954 105.954 183 117 183H162C173.046 183 182 191.954 182 203C182 214.046 173.046 223 162 223H117C105.954 223 97 214.046 97 203Z" fill="#D9D9D9"/>
<path d="M125.87 202.976L124.254 202.8C124.542 201.248 124.59 200.112 124.606 199.216H118.958V197.872H126.222V198.704C126.222 199.68 126.222 201.104 125.87 202.976ZM127.07 203.696L127.182 204.896C124.174 205.424 120.766 205.504 118.254 205.504L118.078 204.16C118.942 204.16 119.934 204.16 120.958 204.128V201.168H122.59V204.08C124.094 204.016 125.646 203.92 127.07 203.696ZM121.918 206.672V209.616H130.078V210.96H120.254V206.672H121.918ZM129.614 201.36H131.534V202.72H129.614V207.632H127.95V196.784H129.614V201.36ZM135.437 203.424V206.464C137.725 206.448 139.725 206.336 142.013 205.968L142.189 207.312C139.709 207.744 137.549 207.824 135.005 207.824H133.773V202.096H138.813V199.408H133.741V198.064H140.477V203.424H135.437ZM143.213 196.752H144.877V211.264H143.213V196.752ZM156.475 202.912L156.635 204.224C154.571 204.56 152.795 204.608 149.691 204.608H148.491V197.616H155.403V198.944H150.123V200.432H154.987V201.728H150.123V203.296C152.907 203.296 154.555 203.232 156.475 202.912ZM151.739 207.376V209.744H157.963V207.376H151.739ZM150.123 211.056V206.064H159.579V211.056H150.123ZM157.931 196.784H159.579V205.392H157.931V196.784Z" fill="#777777"/>
<path d="M43 343C43 331.954 51.9543 323 63 323H108C119.046 323 128 331.954 128 343C128 354.046 119.046 363 108 363H63C51.9543 363 43 354.046 43 343Z" fill="#D9D9D9"/>
<path d="M74.5579 347.808V344.912H72.3499V343.584H74.5579V341.856H72.3499V340.512H74.5579V336.784H76.2059V347.808H74.5579ZM72.2859 338.432V339.744H64.2699V338.432H67.5179V336.752H69.1659V338.432H72.2859ZM66.5739 343.216C66.5739 344.16 67.2939 344.72 68.3339 344.72C69.3899 344.72 70.1099 344.16 70.1099 343.216C70.1099 342.288 69.3899 341.696 68.3339 341.696C67.2939 341.696 66.5739 342.288 66.5739 343.216ZM71.6619 343.216C71.6619 344.88 70.3019 346.016 68.3339 346.016C66.3819 346.016 65.0219 344.88 65.0219 343.216C65.0219 341.536 66.3819 340.416 68.3339 340.416C70.3019 340.416 71.6619 341.536 71.6619 343.216ZM68.4619 349.616H76.5419V350.96H66.7979V346.88H68.4619V349.616ZM80.1086 343.2L79.6126 341.936C82.5086 341.728 84.3166 340.72 84.5246 339.44H80.2526V338.144H84.6526V336.768H86.3006V338.144H90.7006V339.44H86.4286C86.6366 340.72 88.4446 341.728 91.3406 341.936L90.8286 343.2C88.3166 342.992 86.3806 342.16 85.4686 340.88C84.5726 342.16 82.6366 342.992 80.1086 343.2ZM88.7646 348.8C88.7646 348.016 87.5966 347.6 85.4526 347.6C83.3246 347.6 82.1566 348.016 82.1566 348.8C82.1566 349.584 83.3246 349.984 85.4526 349.984C87.5966 349.984 88.7646 349.584 88.7646 348.8ZM92.0126 345.136H86.3006V346.4C88.9086 346.56 90.4286 347.392 90.4286 348.8C90.4286 350.368 88.5886 351.232 85.4526 351.232C82.3326 351.232 80.4766 350.368 80.4766 348.8C80.4766 347.376 82.0286 346.544 84.6526 346.4V345.136H78.9406V343.824H92.0126V345.136ZM102.475 342.912L102.635 344.224C100.571 344.56 98.7954 344.608 95.6914 344.608H94.4914V337.616H101.403V338.944H96.1234V340.432H100.987V341.728H96.1234V343.296C98.9074 343.296 100.555 343.232 102.475 342.912ZM97.7394 347.376V349.744H103.963V347.376H97.7394ZM96.1234 351.056V346.064H105.579V351.056H96.1234ZM103.931 336.784H105.579V345.392H103.931V336.784Z" fill="#777777"/>
<path d="M140 343C140 331.954 148.954 323 160 323H234C245.046 323 254 331.954 254 343C254 354.046 245.046 363 234 363H160C148.954 363 140 354.046 140 343Z" fill="#D9D9D9"/>
<path d="M168.715 340.656H171.339V336.8H172.987V347.36H171.339V342.016H168.715V340.656ZM169.611 344.032L168.795 345.312C167.195 344.768 166.027 343.632 165.419 342.208C164.779 343.776 163.563 345.04 161.851 345.632L161.003 344.336C163.243 343.552 164.555 341.648 164.555 339.696V339.2H161.499V337.872H169.227V339.2H166.219V339.696C166.219 341.472 167.451 343.28 169.611 344.032ZM165.275 349.616H173.355V350.96H163.627V346.448H165.275V349.616ZM177.77 343.552V346.48C179.114 346.464 180.41 346.384 181.962 346.128L182.09 347.472C180.234 347.776 178.762 347.84 177.114 347.84H176.186V342.24H179.498V339.616H176.154V338.272H181.098V343.552H177.77ZM183.578 340.448V337.04H185.13V350.512H183.578V345.392H181.85V344.048H183.578V341.792H181.85V340.448H183.578ZM186.49 336.784H188.058V351.216H186.49V336.784ZM200.777 347.536V341.392H197.849V340.032H200.777V336.784H202.425V347.536H200.777ZM198.985 343.984L198.105 345.264C196.553 344.688 195.417 343.52 194.809 342.064C194.169 343.68 192.969 344.96 191.305 345.6L190.425 344.32C192.681 343.52 193.929 341.488 193.929 339.344V337.664H195.609V339.376C195.609 341.328 196.825 343.2 198.985 343.984ZM194.681 349.616H202.761V350.96H193.017V346.4H194.681V349.616ZM215.431 336.8H217.079V345.024H215.431V336.8ZM207.623 345.744H217.079V351.056H207.623V345.744ZM215.463 347.056H209.239V349.744H215.463V347.056ZM209.287 337.504C211.495 337.504 213.111 338.896 213.111 340.912C213.111 342.928 211.495 344.32 209.287 344.32C207.079 344.32 205.447 342.928 205.447 340.912C205.447 338.896 207.079 337.504 209.287 337.504ZM209.287 338.864C207.991 338.864 207.063 339.68 207.063 340.912C207.063 342.16 207.991 342.96 209.287 342.96C210.567 342.96 211.511 342.16 211.511 340.912C211.511 339.68 210.567 338.864 209.287 338.864ZM228.694 342.912L228.854 344.224C226.79 344.56 225.014 344.608 221.91 344.608H220.71V337.616H227.622V338.944H222.342V340.432H227.206V341.728H222.342V343.296C225.126 343.296 226.774 343.232 228.694 342.912ZM223.958 347.376V349.744H230.182V347.376H223.958ZM222.342 351.056V346.064H231.798V351.056H222.342ZM230.15 336.784H231.798V345.392H230.15V336.784Z" fill="#777777"/>
<path d="M266 343C266 331.954 274.954 323 286 323H360C371.046 323 380 331.954 380 343C380 354.046 371.046 363 360 363H286C274.954 363 266 354.046 266 343Z" fill="#D9D9D9"/>
<path d="M288.811 341.36C288.811 342.688 289.771 343.552 291.035 343.552C292.299 343.552 293.275 342.688 293.275 341.36C293.275 340.048 292.299 339.184 291.035 339.184C289.771 339.184 288.811 340.048 288.811 341.36ZM294.891 341.36C294.891 343.472 293.227 344.976 291.035 344.976C288.859 344.976 287.195 343.472 287.195 341.36C287.195 339.248 288.859 337.76 291.035 337.76C293.227 337.76 294.891 339.248 294.891 341.36ZM290.811 346.288V349.616H298.875V350.96H289.147V346.288H290.811ZM298.299 341.072H300.347V342.432H298.299V347.376H296.651V336.784H298.299V341.072ZM310.218 343.584L309.418 344.864C307.802 344.352 306.65 343.312 306.026 341.968C305.386 343.504 304.17 344.736 302.442 345.328L301.61 344.032C303.882 343.248 305.146 341.392 305.146 339.424V339.136H302.074V337.808H309.834V339.136H306.81V339.408C306.81 341.2 308.01 342.88 310.218 343.584ZM308.362 349.936C310.378 349.936 311.546 349.424 311.546 348.496C311.546 347.552 310.378 347.056 308.362 347.056C306.346 347.056 305.178 347.552 305.178 348.496C305.178 349.424 306.346 349.936 308.362 349.936ZM308.362 345.76C311.338 345.76 313.178 346.768 313.178 348.496C313.178 350.208 311.338 351.232 308.362 351.232C305.386 351.232 303.546 350.208 303.546 348.496C303.546 346.768 305.386 345.76 308.362 345.76ZM313.018 340.304H315.066V341.664H313.018V345.424H311.37V336.784H313.018V340.304ZM317.785 344.528L317.209 343.232C320.009 342.896 321.993 341.376 322.137 339.824H317.689V338.496H322.153V336.784H323.801V338.496H328.281V339.824H323.817C323.961 341.36 325.945 342.896 328.745 343.232L328.153 344.528C325.801 344.224 323.913 343.152 322.969 341.712C322.041 343.152 320.153 344.208 317.785 344.528ZM329.513 345.472V346.832H323.801V351.264H322.153V346.832H316.457V345.472H329.513ZM334.247 339.248V343.536H341.127V339.248H334.247ZM338.519 348.112H344.263V349.456H331.175V348.112H336.871V344.848H332.631V337.936H342.743V344.848H338.519V348.112ZM354.694 342.912L354.854 344.224C352.79 344.56 351.014 344.608 347.91 344.608H346.71V337.616H353.622V338.944H348.342V340.432H353.206V341.728H348.342V343.296C351.126 343.296 352.774 343.232 354.694 342.912ZM349.958 347.376V349.744H356.182V347.376H349.958ZM348.342 351.056V346.064H357.798V351.056H348.342ZM356.15 336.784H357.798V345.392H356.15V336.784Z" fill="#777777"/>
<path d="M201 19.5C198.5 19.5 196.5 21.5 196.5 24C196.5 26.5 198.5 28.5 201 28.5C203.5 28.5 205.5 26.5 205.5 24C205.5 21.5 203.5 19.5 201 19.5Z" fill="white"/>
<path d="M215.939 233.061C216.525 233.646 217.475 233.646 218.061 233.061L227.607 223.515C228.192 222.929 228.192 221.979 227.607 221.393C227.021 220.808 226.071 220.808 225.485 221.393L217 229.879L208.515 221.393C207.929 220.808 206.979 220.808 206.393 221.393C205.808 221.979 205.808 222.929 206.393 223.515L215.939 233.061ZM207 24C207 23.1901 206.841 22.4142 206.549 21.7048L203.775 22.8451C203.919 23.1964 204 23.5852 204 24H207ZM203.295 18.4505C202.586 18.159 201.81 18 201 18V21C201.415 21 201.804 21.081 202.155 21.2254L203.295 18.4505ZM201 18C200.19 18 199.414 18.159 198.705 18.4505L199.845 21.2254C200.196 21.081 200.585 21 201 21V18ZM195.451 21.7048C195.159 22.4142 195 23.1901 195 24H198C198 23.5852 198.081 23.1964 198.225 22.8451L195.451 21.7048ZM195 24C195 24.8099 195.159 25.5858 195.451 26.2952L198.225 25.1549C198.081 24.8036 198 24.4148 198 24H195ZM198.705 29.5495C199.414 29.841 200.19 30 201 30V27C200.585 27 200.196 26.919 199.845 26.7747L198.705 29.5495ZM201 30C201.81 30 202.586 29.841 203.295 29.5495L202.155 26.7747C201.804 26.919 201.415 27 201 27V30ZM206.549 26.2952C206.841 25.5858 207 24.8099 207 24H204C204 24.4148 203.919 24.8036 203.775 25.1549L206.549 26.2952ZM205.5 25.5C206.17 25.5 206.823 25.5656 207.453 25.6904L208.035 22.7474C207.214 22.5849 206.366 22.5 205.5 22.5V25.5ZM211.055 27.1835C212.146 27.914 213.086 28.8537 213.817 29.9449L216.309 28.2759C215.361 26.8589 214.141 25.6392 212.724 24.6905L211.055 27.1835ZM215.31 33.5467C215.434 34.1773 215.5 34.8302 215.5 35.5H218.5C218.5 34.6337 218.415 33.7858 218.253 32.9645L215.31 33.5467ZM215.5 35.5V38.5703H218.5V35.5H215.5ZM215.5 44.7109V50.8516H218.5V44.7109H215.5ZM215.5 56.9922V63.1328H218.5V56.9922H215.5ZM215.5 69.2734V75.4141H218.5V69.2734H215.5ZM215.5 81.5547V87.6953H218.5V81.5547H215.5ZM215.5 93.8359V99.9766H218.5V93.8359H215.5ZM215.5 106.117V112.258H218.5V106.117H215.5ZM215.5 118.398V124.539H218.5V118.398H215.5ZM215.5 130.68V136.82H218.5V130.68H215.5ZM215.5 142.961V149.102H218.5V142.961H215.5ZM215.5 155.242V161.383H218.5V155.242H215.5ZM215.5 167.523V173.664H218.5V167.523H215.5ZM215.5 179.805V185.945H218.5V179.805H215.5ZM215.5 192.086V198.227H218.5V192.086H215.5ZM215.5 204.367V210.508H218.5V204.367H215.5ZM215.5 216.648V222.789H218.5V216.648H215.5ZM215.5 228.93V232H218.5V228.93H215.5Z" fill="black"/>
<path d="M217 273.5C214.5 273.5 212.5 275.5 212.5 278C212.5 280.5 214.5 282.5 217 282.5C219.5 282.5 221.5 280.5 221.5 278C221.5 275.5 219.5 273.5 217 273.5Z" fill="white"/>
<path d="M84.1395 323.632C84.4884 324.383 85.3804 324.709 86.1317 324.36L98.3761 318.675C99.1274 318.326 99.4537 317.434 99.1048 316.683C98.7559 315.931 97.864 315.605 97.1126 315.954L86.2287 321.008L81.1749 310.124C80.826 309.373 79.934 309.046 79.1827 309.395C78.4313 309.744 78.105 310.636 78.4539 311.387L84.1395 323.632ZM217 281C216.585 281 216.196 280.919 215.845 280.775L214.705 283.549C215.414 283.841 216.19 284 217 284V281ZM214.225 279.155C214.081 278.804 214 278.415 214 278H211C211 278.81 211.159 279.586 211.451 280.295L214.225 279.155ZM214 278C214 277.585 214.081 277.196 214.225 276.845L211.451 275.705C211.159 276.414 211 277.19 211 278H214ZM215.845 275.225C216.196 275.081 216.585 275 217 275V272C216.19 272 215.414 272.159 214.705 272.451L215.845 275.225ZM217 275C217.415 275 217.804 275.081 218.155 275.225L219.295 272.451C218.586 272.159 217.81 272 217 272V275ZM219.775 276.845C219.919 277.196 220 277.585 220 278H223C223 277.19 222.841 276.414 222.549 275.705L219.775 276.845ZM220 278C220 278.415 219.919 278.804 219.775 279.155L222.549 280.295C222.841 279.586 223 278.81 223 278H220ZM218.155 280.775C217.804 280.919 217.415 281 217 281V284C217.81 284 218.586 283.841 219.295 283.549L218.155 280.775ZM86.9087 323.515C87.1419 322.878 87.5458 322.223 88.1518 321.552L85.925 319.541C85.1156 320.438 84.482 321.417 84.0913 322.485L86.9087 323.515ZM92.4598 318.38C93.9471 317.568 95.6903 316.787 97.6651 316.033L96.595 313.23C94.5303 314.018 92.6583 314.854 91.0231 315.746L92.4598 318.38ZM103.122 314.188C104.893 313.652 106.775 313.133 108.752 312.629L108.011 309.722C105.999 310.235 104.074 310.765 102.253 311.316L103.122 314.188ZM114.456 311.272C116.306 310.859 118.215 310.456 120.175 310.062L119.583 307.121C117.606 307.519 115.676 307.926 113.802 308.344L114.456 311.272ZM125.931 308.951C127.826 308.599 129.755 308.254 131.711 307.913L131.195 304.957C129.231 305.3 127.291 305.647 125.383 306.001L125.931 308.951ZM137.506 306.926C139.426 306.607 141.364 306.29 143.311 305.976L142.833 303.014C140.882 303.329 138.94 303.646 137.013 303.967L137.506 306.926ZM149.123 305.046C151.062 304.738 153.001 304.431 154.939 304.124L154.469 301.161C152.533 301.468 150.591 301.775 148.653 302.083L149.123 305.046ZM160.756 303.197C162.709 302.884 164.65 302.569 166.574 302.252L166.086 299.292C164.167 299.608 162.23 299.922 160.281 300.235L160.756 303.197ZM172.391 301.273C174.359 300.934 176.301 300.591 178.207 300.242L177.667 297.291C175.773 297.637 173.842 297.979 171.882 298.316L172.391 301.273ZM184.02 299.136C186.009 298.742 187.948 298.338 189.825 297.925L189.18 294.995C187.326 295.404 185.408 295.802 183.436 296.193L184.02 299.136ZM195.61 296.565C197.622 296.057 199.538 295.532 201.341 294.987L200.473 292.115C198.722 292.645 196.851 293.157 194.876 293.656L195.61 296.565ZM207.035 293.043C209.11 292.233 210.964 291.37 212.542 290.442L211.02 287.856C209.619 288.681 207.919 289.478 205.945 290.248L207.035 293.043ZM217.453 286.055C218.122 284.968 218.5 283.778 218.5 282.5H215.5C215.5 283.158 215.311 283.811 214.898 284.484L217.453 286.055Z" fill="black"/>
<path d="M217 273.5C214.5 273.5 212.5 275.5 212.5 278C212.5 280.5 214.5 282.5 217 282.5C219.5 282.5 221.5 280.5 221.5 278C221.5 275.5 219.5 273.5 217 273.5Z" fill="white"/>
<path d="M195.83 323.939C196.348 324.585 197.292 324.688 197.939 324.17L208.469 315.722C209.115 315.204 209.219 314.26 208.7 313.614C208.182 312.968 207.238 312.864 206.592 313.382L197.231 320.891L189.722 311.531C189.204 310.885 188.26 310.781 187.614 311.3C186.968 311.818 186.864 312.762 187.382 313.408L195.83 323.939ZM217 281C216.585 281 216.196 280.919 215.845 280.775L214.705 283.549C215.414 283.841 216.19 284 217 284V281ZM214.225 279.155C214.081 278.804 214 278.415 214 278H211C211 278.81 211.159 279.586 211.451 280.295L214.225 279.155ZM214 278C214 277.585 214.081 277.196 214.225 276.845L211.451 275.705C211.159 276.414 211 277.19 211 278H214ZM215.845 275.225C216.196 275.081 216.585 275 217 275V272C216.19 272 215.414 272.159 214.705 272.451L215.845 275.225ZM217 275C217.415 275 217.804 275.081 218.155 275.225L219.295 272.451C218.586 272.159 217.81 272 217 272V275ZM219.775 276.845C219.919 277.196 220 277.585 220 278H223C223 277.19 222.841 276.414 222.549 275.705L219.775 276.845ZM220 278C220 278.415 219.919 278.804 219.775 279.155L222.549 280.295C222.841 279.586 223 278.81 223 278H220ZM218.155 280.775C217.804 280.919 217.415 281 217 281V284C217.81 284 218.586 283.841 219.295 283.549L218.155 280.775ZM198.491 323.164C198.597 322.2 198.739 321.287 198.913 320.421L195.972 319.829C195.78 320.786 195.624 321.787 195.509 322.836L198.491 323.164ZM200.53 315.199C201.291 313.436 202.209 311.874 203.226 310.432L200.774 308.703C199.657 310.287 198.631 312.029 197.776 314.009L200.53 315.199ZM206.778 306.093C208.024 304.723 209.459 303.235 210.718 301.822L208.479 299.826C207.183 301.279 205.938 302.558 204.559 304.075L206.778 306.093ZM214.419 297.074C215.485 295.427 216.413 293.615 217.114 291.545L214.273 290.583C213.662 292.388 212.85 293.977 211.9 295.444L214.419 297.074ZM218.363 285.546C218.453 284.576 218.5 283.563 218.5 282.5H215.5C215.5 283.474 215.457 284.395 215.376 285.268L218.363 285.546Z" fill="black"/>
<path d="M217 273.5C214.5 273.5 212.5 275.5 212.5 278C212.5 280.5 214.5 282.5 217 282.5C219.5 282.5 221.5 280.5 221.5 278C221.5 275.5 219.5 273.5 217 273.5Z" fill="white"/>
<path d="M321.939 324.061C322.525 324.646 323.475 324.646 324.061 324.061L333.607 314.515C334.192 313.929 334.192 312.979 333.607 312.393C333.021 311.808 332.071 311.808 331.485 312.393L323 320.879L314.515 312.393C313.929 311.808 312.979 311.808 312.393 312.393C311.808 312.979 311.808 313.929 312.393 314.515L321.939 324.061ZM217 281C216.585 281 216.196 280.919 215.845 280.775L214.705 283.549C215.414 283.841 216.19 284 217 284V281ZM214.225 279.155C214.081 278.804 214 278.415 214 278H211C211 278.81 211.159 279.586 211.451 280.295L214.225 279.155ZM214 278C214 277.585 214.081 277.196 214.225 276.845L211.451 275.705C211.159 276.414 211 277.19 211 278H214ZM215.845 275.225C216.196 275.081 216.585 275 217 275V272C216.19 272 215.414 272.159 214.705 272.451L215.845 275.225ZM217 275C217.415 275 217.804 275.081 218.155 275.225L219.295 272.451C218.586 272.159 217.81 272 217 272V275ZM219.775 276.845C219.919 277.196 220 277.585 220 278H223C223 277.19 222.841 276.414 222.549 275.705L219.775 276.845ZM220 278C220 278.415 219.919 278.804 219.775 279.155L222.549 280.295C222.841 279.586 223 278.81 223 278H220ZM218.155 280.775C217.804 280.919 217.415 281 217 281V284C217.81 284 218.586 283.841 219.295 283.549L218.155 280.775ZM215.5 282.5C215.5 283.8 215.627 285.072 215.871 286.304L218.814 285.722C218.608 284.681 218.5 283.604 218.5 282.5H215.5ZM218.785 293.336C220.209 295.461 222.039 297.291 224.164 298.715L225.833 296.222C224.033 295.017 222.483 293.467 221.278 291.667L218.785 293.336ZM231.196 301.629C232.428 301.873 233.7 302 235 302V299C233.896 299 232.819 298.892 231.778 298.686L231.196 301.629ZM235 302H237.833V299H235V302ZM243.5 302H249.167V299H243.5V302ZM254.833 302H260.5V299H254.833V302ZM266.167 302H271.833V299H266.167V302ZM277.5 302H283.167V299H277.5V302ZM288.833 302H294.5V299H288.833V302ZM300.167 302H303V299H300.167V302ZM303 302C303.82 302 304.627 302.053 305.418 302.156L305.806 299.182C304.887 299.062 303.95 299 303 299V302ZM310.081 303.403C311.584 304.027 312.988 304.843 314.262 305.821L316.09 303.443C314.611 302.306 312.979 301.357 311.23 300.632L310.081 303.403ZM317.679 309.238C318.657 310.512 319.473 311.916 320.097 313.419L322.868 312.27C322.143 310.521 321.194 308.889 320.057 307.41L317.679 309.238ZM321.344 318.082C321.447 318.873 321.5 319.68 321.5 320.5H324.5C324.5 319.55 324.438 318.613 324.318 317.694L321.344 318.082ZM321.5 320.5V321.125H324.5V320.5H321.5ZM321.5 322.375V323H324.5V322.375H321.5Z" fill="black"/>
<path d="M103 140.5C100.5 140.5 98.5 142.5 98.5 145C98.5 147.5 100.5 149.5 103 149.5C105.5 149.5 107.5 147.5 107.5 145C107.5 142.5 105.5 140.5 103 140.5Z" fill="white"/>
<path d="M138.719 184.28C139.426 184.712 140.349 184.488 140.78 183.781L147.812 172.257C148.243 171.55 148.02 170.627 147.313 170.195C146.606 169.764 145.682 169.987 145.251 170.694L139.001 180.938L128.757 174.688C128.05 174.257 127.127 174.48 126.695 175.187C126.264 175.894 126.487 176.818 127.194 177.249L138.719 184.28ZM103 148C102.585 148 102.196 147.919 101.845 147.775L100.705 150.549C101.414 150.841 102.19 151 103 151V148ZM100.225 146.155C100.081 145.804 100 145.415 100 145H97C97 145.81 97.159 146.586 97.4505 147.295L100.225 146.155ZM100 145C100 144.585 100.081 144.196 100.225 143.845L97.4505 142.705C97.159 143.414 97 144.19 97 145H100ZM101.845 142.225C102.196 142.081 102.585 142 103 142V139C102.19 139 101.414 139.159 100.705 139.451L101.845 142.225ZM103 142C103.415 142 103.804 142.081 104.155 142.225L105.295 139.451C104.586 139.159 103.81 139 103 139V142ZM105.775 143.845C105.919 144.196 106 144.585 106 145H109C109 144.19 108.841 143.414 108.549 142.705L105.775 143.845ZM106 145C106 145.415 105.919 145.804 105.775 146.155L108.549 147.295C108.841 146.586 109 145.81 109 145H106ZM104.155 147.775C103.804 147.919 103.415 148 103 148V151C103.81 151 104.586 150.841 105.295 150.549L104.155 147.775ZM101.5 149.5C101.5 150.777 101.669 151.981 101.991 153.115L104.877 152.297C104.633 151.436 104.5 150.509 104.5 149.5H101.5ZM105.696 159.235C107.237 160.803 109.103 162.162 111.117 163.396L112.684 160.838C110.791 159.678 109.145 158.464 107.834 157.132L105.696 159.235ZM116.93 166.548C117.894 167.027 118.872 167.502 119.846 167.974C120.822 168.447 121.794 168.919 122.757 169.397L124.091 166.71C123.113 166.224 122.128 165.747 121.155 165.275C120.179 164.801 119.215 164.333 118.266 163.862L116.93 166.548ZM128.363 172.406C130.233 173.527 131.933 174.713 133.382 176.02L135.391 173.791C133.752 172.314 131.879 171.016 129.905 169.833L128.363 172.406ZM137.042 180.642C137.471 181.49 137.809 182.39 138.042 183.353L140.958 182.647C140.669 181.453 140.249 180.335 139.718 179.287L137.042 180.642Z" fill="black"/>
<path d="M43 19.5C40.5 19.5 38.5 21.5 38.5 24C38.5 26.5 40.5 28.5 43 28.5C45.5 28.5 47.5 26.5 47.5 24C47.5 21.5 45.5 19.5 43 19.5Z" fill="white"/>
<path d="M44.0607 123.061C44.6464 122.475 44.6464 121.525 44.0607 120.939L34.5147 111.393C33.9289 110.808 32.9792 110.808 32.3934 111.393C31.8076 111.979 31.8076 112.929 32.3934 113.515L40.8787 122L32.3934 130.485C31.8076 131.071 31.8076 132.021 32.3934 132.607C32.9792 133.192 33.9289 133.192 34.5147 132.607L44.0607 123.061ZM40 24C40 23.5852 40.081 23.1964 40.2253 22.8451L37.4505 21.7048C37.159 22.4142 37 23.1901 37 24H40ZM41.8451 21.2254C42.1964 21.081 42.5852 21 43 21V18C42.1901 18 41.4142 18.159 40.7048 18.4505L41.8451 21.2254ZM43 21C43.4148 21 43.8036 21.081 44.1549 21.2254L45.2952 18.4505C44.5858 18.159 43.8099 18 43 18V21ZM45.7747 22.8451C45.919 23.1964 46 23.5852 46 24H49C49 23.1901 48.841 22.4142 48.5495 21.7048L45.7747 22.8451ZM46 24C46 24.4148 45.919 24.8036 45.7747 25.1549L48.5495 26.2952C48.841 25.5858 49 24.8099 49 24H46ZM44.1549 26.7747C43.8036 26.919 43.4148 27 43 27V30C43.8099 30 44.5858 29.841 45.2952 29.5495L44.1549 26.7747ZM43 27C42.5852 27 42.1964 26.919 41.8451 26.7747L40.7048 29.5495C41.4142 29.841 42.1901 30 43 30V27ZM40.2253 25.1549C40.081 24.8036 40 24.4148 40 24H37C37 24.8099 37.159 25.5858 37.4505 26.2952L40.2253 25.1549ZM38.5 22.5H37.125V25.5H38.5V22.5ZM34.375 22.5H33V25.5H34.375V22.5ZM33 22.5C32.0496 22.5 31.1129 22.5618 30.1938 22.6816L30.5818 25.6564C31.3726 25.5533 32.1797 25.5 33 25.5V22.5ZM24.7697 24.132C23.0209 24.8572 21.3893 25.8061 19.9103 26.9426L21.7383 29.3214C23.0118 28.3428 24.4156 27.5265 25.9188 26.9032L24.7697 24.132ZM15.9426 30.9103C14.8061 32.3893 13.8572 34.021 13.132 35.7697L15.9032 36.9188C16.5265 35.4156 17.3428 34.0118 18.3214 32.7383L15.9426 30.9103ZM11.6816 41.1938C11.5618 42.1129 11.5 43.0496 11.5 44H14.5C14.5 43.1797 14.5533 42.3726 14.6564 41.5818L11.6816 41.1938ZM11.5 44V46.9H14.5V44H11.5ZM11.5 52.7V58.5H14.5V52.7H11.5ZM11.5 64.3V70.1H14.5V64.3H11.5ZM11.5 75.9V81.7H14.5V75.9H11.5ZM11.5 87.5V93.3H14.5V87.5H11.5ZM11.5 99.1V102H14.5V99.1H11.5ZM11.5 102C11.5 102.95 11.5618 103.887 11.6816 104.806L14.6564 104.418C14.5533 103.627 14.5 102.82 14.5 102H11.5ZM13.132 110.23C13.8572 111.979 14.8061 113.611 15.9426 115.09L18.3214 113.262C17.3428 111.988 16.5265 110.584 15.9032 109.081L13.132 110.23ZM19.9103 119.057C21.3893 120.194 23.021 121.143 24.7697 121.868L25.9188 119.097C24.4156 118.473 23.0118 117.657 21.7383 116.679L19.9103 119.057ZM30.1938 123.318C31.1129 123.438 32.0496 123.5 33 123.5V120.5C32.1797 120.5 31.3726 120.447 30.5818 120.344L30.1938 123.318ZM33 123.5H35.5V120.5H33V123.5ZM40.5 123.5H43V120.5H40.5V123.5Z" fill="black"/>
<path d="M103 140.5C100.5 140.5 98.5 142.5 98.5 145C98.5 147.5 100.5 149.5 103 149.5C105.5 149.5 107.5 147.5 107.5 145C107.5 142.5 105.5 140.5 103 140.5Z" fill="white"/>
<path d="M41.1206 183.589C41.4461 184.351 42.3275 184.705 43.0893 184.379L55.5038 179.076C56.2656 178.75 56.6194 177.869 56.2939 177.107C55.9685 176.345 55.087 175.991 54.3252 176.317L43.2901 181.031L38.5757 169.996C38.2502 169.234 37.3688 168.881 36.607 169.206C35.8452 169.532 35.4914 170.413 35.8169 171.175L41.1206 183.589ZM103 148C102.585 148 102.196 147.919 101.845 147.775L100.705 150.549C101.414 150.841 102.19 151 103 151V148ZM100.225 146.155C100.081 145.804 100 145.415 100 145H97C97 145.81 97.159 146.586 97.4505 147.295L100.225 146.155ZM100 145C100 144.585 100.081 144.196 100.225 143.845L97.4505 142.705C97.159 143.414 97 144.19 97 145H100ZM101.845 142.225C102.196 142.081 102.585 142 103 142V139C102.19 139 101.414 139.159 100.705 139.451L101.845 142.225ZM103 142C103.415 142 103.804 142.081 104.155 142.225L105.295 139.451C104.586 139.159 103.81 139 103 139V142ZM105.775 143.845C105.919 144.196 106 144.585 106 145H109C109 144.19 108.841 143.414 108.549 142.705L105.775 143.845ZM106 145C106 145.415 105.919 145.804 105.775 146.155L108.549 147.295C108.841 146.586 109 145.81 109 145H106ZM104.155 147.775C103.804 147.919 103.415 148 103 148V151C103.81 151 104.586 150.841 105.295 150.549L104.155 147.775ZM43.8921 183.559C44.2006 182.79 44.6321 182.048 45.1845 181.328L42.8044 179.502C42.1047 180.414 41.5292 181.392 41.1079 182.441L43.8921 183.559ZM49.274 177.674C50.7428 176.694 52.4401 175.778 54.3214 174.909L53.0636 172.185C51.0829 173.1 49.2412 174.09 47.6095 175.178L49.274 177.674ZM59.7689 172.684C61.5707 172.024 63.4543 171.392 65.3885 170.778L64.4803 167.919C62.5178 168.542 60.5908 169.188 58.7367 169.867L59.7689 172.684ZM71.099 169.037C73.0234 168.468 74.9357 167.913 76.8568 167.348L76.0093 164.47C74.113 165.028 72.1653 165.593 70.2481 166.16L71.099 169.037ZM82.6281 165.601C84.6082 164.978 86.5371 164.338 88.3733 163.669L87.3455 160.85C85.5644 161.5 83.6807 162.125 81.7278 162.74L82.6281 165.601ZM94.0581 161.329C96.0912 160.366 97.9365 159.315 99.4889 158.142L97.6803 155.749C96.3425 156.76 94.6904 157.71 92.7744 158.617L94.0581 161.329ZM103.788 153.009C104.252 151.912 104.5 150.741 104.5 149.5H101.5C101.5 150.331 101.336 151.105 101.025 151.839L103.788 153.009Z" fill="black"/>
</svg>
