<svg width="88" height="106" viewBox="0 0 88 106" fill="none" xmlns="http://www.w3.org/2000/svg">
<g id="Isolation_Mode" clip-path="url(#clip0_312_4075)">
<path id="Vector" d="M58.247 46.6047C58.247 46.6047 58.1649 36.4097 57.0988 36.9294C56.0319 37.4498 55.2376 42.1048 55.5728 43.6804C55.908 45.256 56.9988 48.439 58.247 46.6047Z" fill="#F4F3E6"/>
<path id="Vector_2" d="M67.786 48.2118C67.786 48.2118 68.7148 38.0599 67.6016 38.4691C66.4885 38.8783 65.2372 43.4289 65.4149 45.031C65.5926 46.6331 66.3623 49.9107 67.786 48.2125V48.2118Z" fill="#F4F3E6"/>
<path id="Vector_3" d="M66.4184 48.2779C66.4184 48.2779 70.3439 38.89 69.1613 38.9377C67.9787 38.9853 65.4232 42.9369 65.1119 44.5178C64.8013 46.0987 64.5534 49.4587 66.4184 48.2779Z" fill="white"/>
<path id="Vector_4" d="M66.5779 47.1009C66.5779 47.1009 65.8962 36.9285 64.8622 37.5125C63.8282 38.0964 63.3094 42.7908 63.7364 44.3437C64.1634 45.8966 65.4401 49.0078 66.5779 47.1009Z" fill="#F4F3E6"/>
<path id="Vector_5" d="M65.2379 47.387C65.2379 47.387 67.6344 37.4847 66.4749 37.723C65.3148 37.9613 63.414 42.2751 63.3565 43.8863C63.2983 45.4975 63.5827 48.8537 65.2386 47.387H65.2379Z" fill="white"/>
<path id="Vector_6" d="M69.588 50.76C69.588 50.76 73.5202 41.3752 72.3377 41.4221C71.1551 41.4689 68.5966 45.4182 68.2845 46.9991C67.9724 48.58 67.7223 51.9393 69.588 50.7608V50.76Z" fill="#F4F3E6"/>
<path id="Vector_7" d="M73.4823 45.5767C74.4144 44.6287 74.936 43.6241 74.6474 43.3328C74.3588 43.0415 73.3692 43.5738 72.4372 44.5218C71.5051 45.4698 70.9835 46.4744 71.2721 46.7657C71.5607 47.057 72.5502 46.5247 73.4823 45.5767Z" fill="#F4F3E6"/>
<path id="Vector_8" d="M68.2654 50.4001C68.2654 50.4001 74.8233 42.6672 73.6825 42.348C72.5418 42.0288 68.9209 45.0053 68.1496 46.4153C67.3792 47.8252 66.1339 50.9492 68.2654 50.4001Z" fill="white"/>
<path id="Vector_9" d="M68.7708 49.3315C68.7708 49.3315 71.1755 39.4315 70.0146 39.6682C68.8544 39.9058 66.9506 44.2181 66.8909 45.8285C66.8319 47.4397 67.1134 50.7967 68.77 49.3307L68.7708 49.3315Z" fill="#F4F3E6"/>
<path id="Vector_10" d="M67.4082 49.1881C67.4082 49.1881 72.664 40.4938 71.4874 40.3629C70.3108 40.2321 67.2051 43.7562 66.6661 45.2728C66.127 46.7895 65.3902 50.0746 67.4074 49.1881H67.4082Z" fill="white"/>
<path id="Vector_11" d="M70.8454 53.3534C70.8454 53.3534 76.2193 44.7333 75.0449 44.5865C73.8698 44.4398 70.717 47.9193 70.1571 49.4284C69.5979 50.9374 68.8162 54.212 70.8454 53.3534Z" fill="#F4F3E6"/>
<path id="Vector_12" d="M66.5397 50.5605C66.5397 50.5605 71.9136 41.9403 70.7392 41.7936C69.5641 41.6468 66.4113 45.1263 65.8514 46.6354C65.2922 48.1445 64.5105 51.419 66.5397 50.5605Z" fill="#F4F3E6"/>
<path id="Vector_13" d="M60.0131 50.018C60.0131 50.018 59.4532 41.4145 59.4278 38.9432C59.4024 36.472 58.0653 36.4864 57.5397 38.9629C57.0141 41.4394 56.923 47.8977 57.6412 48.9265C58.3602 49.9552 59.324 51.9378 60.0131 50.018Z" fill="url(#paint0_linear_312_4075)"/>
<path id="Vector_14" d="M69.6382 44.3627C68.9469 45.5027 68.6684 46.6025 69.0156 46.8188C69.3627 47.0352 70.2049 46.2855 70.8955 45.1456C71.5868 44.0057 71.8653 42.9059 71.5181 42.6895C71.171 42.4732 70.3288 43.2228 69.6382 44.3627Z" fill="url(#paint1_linear_312_4075)"/>
<path id="Vector_15" d="M64.7398 40.8862C64.0485 42.0261 63.77 43.1259 64.1171 43.3423C64.4643 43.5586 65.3064 42.809 65.997 41.6691C66.6884 40.5291 66.9668 39.4293 66.6197 39.213C66.2725 38.9966 65.4304 39.7463 64.7398 40.8862Z" fill="url(#paint2_linear_312_4075)"/>
<path id="Vector_16" d="M76.1184 49.7141C75.0478 50.4977 74.3737 51.4039 74.6118 51.7382C74.8507 52.0733 75.9116 51.7095 76.9822 50.9258C78.0528 50.1422 78.7269 49.236 78.4888 48.9017C78.2506 48.5673 77.189 48.9304 76.1184 49.7141Z" fill="url(#paint3_linear_312_4075)"/>
<path id="Vector_17" d="M75.5127 48.8634C76.5833 48.0799 77.2579 47.1735 77.0194 46.8389C76.7808 46.5043 75.7196 46.8682 74.649 47.6517C73.5783 48.4352 72.9038 49.3416 73.1423 49.6761C73.3809 50.0107 74.4421 49.6469 75.5127 48.8634Z" fill="#F4F3E6"/>
<path id="Vector_18" d="M60.9451 56.2378C60.9451 56.2378 52.0347 71.2792 49.4867 86.4643C46.9379 101.649 46.419 116.415 46.2704 121.441C46.1219 126.467 43.1311 135.041 42.2658 139.619C41.4005 144.198 40.9989 151.299 40.9989 151.299L38.3037 153.695C38.3037 153.695 38.4314 147.449 39.8252 138.626C41.2191 129.803 44.0397 121.796 43.9971 117.481C43.9545 113.167 44.8676 104.413 46.3391 94.732C47.8106 85.0513 49.1694 77.4312 52.0191 70.5031C54.8687 63.5751 59.5871 55.082 59.5871 55.082L60.9444 56.2386L60.9451 56.2378Z" fill="#00633F"/>
<path id="Vector_19" d="M65.8 55.5729C65.8 55.5729 64.5443 54.2499 64.3875 53.0616C64.2307 51.8732 64.6361 51.3604 63.8283 51.2681C63.0198 51.1758 62.9145 51.4353 62.9145 51.4353C62.9145 51.4353 63.5342 50.3052 62.9638 49.8922C62.3927 49.4792 62.2829 49.8702 62.2829 49.8702C62.2829 49.8702 61.9649 48.6433 61.2907 48.424C60.6166 48.2046 59.8864 48.7069 59.808 49.132C59.7296 49.5571 59.6035 50.4731 59.2593 50.0677C58.9151 49.6622 59.213 48.455 58.9965 48.1199C58.78 47.784 58.5896 47.6464 58.1461 47.3029C57.7027 46.9595 56.438 44.9134 55.9788 45.0624C55.5197 45.2114 55.0606 46.3801 54.9545 46.6729C54.8478 46.9656 53.271 46.5518 52.0616 46.8415C50.8521 47.1305 49.9547 47.7916 48.9125 47.9225C47.8703 48.0526 45.7716 48.7401 46.8938 49.1713C48.0159 49.6025 49.4739 49.6501 49.4739 49.6501C49.4739 49.6501 49.179 50.7583 50.7924 51.0412L52.4057 51.3241C52.4057 51.3241 52.3744 52.3089 53.8033 52.2575C55.2323 52.2053 55.9893 51.8687 55.9893 51.8687C55.9893 51.8687 54.5447 52.4133 53.7697 53.3082C52.9948 54.203 51.9219 54.2673 52.6879 54.6864C53.4532 55.1062 54.3483 54.5101 54.6253 54.9798C54.9023 55.4488 55.4406 55.6969 56.0901 55.2574C56.7396 54.8187 57.1375 54.5358 57.1375 54.5358C57.1375 54.5358 56.7389 55.8467 57.7863 55.5638C58.8337 55.2817 59.5609 54.8452 59.5609 54.8452C59.5609 54.8452 58.5904 55.7665 59.098 56.1447C59.6057 56.5229 60.3224 56.4148 61.2698 56.2158C62.2172 56.0169 65.4574 56.1636 66.0875 56.7347L65.8 55.5744V55.5729Z" fill="#008456"/>
<path id="Vector_20" d="M65.605 56.048C65.605 56.048 61.5944 53.1358 59.704 52.3839C57.8137 51.632 56.0227 49.7985 54.8334 49.4309C53.6448 49.0633 51.5499 48.6003 50.3838 48.5625" stroke="#49AC76" stroke-width="2.61" stroke-linecap="round" stroke-linejoin="round"/>
<path id="Vector_21" d="M57.1703 50.8776C57.1703 50.8776 55.4561 51.2755 53.7524 50.7656" stroke="#49AC76" stroke-width="2.61" stroke-linecap="round" stroke-linejoin="round"/>
<path id="Vector_22" d="M58.4394 51.7328C58.4394 51.7328 57.7944 50.1822 57.4338 49.2828C57.0732 48.3834 56.8515 48.2117 56.6895 47.1875" stroke="#49AC76" stroke-width="2.61" stroke-linecap="round" stroke-linejoin="round"/>
<path id="Vector_23" d="M62.4541 54.0853C62.4705 53.8765 61.9823 53.1912 61.7531 52.6473C61.6127 52.3145 61.4634 51.9476 61.3522 51.5823C61.058 50.6193 60.9863 49.8281 60.9863 49.8281" stroke="#49AC76" stroke-width="2.61" stroke-linecap="round" stroke-linejoin="round"/>
<path id="Vector_24" d="M60.3858 51.3513C60.1089 50.8823 61.013 52.47 61.8827 52.9518" stroke="#49AC76" stroke-width="2.61" stroke-linecap="round" stroke-linejoin="round"/>
<path id="Vector_25" d="M60.8851 52.9991C60.8851 52.9991 59.4972 52.7683 58.5789 53.0671C58.4692 53.1027 58.3482 53.142 58.2183 53.1829C57.2597 53.4854 55.8494 53.8947 55.5366 53.8553" stroke="#49AC76" stroke-width="2.61" stroke-linecap="round" stroke-linejoin="round"/>
<path id="Vector_26" d="M56.3306 52.773C55.7341 52.7465 57.6408 52.7753 58.3949 53.1293" stroke="#49AC76" stroke-width="2.61" stroke-linecap="round" stroke-linejoin="round"/>
<path id="Vector_27" d="M63.7255 54.7388C63.7255 54.7388 61.1767 54.7653 60.2368 54.3727C59.2968 53.9801 57.626 54.5028 57.626 54.5028" stroke="#49AC76" stroke-width="2.61" stroke-linecap="round" stroke-linejoin="round"/>
<path id="Vector_28" d="M69.159 56.9932C70.5266 54.7365 68.7785 51.1299 65.2546 48.9377C61.7306 46.7454 57.7653 46.7977 56.3977 49.0545C55.0301 51.3112 56.7781 54.9178 60.302 57.11C63.826 59.3022 67.7914 59.2499 69.159 56.9932Z" fill="#E8E6D6"/>
<path id="Vector_29" d="M63.276 48.0963C63.276 48.0963 66.1772 38.3339 65.0066 38.5102C63.836 38.6864 61.7164 42.8951 61.5761 44.501C61.4357 46.1069 61.5477 49.4737 63.276 48.0963Z" fill="#F4F3E6"/>
<path id="Vector_30" d="M60.8473 46.6392C60.8473 46.6392 63.7485 36.8769 62.5779 37.0531C61.4072 37.2301 59.2877 41.4381 59.1474 43.044C59.007 44.6499 59.119 48.0167 60.8473 46.6392Z" fill="#F4F3E6"/>
<path id="Vector_31" d="M53.5517 48.0288C53.5517 48.0288 50.4773 45.333 48.2457 45.6007C46.015 45.8685 51.1708 49.3163 56.3894 51.5515C61.608 53.7867 53.5509 48.0296 53.5509 48.0296L53.5517 48.0288Z" fill="url(#paint4_linear_312_4075)"/>
<path id="Vector_32" d="M66.1709 49.6375C66.1709 49.6375 70.9363 40.6581 69.7545 40.5946C68.5726 40.531 65.667 44.2261 65.213 45.7707C64.7591 47.3161 64.2059 50.6375 66.1709 49.6375Z" fill="white"/>
<path id="Vector_33" d="M69.9673 53.6414C69.9673 53.6414 74.7327 44.662 73.5508 44.5985C72.369 44.5349 69.4633 48.23 69.0094 49.7746C68.5555 51.32 68.0023 54.6414 69.9673 53.6414Z" fill="white"/>
<path id="Vector_34" d="M63.7036 50.075C63.7036 50.075 68.469 41.0956 67.2872 41.0321C66.1053 40.9685 63.1997 44.6636 62.7457 46.2082C62.2918 47.7536 61.7386 51.075 63.7036 50.075Z" fill="white"/>
<path id="Vector_35" d="M70.6854 55.9869C70.6854 55.9869 80.432 53.4491 79.6764 52.5263C78.9209 51.6027 74.2705 51.9431 72.8423 52.6526C71.4133 53.3621 68.6278 55.2017 70.6861 55.9869H70.6854Z" fill="white"/>
<path id="Vector_36" d="M71.179 55.636C71.179 55.636 78.1639 48.2965 77.0426 47.9115C75.9212 47.5264 72.1383 50.2874 71.2887 51.6512C70.4391 53.0143 69.0199 56.0611 71.179 55.636Z" fill="white"/>
<path id="Vector_37" d="M70.4169 55.3867C70.4169 55.3867 79.7991 51.7007 78.9413 50.8747C78.0835 50.0479 73.5055 50.9427 72.1691 51.8179C70.8327 52.6931 68.2809 54.8534 70.4162 55.3867H70.4169Z" fill="#F4F3E6"/>
<path id="Vector_38" d="M71.4091 57.7162C71.4091 57.7162 81.3677 56.2503 80.7136 55.2503C80.0604 54.2503 75.4003 54.0846 73.9049 54.6353C72.4095 55.186 69.4456 56.7124 71.4083 57.717L71.4091 57.7162Z" fill="#F4F3E6"/>
<path id="Vector_39" d="M69.5973 52.7803C69.5973 52.7803 77.2997 46.2191 76.2239 45.7176C75.1489 45.2161 71.1017 47.5625 70.1169 48.8288C69.1322 50.095 67.4069 52.9747 69.5973 52.7803Z" fill="white"/>
<path id="Vector_40" d="M61.3601 56.6078C61.3601 56.6078 69.6747 43.1942 68.4996 43.0475C67.3245 42.9007 64.1717 46.3803 63.6118 47.8893C63.0519 49.3984 59.3302 57.4663 61.3594 56.6078H61.3601Z" fill="#F4F3E6"/>
<path id="Vector_41" d="M68.0895 52.8144C68.0895 52.8144 73.4634 44.1942 72.289 44.0475C71.1139 43.9007 67.9611 47.3802 67.4012 48.8893C66.842 50.3984 66.0603 53.6729 68.0895 52.8144Z" fill="#F4F3E6"/>
<path id="Vector_42" d="M61.5305 49.8339C61.5305 49.8339 66.9043 41.2137 65.7299 41.067C64.5548 40.9203 61.402 44.3998 60.8421 45.9088C60.2829 47.4179 59.5013 50.6924 61.5305 49.8339Z" fill="#F4F3E6"/>
<path id="Vector_43" d="M61.3633 47.3913C61.3633 47.3913 61.8195 37.2061 60.7265 37.6676C59.6342 38.129 58.595 42.7348 58.8466 44.3263C59.0982 45.9178 60.0195 49.1553 61.3626 47.3913H61.3633Z" fill="url(#paint5_linear_312_4075)"/>
<path id="Vector_44" d="M67.558 59.327C67.6678 59.4419 72.7497 64.7633 73.294 66.078C73.8382 67.3934 73.1626 68.4335 69.9374 65.2036C66.7122 61.9737 65.1929 58.1016 65.1929 58.1016L67.558 59.3262V59.327Z" fill="url(#paint6_linear_312_4075)"/>
<path id="Vector_45" d="M65.181 55.0821C65.2265 55.2356 67.3318 62.3256 67.2199 63.7476C67.1079 65.1689 66.0358 65.7794 64.6337 61.4103C63.2316 57.0412 63.6348 52.8945 63.6348 52.8945L65.1817 55.0821H65.181Z" fill="url(#paint7_linear_312_4075)"/>
<path id="Vector_46" d="M64.4912 56.0863C64.4949 56.199 64.6689 61.4039 64.1918 62.3895C63.7148 63.3751 62.53 63.6875 62.3224 60.4682C62.1149 57.2489 63.5781 54.3828 63.5781 54.3828L64.4905 56.0863H64.4912Z" fill="url(#paint8_linear_312_4075)"/>
<path id="Vector_47" d="M64.0547 54.8328C64.0084 54.9591 61.8784 60.8077 61.0109 61.6935C60.1441 62.5793 58.9287 62.4098 60.1553 58.7495C61.3819 55.0892 63.9733 52.5469 63.9733 52.5469L64.0547 54.8335V54.8328Z" fill="url(#paint9_linear_312_4075)"/>
<path id="Vector_48" d="M62.8562 55.1225C62.7449 55.1959 57.5921 58.6036 56.3751 58.7904C55.1582 58.9772 54.2825 58.1073 57.4211 55.91C60.5604 53.7126 64.1373 53.2383 64.1373 53.2383L62.8569 55.1225H62.8562Z" fill="url(#paint10_linear_312_4075)"/>
<path id="Vector_49" d="M69.5256 59.6409C69.663 59.7195 76.029 63.3556 76.9204 64.4593C77.8111 65.5629 77.4557 66.7557 73.4571 64.5886C69.4584 62.4215 66.9141 59.1484 66.9141 59.1484L69.5256 59.6409Z" fill="url(#paint11_linear_312_4075)"/>
<path id="Vector_50" d="M57.9363 51.9864C57.9363 51.9864 55.4248 50.1022 52.8185 49.6605C50.2122 49.218 52.4079 51.7573 55.2404 53.1483C58.0736 54.5394 60.1656 55.5832 59.7594 54.1944C59.3533 52.8064 57.9363 51.9864 57.9363 51.9864Z" fill="url(#paint12_linear_312_4075)"/>
<path id="Vector_51" d="M58.3417 54.0325C58.3417 54.0325 52.5035 53.3623 51.6643 53.8109C50.8251 54.2594 50.7751 56.0279 54.5446 56.4742C58.3133 56.9205 60.061 55.2776 59.7714 54.6823C59.4817 54.0877 58.3417 54.0325 58.3417 54.0325Z" fill="url(#paint13_linear_312_4075)"/>
<path id="Vector_52" d="M59.6616 52.0763C59.6616 52.0763 54.3893 43.4834 52.7849 42.5295C51.1805 41.5757 48.5167 39.3163 49.1028 41.9849C49.6888 44.6536 54.5983 49.8275 56.2983 51.0514C57.9982 52.2752 60.9726 55.6451 59.7893 52.2352" fill="url(#paint14_linear_312_4075)"/>
<path id="Vector_53" d="M72.393 56.7664C72.393 56.7664 77.8729 56.2702 78.9189 56.7316C79.9648 57.193 78.8741 58.2928 77.3152 58.7958C75.7556 59.2989 70.2735 62.1801 63.9731 58.1801L72.3938 56.7664H72.393Z" fill="url(#paint15_linear_312_4075)"/>
<path id="Vector_54" d="M61.0055 51.3843C61.0055 51.3843 56.0251 39.8482 54.9343 38.6099C53.8443 37.3717 52.5162 38.035 52.5699 39.7627C52.6237 41.4911 55.289 46.3783 56.3215 47.2596C57.354 48.1408 57.8527 49.3541 61.0055 51.3843Z" fill="url(#paint16_linear_312_4075)"/>
<path id="Vector_55" d="M59.4416 51.1605C59.4416 51.1605 60.1315 44.5138 58.5189 41.0086C56.7435 37.1493 55.0421 37.3626 55.1742 38.905C55.3064 40.4466 58.5637 47.2838 59.4416 51.1612V51.1605Z" fill="url(#paint17_linear_312_4075)"/>
<path id="Vector_56" d="M60.7546 52.9376C60.7546 52.9376 61.4332 48.6403 62.6225 45.5557C63.8118 42.471 65.526 39.3182 64.4688 38.8379C63.4117 38.3576 60.6792 41.502 59.8266 44.6222C58.974 47.7425 59.0673 52.3725 59.575 52.9081C60.0827 53.4436 60.3134 53.6736 60.7546 52.9383V52.9376Z" fill="url(#paint18_linear_312_4075)"/>
<path id="Vector_57" d="M67.595 50.1151C67.595 50.1151 70.9471 46.5365 71.7302 46.9102C72.5134 47.2838 71.3122 49.3148 69.9362 50.9615C68.5603 52.6075 62.9699 56.491 61.7881 56.0833C60.6055 55.6755 67.595 50.1159 67.595 50.1159V50.1151Z" fill="url(#paint19_linear_312_4075)"/>
<path id="Vector_58" d="M69.7576 54.3469C69.7576 54.3469 73.8511 53.2811 75.8908 53.6404C77.9304 53.9997 77.749 55.3673 76.7822 55.7538C75.8161 56.1404 69.2126 57.9875 67.7598 57.2402C66.307 56.4921 68.307 54.6759 69.7576 54.3477V54.3469Z" fill="url(#paint20_linear_312_4075)"/>
<path id="Vector_59" d="M61.9028 56.2796C61.9028 56.2796 68.2972 56.3469 71.5306 55.763C74.764 55.1798 77.0284 56.2962 76.0631 57.2115C75.0978 58.1268 70.784 60.0103 67.408 59.2622C64.032 58.5141 60.3185 57.1321 61.9035 56.2796H61.9028Z" fill="url(#paint21_linear_312_4075)"/>
<path id="Vector_60" d="M75.0748 58.5979C75.0748 58.5979 80.2844 59.0041 80.6353 59.3801C80.9862 59.756 78.8846 61.4844 76.4194 61.5994C73.9542 61.7144 67.4082 60.0495 64.8818 58.5949C62.3554 57.1403 75.0756 58.5979 75.0756 58.5979H75.0748Z" fill="url(#paint22_linear_312_4075)"/>
<path id="Vector_61" d="M61.3094 53.8977C61.3094 53.8977 59.4393 52.5611 58.9465 49.5854C58.4538 46.6089 57.4384 46.7594 57.3108 47.9243C57.1831 49.0892 59.2653 53.5301 60.4427 54.2843C61.62 55.0376 61.3094 53.8977 61.3094 53.8977Z" fill="url(#paint23_linear_312_4075)"/>
<path id="Vector_62" d="M61.0785 56.0709C61.0785 56.0709 64.126 48.0203 65.1242 45.7662C66.1223 43.5113 64.9024 42.9568 63.4011 44.9833C61.9004 47.0097 59.1486 52.8349 59.3755 54.0747C59.6032 55.3137 59.6592 57.5232 61.0785 56.0716V56.0709Z" fill="url(#paint24_linear_312_4075)"/>
<path id="Vector_63" d="M60.3659 56.7606C60.3659 56.7606 59.6805 53.1048 58.4076 52.0897C57.1347 51.0746 57.9179 54.6653 58.6502 55.3483C59.3826 56.0306 59.6738 57.0571 60.3651 56.7613L60.3659 56.7606Z" fill="white"/>
<path id="Vector_64" d="M61.2549 55.9242C61.2549 55.9242 64.3255 49.6111 65.8568 48.2949C67.388 46.9788 69.1178 45.7988 69.6748 46.4886C70.2317 47.1785 67.0095 51.4364 66.5563 51.9734C66.1031 52.5097 62.8876 55.6814 61.2549 55.9242Z" fill="url(#paint25_linear_312_4075)"/>
<path id="Vector_65" d="M60.8247 56.2163C60.8247 56.2163 65.8813 54.4939 69.6119 51.1649C71.5918 49.3987 73.1985 47.6408 73.6233 48.5326C74.0473 49.4244 72.6161 52.2685 70.8833 53.9417C69.9822 54.8116 64.3202 59.0718 60.8247 56.2163Z" fill="url(#paint26_linear_312_4075)"/>
<path id="Vector_66" d="M59.6909 56.7062C59.6909 56.7062 62.6399 54.9597 63.9218 55.9634C65.2036 56.9672 62.1494 58.4868 61.3177 57.9331C60.486 57.3794 60.1814 56.822 59.6909 56.7062Z" fill="white"/>
<path id="Vector_67" d="M62.2305 57.5697C62.2305 57.5697 65.8506 56.8141 67.1325 57.8178C68.4144 58.8216 63.7587 59.1242 62.927 58.5705C62.0953 58.0168 62.721 57.6855 62.2305 57.5697Z" fill="white"/>
<path id="Vector_68" d="M45.4126 111.891C45.4126 111.891 47.0603 109.78 47.123 108.023C47.1857 106.266 46.522 105.576 47.6889 105.326C48.8558 105.075 49.0462 105.439 49.0462 105.439C49.0462 105.439 47.983 103.879 48.7587 103.193C49.5344 102.509 49.7487 103.063 49.7487 103.063C49.7487 103.063 50.0414 101.227 50.9947 100.811C51.9481 100.394 53.0837 101.022 53.2576 101.631C53.4316 102.239 53.7444 103.559 54.1893 102.917C54.6343 102.276 54.0311 100.558 54.2998 100.037C54.5686 99.5156 54.8269 99.2872 55.4264 98.7229C56.0259 98.1586 57.5855 94.99 58.2761 95.142C58.9667 95.2941 59.7998 96.9332 59.9962 97.3447C60.1925 97.7562 62.436 96.9272 64.242 97.1753C66.0479 97.4234 67.4493 98.26 68.9887 98.3001C70.5282 98.3409 73.6869 99.0429 72.1094 99.8333C70.5326 100.624 68.4109 100.902 68.4109 100.902C68.4109 100.902 68.9962 102.477 66.681 103.121L64.3659 103.766C64.3659 103.766 64.5496 105.199 62.4562 105.329C60.3628 105.458 59.2115 105.075 59.2115 105.075C59.2115 105.075 61.396 105.662 62.6525 106.857C63.9083 108.053 65.4828 107.991 64.4241 108.714C63.3655 109.436 61.9769 108.696 61.6379 109.42C61.299 110.145 60.5487 110.584 59.5393 110.036C58.5299 109.488 57.9095 109.133 57.9095 109.133C57.9095 109.133 58.6748 110.988 57.1069 110.727C55.5391 110.465 54.4163 109.932 54.4163 109.932C54.4163 109.932 55.961 111.138 55.2741 111.763C54.5873 112.388 53.5249 112.332 52.1146 112.178C50.7043 112.023 45.9964 112.702 45.1558 113.627L45.4133 111.892L45.4126 111.891Z" fill="#008456"/>
<path id="Vector_69" d="M45.7632 112.555C45.7632 112.555 51.2087 107.73 53.862 106.36C56.5154 104.991 58.8731 102.059 60.5566 101.351C62.2401 100.644 65.2316 99.6685 66.9294 99.4453" stroke="#49AC76" stroke-width="3.82" stroke-linecap="round" stroke-linejoin="round"/>
<path id="Vector_70" d="M57.3496 103.806C57.3496 103.806 59.9066 104.14 62.3218 103.152" stroke="#49AC76" stroke-width="3.82" stroke-linecap="round" stroke-linejoin="round"/>
<path id="Vector_71" d="M55.6167 105.236C55.6167 105.236 56.3409 102.88 56.7418 101.516C57.1427 100.153 57.4421 99.8697 57.5354 98.3516" stroke="#49AC76" stroke-width="3.82" stroke-linecap="round" stroke-linejoin="round"/>
<path id="Vector_72" d="M50.0877 109.24C50.0347 108.937 50.6506 107.868 50.9097 107.041C51.0679 106.535 51.2344 105.978 51.3457 105.429C51.6398 103.981 51.6346 102.816 51.6346 102.816" stroke="#49AC76" stroke-width="3.82" stroke-linecap="round" stroke-linejoin="round"/>
<path id="Vector_73" d="M52.723 104.957C53.0619 104.232 51.9645 106.679 50.7617 107.507" stroke="#49AC76" stroke-width="3.82" stroke-linecap="round" stroke-linejoin="round"/>
<path id="Vector_74" d="M52.2251 107.435C52.2251 107.435 54.2185 106.899 55.5996 107.203C55.7639 107.239 55.9468 107.278 56.1416 107.319C57.5833 107.623 59.6983 108.018 60.15 107.916" stroke="#49AC76" stroke-width="3.82" stroke-linecap="round" stroke-linejoin="round"/>
<path id="Vector_75" d="M58.8396 106.449C59.7064 106.324 56.9284 106.64 55.8765 107.265" stroke="#49AC76" stroke-width="3.82" stroke-linecap="round" stroke-linejoin="round"/>
<path id="Vector_76" d="M46.5922 86.1757C46.5922 86.1757 45.5403 84.6228 45.5783 83.3928C45.6164 82.1629 46.1121 81.7128 45.3088 81.4821C44.5055 81.2514 44.3562 81.4965 44.3562 81.4965C44.3562 81.4965 45.1707 80.4579 44.6615 79.942C44.1524 79.4269 43.9762 79.8036 43.9762 79.8036C43.9762 79.8036 43.8575 78.5079 43.2109 78.1713C42.5644 77.8347 41.7424 78.2189 41.5931 78.6357C41.4431 79.0525 41.1638 79.9587 40.8824 79.4897C40.6017 79.0207 41.1026 77.8498 40.9391 77.4731C40.7756 77.0964 40.6054 76.9247 40.2134 76.5018C39.8215 76.079 38.8793 73.7924 38.3903 73.865C37.9005 73.9383 37.2428 75.0427 37.086 75.3211C36.9293 75.5994 35.4018 74.9126 34.1296 74.9996C32.8567 75.0866 31.8391 75.6032 30.7625 75.5578C29.686 75.5125 27.4477 75.8521 28.5116 76.4792C29.5762 77.1062 31.0447 77.4027 31.0447 77.4027C31.0447 77.4027 30.5625 78.4746 32.1489 79.0351L33.7354 79.5956C33.7354 79.5956 33.5405 80.5873 34.9964 80.7779C36.4522 80.9685 37.2742 80.7559 37.2742 80.7559C37.2742 80.7559 35.7213 81.0615 34.7888 81.8361C33.8563 82.6107 32.7596 82.4927 33.4651 83.0471C34.1707 83.6016 35.1748 83.1515 35.3779 83.6734C35.5809 84.1954 36.0841 84.538 36.8143 84.2037C37.5444 83.8694 37.9946 83.6508 37.9946 83.6508C37.9946 83.6508 37.3742 84.9094 38.4814 84.802C39.5886 84.6939 40.3971 84.3762 40.3971 84.3762C40.3971 84.3762 39.2623 85.1439 39.7132 85.6137C40.1642 86.0826 40.9078 86.0955 41.9 86.0547C42.8922 86.0138 46.1472 86.7135 46.6915 87.3988L46.5922 86.1757Z" fill="#008456"/>
<path id="Vector_77" d="M46.3165 86.6233C46.3165 86.6233 42.7389 82.9932 40.9501 81.9108C39.1605 80.8284 37.651 78.6673 36.5087 78.0932C35.3664 77.519 33.3223 76.6945 32.1479 76.457" stroke="#49AC76" stroke-width="2.67" stroke-linecap="round" stroke-linejoin="round"/>
<path id="Vector_78" d="M38.6336 79.9561C38.6336 79.9561 36.8321 80.0673 35.1919 79.2617" stroke="#49AC76" stroke-width="2.67" stroke-linecap="round" stroke-linejoin="round"/>
<path id="Vector_79" d="M39.7775 81.0399C39.7775 81.0399 39.3818 79.3607 39.1653 78.3887C38.9488 77.4167 38.7532 77.2057 38.7584 76.1406" stroke="#49AC76" stroke-width="2.67" stroke-linecap="round" stroke-linejoin="round"/>
<path id="Vector_80" d="M43.4513 84.0987C43.5021 83.89 43.1221 83.1139 42.9795 82.5239C42.8921 82.1631 42.8025 81.7667 42.7503 81.3772C42.6122 80.3522 42.6704 79.5391 42.6704 79.5391" stroke="#49AC76" stroke-width="2.67" stroke-linecap="round" stroke-linejoin="round"/>
<path id="Vector_81" d="M41.8104 80.9821C41.6073 80.4602 42.2598 82.2211 43.0609 82.8573" stroke="#49AC76" stroke-width="2.67" stroke-linecap="round" stroke-linejoin="round"/>
<path id="Vector_82" d="M42.0426 82.7386C42.0426 82.7386 40.6756 82.2689 39.6969 82.4149C39.5804 82.4322 39.4505 82.4512 39.3124 82.4701C38.2918 82.613 36.7964 82.7878 36.4858 82.6955" stroke="#49AC76" stroke-width="2.67" stroke-linecap="round" stroke-linejoin="round"/>
<path id="Vector_83" d="M37.4705 81.7295C36.871 81.6016 38.7964 81.9549 39.5019 82.4413" stroke="#49AC76" stroke-width="2.67" stroke-linecap="round" stroke-linejoin="round"/>
<path id="Vector_84" d="M44.6302 84.9779C44.6302 84.9779 42.0456 84.5709 41.1587 84.0142C40.2725 83.4575 38.4941 83.7018 38.4941 83.7018" stroke="#49AC76" stroke-width="2.67" stroke-linecap="round" stroke-linejoin="round"/>
<path id="Vector_85" d="M40.2318 117.737C40.2318 117.737 39.916 115.881 40.458 114.78C41 113.678 41.6354 113.48 41.0008 112.93C40.3662 112.38 40.1295 112.539 40.1295 112.539C40.1295 112.539 41.2979 111.94 41.0478 111.256C40.797 110.573 40.4819 110.84 40.4819 110.84C40.4819 110.84 40.9082 109.613 40.4595 109.033C40.0108 108.454 39.106 108.455 38.7976 108.77C38.4893 109.085 37.8622 109.79 37.8002 109.245C37.7382 108.7 38.6767 107.848 38.6834 107.436C38.6901 107.025 38.6065 106.797 38.4251 106.247C38.2429 105.697 38.3303 103.22 37.8555 103.08C37.3806 102.939 36.3272 103.664 36.0704 103.85C35.8136 104.036 34.7086 102.766 33.5164 102.307C32.3241 101.848 31.1863 101.887 30.2269 101.39C29.2668 100.893 27.0936 100.254 27.8021 101.274C28.5106 102.294 29.723 103.185 29.723 103.185C29.723 103.185 28.8435 103.955 30.0537 105.135L31.2639 106.316C31.2639 106.316 30.6779 107.135 31.9217 107.924C33.1655 108.713 34.0001 108.868 34.0001 108.868C34.0001 108.868 32.4629 108.489 31.2968 108.798C30.1299 109.107 29.1825 108.536 29.5946 109.338C30.0067 110.141 31.1057 110.157 31.0743 110.717C31.0429 111.278 31.3595 111.802 32.1613 111.807C32.9624 111.812 33.4619 111.805 33.4619 111.805C33.4619 111.805 32.3793 112.686 33.429 113.057C34.4794 113.427 35.3455 113.48 35.3455 113.48C35.3455 113.48 33.9979 113.698 34.2137 114.315C34.4302 114.932 35.1006 115.258 36.0189 115.641C36.9372 116.023 39.6062 118.037 39.8182 118.89L40.2326 117.737L40.2318 117.737Z" fill="#008456"/>
<path id="Vector_86" d="M39.7969 118.026C39.7969 118.026 38.0432 113.214 36.8636 111.474C35.6841 109.732 35.204 107.13 34.4022 106.125C33.6004 105.12 32.0841 103.506 31.1143 102.793" stroke="#49AC76" stroke-width="2.67" stroke-linecap="round" stroke-linejoin="round"/>
<path id="Vector_87" d="M35.5644 108.72C35.5644 108.72 33.8816 108.059 32.7236 106.633" stroke="#49AC76" stroke-width="2.67" stroke-linecap="round" stroke-linejoin="round"/>
<path id="Vector_88" d="M36.1582 110.183C36.1582 110.183 36.4904 108.49 36.695 107.516C36.8996 106.541 36.8085 106.266 37.2519 105.301" stroke="#49AC76" stroke-width="2.67" stroke-linecap="round" stroke-linejoin="round"/>
<path id="Vector_89" d="M58.5454 18.9534C58.5454 18.9534 65.4273 3.74405 66.6794 5.24932C67.9314 6.7546 66.0343 14.2643 64.4882 16.3959C62.9413 18.5275 59.1979 22.5501 58.5454 18.9541V18.9534Z" fill="#F4F3E6"/>
<path id="Vector_90" d="M43.1953 14.871C43.1953 14.871 48.5356 -0.961626 49.9309 0.408248C51.3255 1.77812 50.1825 9.44367 48.8551 11.7212C47.5277 13.9996 44.2017 18.3823 43.1961 14.871H43.1953Z" fill="#F4F3E6"/>
<path id="Vector_91" d="M45.2012 15.8965C45.2012 15.8965 45.5476 -0.830976 47.2871 0.0449571C49.0266 0.92089 50.2331 8.5766 49.65 11.1552C49.0669 13.7339 47.211 18.9327 45.2012 15.8965Z" fill="white"/>
<path id="Vector_92" d="M45.7402 14.0295C45.7402 14.0295 53.5054 -0.73657 54.6663 0.840562C55.828 2.41845 53.4919 9.80034 51.8226 11.8351C50.1532 13.8691 46.18 17.6588 45.7402 14.0295Z" fill="#F4F3E6"/>
<path id="Vector_93" d="M47.5591 15.3679C47.5591 15.3679 50.5349 -1.08947 52.1139 0.0572596C53.693 1.20323 53.6788 8.95577 52.6978 11.4073C51.716 13.8589 49.0649 18.6909 47.5591 15.3687V15.3679Z" fill="white"/>
<path id="Vector_94" d="M38.8081 17.4604C38.8081 17.4604 39.1418 0.732924 40.8821 1.60734C42.6224 2.48252 43.8348 10.1367 43.254 12.7161C42.6731 15.2955 40.8209 20.4959 38.8081 17.4604Z" fill="#F4F3E6"/>
<path id="Vector_95" d="M38.9383 10.3227C39.5638 10.0829 39.449 8.22367 38.6819 6.17009C37.9148 4.1165 36.7859 2.64618 36.1604 2.88603C35.5349 3.12588 35.6497 4.98507 36.4168 7.03866C37.1839 9.09224 38.3128 10.5626 38.9383 10.3227Z" fill="#F4F3E6"/>
<path id="Vector_96" d="M41.028 17.8178C41.028 17.8178 36.3358 1.77639 38.256 2.07441C40.1762 2.3732 43.6239 9.29367 43.8426 11.9298C44.0613 14.5659 43.8538 20.0908 41.028 17.817V17.8178Z" fill="white"/>
<path id="Vector_97" d="M40.9807 15.8755C40.9807 15.8755 43.9439 -0.584207 45.5236 0.561011C47.1034 1.70623 47.0952 9.45801 46.1157 11.9103C45.1362 14.3626 42.4888 19.1969 40.98 15.8755H40.9807Z" fill="#F4F3E6"/>
<path id="Vector_98" d="M43.1145 16.5881C43.1145 16.5881 41.0084 -0.00694758 42.8569 0.598187C44.7054 1.20332 47.0191 8.59278 46.8205 11.2304C46.6219 13.868 45.5468 19.2885 43.1145 16.5874V16.5881Z" fill="white"/>
<path id="Vector_99" d="M35.2083 20.4838C35.2083 20.4838 32.8767 3.92053 34.7335 4.49919C36.5902 5.07861 39.0039 12.4348 38.8411 15.0754C38.6784 17.7161 37.6772 23.1502 35.2083 20.4838Z" fill="#F4F3E6"/>
<path id="Vector_100" d="M43.5057 19.2299C43.5057 19.2299 41.1741 2.66663 43.0308 3.24529C44.8876 3.8247 47.3013 11.1809 47.1385 13.8215C46.9758 16.4622 45.9746 21.8963 43.5057 19.2299Z" fill="#F4F3E6"/>
<path id="Vector_101" d="M53.6361 22.8665C53.6361 22.8665 60.1783 10.3659 61.8544 6.68365C63.5305 3.0014 65.5238 3.93255 64.6682 7.9983C63.8127 12.0641 59.6684 21.7954 57.9102 22.8468C56.152 23.8982 53.3934 26.2106 53.6361 22.8665Z" fill="url(#paint27_linear_312_4075)"/>
<path id="Vector_102" d="M42.2806 11.9425C42.9439 11.8553 43.2556 10.0194 42.9768 7.84194C42.6981 5.66444 41.9344 3.96988 41.2712 4.05704C40.608 4.14419 40.2963 5.98006 40.575 8.15756C40.8538 10.3351 41.6174 12.0296 42.2806 11.9425Z" fill="url(#paint28_linear_312_4075)"/>
<path id="Vector_103" d="M51.9174 10.0753C52.5806 9.98812 52.8923 8.15225 52.6135 5.97475C52.3348 3.79725 51.5712 2.10269 50.9079 2.18985C50.2447 2.277 49.933 4.11287 50.2117 6.29037C50.4905 8.46787 51.2541 10.1624 51.9174 10.0753Z" fill="url(#paint29_linear_312_4075)"/>
<path id="Vector_104" d="M30.6368 15.5071C31.216 15.1683 30.8071 13.3521 29.7235 11.4506C28.6399 9.54899 27.292 8.28212 26.7128 8.62092C26.1336 8.95972 26.5425 10.7759 27.6261 12.6775C28.7096 14.579 30.0576 15.8459 30.6368 15.5071Z" fill="url(#paint30_linear_312_4075)"/>
<path id="Vector_105" d="M34.2037 13.4212C34.7829 13.0824 34.374 11.2662 33.2904 9.36462C32.2068 7.46305 30.8589 6.19618 30.2797 6.53498C29.7005 6.87378 30.1094 8.68996 31.193 10.5915C32.2765 12.4931 33.6245 13.76 34.2037 13.4212Z" fill="#F4F3E6"/>
<path id="Vector_106" d="M47.3416 30.5654C47.3416 30.5654 52.4079 51.7527 49.877 70.7199C47.3453 89.6871 43.0525 105.254 41.3899 111.272C39.728 117.289 37.2621 133.063 36.614 138.819C35.966 144.574 33.8442 153.148 33.8442 153.148L36.1646 157.002C36.1646 157.002 38.2976 149.546 39.8713 138.557C41.4451 127.569 43.4139 114.672 45.0421 109.571C46.6704 104.47 48.7892 93.743 50.5847 81.7084C52.3802 69.6738 53.5561 60.1248 52.7102 50.8367C51.8636 41.5494 49.3745 29.7031 49.3745 29.7031L47.3416 30.5647V30.5654Z" fill="#008456"/>
<path id="Vector_107" d="M41.2901 27.2403C41.2901 27.2403 44.0472 26.114 45.07 24.4408C46.0928 22.7676 45.8255 21.7245 47.0969 22.136C48.3683 22.5475 48.3542 23.0089 48.3542 23.0089C48.3542 23.0089 48.175 20.8947 49.3038 20.6647C50.4326 20.4348 50.3378 21.0944 50.3378 21.0944C50.3378 21.0944 51.6271 19.4741 52.7821 19.605C53.937 19.7359 54.6971 20.9839 54.5328 21.6738C54.3686 22.3629 53.9505 23.8213 54.7344 23.4476C55.5183 23.0739 55.8722 21.0649 56.4187 20.7094C56.9652 20.3538 57.3414 20.2775 58.2328 20.0649C59.1243 19.8531 62.3756 17.6497 62.9639 18.1852C63.5522 18.7215 63.4649 20.7835 63.4305 21.2933C63.3962 21.8039 66.0308 22.2585 67.6502 23.5149C69.2695 24.7713 70.1743 26.3719 71.6488 27.2758C73.1233 28.1805 75.8095 30.6381 73.8438 30.5201C71.878 30.4021 69.6629 29.4808 69.6629 29.4808C69.6629 29.4808 69.3695 31.3408 66.767 30.6661L64.1637 29.9914C64.1637 29.9914 63.5574 31.4876 61.4521 30.4369C59.3467 29.3862 58.4367 28.3666 58.4367 28.3666C58.4367 28.3666 60.2389 30.1654 60.8056 32.033C61.3722 33.9006 62.9363 34.7258 61.5118 34.8332C60.0881 34.9406 59.1422 33.4399 58.4165 33.9543C57.6908 34.4686 56.7203 34.4732 56.0394 33.3733C55.3578 32.2743 54.9494 31.5791 54.9494 31.5791C54.9494 31.5791 54.6777 33.8128 53.2965 32.6774C51.9161 31.542 51.1157 30.393 51.1157 30.393C51.1157 30.393 51.9571 32.4331 50.9478 32.6547C49.9384 32.8764 48.9357 32.2258 47.6494 31.2826C46.363 30.3393 41.4147 28.3545 40.0918 28.7804L41.2915 27.2395L41.2901 27.2403Z" fill="#008456"/>
<path id="Vector_108" d="M41.2681 28.084C41.2681 28.084 49.2034 26.4532 52.5324 26.6136C55.8614 26.7739 59.7593 25.2475 61.7825 25.5062C63.8064 25.7649 67.2489 26.4971 69.0213 27.2346" stroke="#49AC76" stroke-width="4.28" stroke-linecap="round" stroke-linejoin="round"/>
<path id="Vector_109" d="M57.3218 26.0859C57.3218 26.0859 59.625 27.8484 62.5127 28.2448" stroke="#49AC76" stroke-width="4.28" stroke-linecap="round" stroke-linejoin="round"/>
<path id="Vector_110" d="M54.856 26.5009C54.856 26.5009 56.8493 24.6181 57.9856 23.5175C59.1219 22.4162 59.5676 22.3103 60.4896 20.8867" stroke="#49AC76" stroke-width="4.28" stroke-linecap="round" stroke-linejoin="round"/>
<path id="Vector_111" d="M47.2871 27.2892C47.4013 26.9654 48.5862 26.2718 49.2902 25.6137C49.7209 25.2113 50.1868 24.7635 50.5967 24.2915C51.6747 23.0494 52.3078 21.9141 52.3078 21.9141" stroke="#49AC76" stroke-width="4.28" stroke-linecap="round" stroke-linejoin="round"/>
<path id="Vector_112" d="M52.1945 24.6055C52.9201 24.0912 50.5139 25.8536 48.8916 25.983" stroke="#49AC76" stroke-width="4.28" stroke-linecap="round" stroke-linejoin="round"/>
<path id="Vector_113" d="M50.354 26.7344C50.354 26.7344 52.5848 27.3327 53.7614 28.4053C53.9017 28.5331 54.0578 28.6738 54.225 28.8236C55.4606 29.9287 57.2994 31.5021 57.7944 31.6564" stroke="#49AC76" stroke-width="4.28" stroke-linecap="round" stroke-linejoin="round"/>
<path id="Vector_114" d="M57.325 29.4934C58.2359 29.8603 55.3623 28.6054 53.9976 28.6212" stroke="#49AC76" stroke-width="4.28" stroke-linecap="round" stroke-linejoin="round"/>
<path id="Vector_115" d="M44.9502 27.4023C44.9502 27.4023 48.7495 29.1769 50.4166 29.2291C52.0837 29.2813 54.2398 31.2003 54.2398 31.2003" stroke="#49AC76" stroke-width="4.28" stroke-linecap="round" stroke-linejoin="round"/>
<path id="Vector_116" d="M48.4984 33.2873C55.2281 32.403 60.2363 28.1923 59.6846 23.8824C59.1329 19.5726 53.2302 16.7957 46.5005 17.68C39.7709 18.5644 34.7627 22.7751 35.3144 27.0849C35.8661 31.3948 41.7688 34.1717 48.4984 33.2873Z" fill="#E8E6D6"/>
<path id="Vector_117" d="M50.0254 17.7664C50.0254 17.7664 52.1539 1.17507 53.7896 2.23632C55.4254 3.29758 55.8084 11.0403 54.9543 13.5402C54.1002 16.0402 51.7 21.0053 50.0254 17.7664Z" fill="#F4F3E6"/>
<path id="Vector_118" d="M54.6289 17.2351C54.6289 17.2351 56.7574 0.643819 58.3931 1.70507C60.0289 2.76633 60.4119 10.509 59.5578 13.009C58.7037 15.509 56.3035 20.4741 54.6289 17.2351Z" fill="#F4F3E6"/>
<path id="Vector_119" d="M64.6309 24.2816C64.6309 24.2816 71.0216 22.3376 74.1849 24.2566C77.3481 26.1757 67.3417 27.8284 58.0461 27.6235C48.7505 27.4185 64.6309 24.2816 64.6309 24.2816Z" fill="url(#paint31_linear_312_4075)"/>
<path id="Vector_120" d="M44.6682 18.1061C44.6682 18.1061 43.4856 1.41795 45.2976 2.12747C47.1095 2.83699 49.0103 10.3467 48.6654 12.9685C48.3205 15.591 46.9468 20.9411 44.6682 18.1061Z" fill="white"/>
<path id="Vector_121" d="M36.3313 21.5123C36.3313 21.5123 35.1487 4.8242 36.9607 5.53372C38.7726 6.24324 40.6734 13.753 40.3285 16.3747C39.9835 18.9972 38.6098 24.3474 36.3313 21.5123Z" fill="white"/>
<path id="Vector_122" d="M48.0725 20.4381C48.0725 20.4381 46.8899 3.74998 48.7019 4.4595C50.5138 5.16902 52.4146 12.6787 52.0697 15.3005C51.7247 17.923 50.351 23.2731 48.0725 20.4381Z" fill="white"/>
<path id="Vector_123" d="M33.6988 24.5408C33.6988 24.5408 20.7883 14.1082 22.5315 13.2399C24.2748 12.3715 31.0119 16.0462 32.6805 18.0809C34.3491 20.1157 37.3003 24.7654 33.6988 24.5408Z" fill="white"/>
<path id="Vector_124" d="M33.1947 23.6746C33.1947 23.6746 27.6028 7.932 29.5364 8.11884C31.4701 8.30567 35.3045 15.0144 35.6718 17.6338C36.0399 20.2533 36.1451 25.7805 33.1947 23.6753V23.6746Z" fill="white"/>
<path id="Vector_125" d="M34.4989 23.8222C34.4989 23.8222 22.8948 11.9184 24.7269 11.2641C26.559 10.6098 32.8206 15.0651 34.2413 17.2852C35.6613 19.5053 38.0503 24.4757 34.4996 23.8222H34.4989Z" fill="#F4F3E6"/>
<path id="Vector_126" d="M31.4703 26.6342C31.4703 26.6342 17.5318 17.6615 19.1735 16.6094C20.8145 15.5564 27.9017 18.48 29.7756 20.3219C31.6503 22.1637 35.0756 26.467 31.4703 26.6342Z" fill="#F4F3E6"/>
<path id="Vector_127" d="M37.4561 20.4752C37.4561 20.4752 30.2741 5.40958 32.2159 5.39067C34.1585 5.37176 38.6619 11.6394 39.2972 14.2052C39.9325 16.771 40.6067 22.2573 37.4554 20.4752H37.4561Z" fill="white"/>
<path id="Vector_128" d="M47.252 31.8094C47.252 31.8094 43.6961 6.06767 45.552 6.64633C47.4088 7.22575 49.8225 14.5819 49.6597 17.2226C49.497 19.8632 49.7202 34.4757 47.2513 31.8094H47.252Z" fill="#F4F3E6"/>
<path id="Vector_129" d="M39.6888 21.5541C39.6888 21.5541 37.3572 4.99084 39.2139 5.5695C41.0707 6.14892 43.4844 13.5051 43.3216 16.1458C43.1589 18.7864 42.1577 24.2205 39.6888 21.5541Z" fill="#F4F3E6"/>
<path id="Vector_130" d="M51.4866 21.5541C51.4866 21.5541 49.1551 4.99084 51.0118 5.5695C52.8685 6.14892 55.2822 13.5051 55.1195 16.1458C54.9567 18.7864 53.9555 24.2205 51.4866 21.5541Z" fill="#F4F3E6"/>
<path id="Vector_131" d="M53.3569 18.0118C53.3569 18.0118 59.4266 2.45152 60.7562 3.88644C62.0859 5.32137 60.5883 12.9234 59.1563 15.1359C57.7244 17.3477 54.1983 21.5677 53.3569 18.0118Z" fill="url(#paint32_linear_312_4075)"/>
<path id="Vector_132" d="M36.167 31.6661C35.9259 31.7636 24.7892 36.2719 23.1027 37.8702C21.4162 39.4693 21.738 41.4874 28.708 38.8452C35.678 36.2038 40.5203 31.4414 40.5203 31.4414L36.167 31.6653V31.6661Z" fill="url(#paint33_linear_312_4075)"/>
<path id="Vector_133" d="M42.5411 26.9301C42.3708 27.1283 34.5184 36.312 33.7434 38.517C32.9692 40.7212 34.169 42.3649 39.1658 36.7772C44.1626 31.1895 46.3075 24.707 46.3075 24.707L42.5411 26.9301Z" fill="url(#paint34_linear_312_4075)"/>
<path id="Vector_134" d="M42.9091 28.9023C42.8285 29.0679 39.118 36.7441 39.1785 38.5436C39.2389 40.3439 40.806 41.6177 43.251 36.9392C45.6961 32.2608 45.4049 26.9727 45.4049 26.9727L42.9091 28.9023Z" fill="url(#paint35_linear_312_4075)"/>
<path id="Vector_135" d="M44.3943 27.3215C44.3793 27.5423 43.6917 37.7487 44.4025 39.6647C45.1132 41.5807 47.0453 42.1541 47.6359 35.8387C48.2264 29.5234 46.0315 23.9531 46.0315 23.9531L44.3943 27.3215Z" fill="url(#paint36_linear_312_4075)"/>
<path id="Vector_136" d="M45.9958 28.5717C46.1138 28.7578 51.5698 37.3659 53.2682 38.4748C54.9667 39.5829 56.8548 38.8764 53.6116 33.4499C50.3685 28.0241 45.3276 24.8789 45.3276 24.8789L45.9958 28.5717Z" fill="url(#paint37_linear_312_4075)"/>
<path id="Vector_137" d="M33.0147 30.7969C32.7564 30.8211 20.8141 31.933 18.7483 32.9791C16.6826 34.0253 16.4243 36.0532 23.8482 35.5298C31.2722 35.0063 37.2515 31.837 37.2515 31.837L33.0154 30.7969H33.0147Z" fill="url(#paint38_linear_312_4075)"/>
<path id="Vector_138" d="M55.4412 27.2247C55.4412 27.2247 60.4508 26.1127 64.6465 27.2247C68.8423 28.3366 63.8716 30.6437 58.7075 30.798C53.5434 30.953 49.7195 31.0915 51.2477 29.2889C52.776 27.4871 55.4412 27.2239 55.4412 27.2239V27.2247Z" fill="url(#paint39_linear_312_4075)"/>
<path id="Vector_139" d="M53.4787 30.0122C53.4787 30.0122 62.6646 32.9819 63.6232 34.2239C64.5818 35.4667 63.4843 38.1482 57.5453 36.2511C51.6063 34.354 50.0795 30.705 50.9075 30.0114C51.7355 29.3178 53.4787 30.0114 53.4787 30.0114V30.0122Z" fill="url(#paint40_linear_312_4075)"/>
<path id="Vector_140" d="M52.7979 26.1855C52.7979 26.1855 66.3893 16.908 69.4234 16.5714C72.4575 16.2348 77.9448 14.6652 75.2982 18.2627C72.6516 21.8603 61.871 26.2656 58.5144 26.9404C55.1578 27.6159 48.4707 30.6377 52.503 26.3368" fill="url(#paint41_linear_312_4075)"/>
<path id="Vector_141" d="M30.626 24.5441C30.626 24.5441 22.7504 20.0721 20.8779 20.0509C19.0055 20.0297 19.9096 22.4185 21.9105 24.2324C23.9113 26.0471 30.2102 34.0916 42.2957 32.3911L30.6252 24.5441H30.626Z" fill="url(#paint42_linear_312_4075)"/>
<path id="Vector_142" d="M51.2463 24.2335C51.2463 24.2335 66.3518 10.3502 68.8051 9.23899C71.2583 8.12705 72.8075 10.0241 71.5808 12.5748C70.3542 15.1254 63.1244 20.6299 60.9936 21.2456C58.8637 21.8621 57.313 23.3401 51.2456 24.2335H51.2463Z" fill="url(#paint43_linear_312_4075)"/>
<path id="Vector_143" d="M53.7351 24.9663C53.7351 24.9663 57.1089 14.5459 61.8474 10.3939C67.0637 5.82361 69.4707 7.30165 68.2501 9.52023C67.0294 11.7388 57.6203 19.7591 53.7344 24.9663H53.7351Z" fill="url(#paint44_linear_312_4075)"/>
<path id="Vector_144" d="M50.5923 26.7294C50.5923 26.7294 52.4251 19.8339 52.6894 14.4051C52.9537 8.97629 52.4781 3.08984 54.3797 3.08984C56.2812 3.08984 58.288 9.65858 57.4959 14.9096C56.7038 20.1607 53.495 27.0305 52.3796 27.4874C51.2642 27.9443 50.7662 28.1311 50.593 26.7294H50.5923Z" fill="url(#paint45_linear_312_4075)"/>
<path id="Vector_145" d="M42.2215 17.8478C42.2215 17.8478 39.5749 10.2072 38.1549 10.2344C36.735 10.2609 37.1866 14.1202 38.1549 17.521C39.1233 20.9219 44.9189 30.5413 46.9593 30.7349C48.9997 30.9286 42.2215 17.8478 42.2215 17.8478Z" fill="url(#paint46_linear_312_4075)"/>
<path id="Vector_146" d="M36.1783 22.7097C36.1783 22.7097 30.7559 18.3277 27.4635 17.4775C24.1711 16.6273 23.5373 18.7982 24.7281 20.035C25.9189 21.2717 34.5807 28.5311 37.2519 28.4002C39.9232 28.2693 38.1329 24.1877 36.1791 22.7097H36.1783Z" fill="url(#paint47_linear_312_4075)"/>
<path id="Vector_147" d="M46.6557 30.9537C46.6557 30.9537 37.0368 26.7026 32.5827 23.6285C28.1287 20.5544 23.9971 20.6853 24.8363 22.7125C25.6754 24.7397 30.8843 30.496 36.4358 31.673C41.9874 32.85 48.4632 33.3084 46.6557 30.9537Z" fill="url(#paint48_linear_312_4075)"/>
<path id="Vector_148" d="M25.3977 25.4588C25.3977 25.4588 17.3287 22.5208 16.5537 22.8453C15.7788 23.1698 17.7803 27.1872 21.3953 29.0374C25.0102 30.8876 35.9154 32.8497 40.6621 32.3913C45.4096 31.9337 25.3977 25.458 25.3977 25.458V25.4588Z" fill="url(#paint49_linear_312_4075)"/>
<path id="Vector_149" d="M49.1236 27.7902C49.1236 27.7902 52.8095 27.0617 55.521 22.9415C58.2326 18.8213 59.6526 19.7366 59.0717 21.5679C58.4909 23.3991 52.4287 28.6313 50.1666 28.9588C47.9045 29.2856 49.1244 27.7902 49.1244 27.7902H49.1236Z" fill="url(#paint50_linear_312_4075)"/>
<path id="Vector_150" d="M48.0283 31.2007C48.0283 31.2007 48.8033 17.0731 48.8033 13.0179C48.8033 8.96277 50.9982 8.96277 51.9016 13.0179C52.8057 17.0731 53.0632 27.669 51.9016 29.3694C50.7399 31.0699 49.19 34.3399 48.0283 31.2007Z" fill="url(#paint51_linear_312_4075)"/>
<path id="Vector_151" d="M48.6406 32.7178C48.6406 32.7178 52.0898 27.7103 54.6692 27.0567C57.2486 26.4024 53.6942 31.2465 52.1451 31.77C50.5959 32.2934 49.4798 33.6323 48.6406 32.7178Z" fill="white"/>
<path id="Vector_152" d="M47.8613 30.8635C47.8613 30.8635 47.4491 19.322 46.0284 16.3085C44.6084 13.2956 42.801 10.3524 41.5094 11.006C40.2186 11.6603 42.2194 20.2282 42.5419 21.3402C42.8644 22.4521 45.576 29.3892 47.8605 30.8635H47.8613Z" fill="url(#paint52_linear_312_4075)"/>
<path id="Vector_153" d="M48.3123 31.5922C48.3123 31.5922 41.8828 25.5719 38.5038 18.0493C36.7105 14.0569 35.4697 10.3316 34.2431 11.3777C33.0164 12.4238 33.2747 17.6567 34.7597 21.3405C35.5316 23.2565 41.1855 33.4886 48.3123 31.5922Z" fill="url(#paint53_linear_312_4075)"/>
<path id="Vector_154" d="M49.6844 33.0975C49.6844 33.0975 46.4271 28.4758 43.8417 29.1059C41.257 29.736 44.8227 34.09 46.4345 33.8267C48.0471 33.5635 48.8728 32.9364 49.6836 33.0975H49.6844Z" fill="white"/>
<path id="Vector_155" d="M45.3112 32.6565C45.3112 32.6565 40.392 29.0612 37.8074 29.6913C35.2227 30.3214 41.9927 33.9431 43.6045 33.6806C45.2171 33.4174 44.4997 32.4953 45.3112 32.6565Z" fill="white"/>
<path id="Vector_156" d="M46.4644 53.0819C46.4644 53.0819 48.3846 43.9557 49.2468 44.6206C50.1091 45.2855 49.9777 49.6069 49.3917 50.9571C48.8056 52.3081 47.2512 54.9586 46.4644 53.0819Z" fill="#F4F3E6"/>
<path id="Vector_157" d="M37.6196 52.7508C37.6196 52.7508 38.626 43.4756 39.5495 44.049C40.473 44.6223 40.7709 48.9354 40.3222 50.3393C39.8728 51.7425 38.5887 54.5382 37.6204 52.7508H37.6196Z" fill="#F4F3E6"/>
<path id="Vector_158" d="M38.8351 53.0623C38.8351 53.0623 37.0157 43.9149 38.0676 44.1774C39.1196 44.4399 40.6948 48.458 40.6874 49.9338C40.6799 51.4088 40.2932 54.4677 38.8351 53.0623Z" fill="white"/>
<path id="Vector_159" d="M38.9048 51.9789C38.9048 51.9789 41.3588 42.9851 42.18 43.7007C43.0013 44.4163 42.6168 48.7218 41.9523 50.0349C41.2879 51.3481 39.5797 53.8995 38.9048 51.9789Z" fill="#F4F3E6"/>
<path id="Vector_160" d="M40.0543 52.4833C40.0543 52.4833 39.6989 43.159 40.6956 43.5886C41.6922 44.0175 42.6158 48.2391 42.3754 49.6944C42.1357 51.1498 41.2727 54.1066 40.0543 52.4833Z" fill="white"/>
<path id="Vector_161" d="M35.5426 54.7022C35.5426 54.7022 33.7165 45.5563 34.7684 45.818C35.8204 46.0797 37.3994 50.0963 37.3926 51.5721C37.3859 53.0471 37.0022 56.1061 35.5426 54.7022Z" fill="#F4F3E6"/>
<path id="Vector_162" d="M34.1198 48.5739C34.7835 49.5973 35.0695 50.595 34.7574 50.8023C34.4461 51.0096 33.6547 50.3484 32.991 49.325C32.3273 48.3016 32.0413 47.3039 32.3534 47.0966C32.6647 46.8893 33.4561 47.5505 34.1198 48.5739Z" fill="#F4F3E6"/>
<path id="Vector_163" d="M36.7943 54.6226C36.7943 54.6226 32.3148 46.4691 33.3959 46.3957C34.4769 46.3216 37.184 49.6635 37.62 51.0719C38.056 52.4796 38.6055 55.5121 36.7943 54.6233V54.6226Z" fill="white"/>
<path id="Vector_164" d="M36.5351 53.5699C36.5351 53.5699 36.1722 44.2463 37.1696 44.6745C38.1671 45.1026 39.0928 49.3234 38.8539 50.7788C38.615 52.2341 37.7542 55.1917 36.5343 53.5699H36.5351Z" fill="#F4F3E6"/>
<path id="Vector_165" d="M37.7824 53.6951C37.7824 53.6951 34.6445 44.9222 35.7233 45.0243C36.8021 45.1257 38.9485 48.8624 39.1568 50.323C39.3651 51.7829 39.4308 54.8661 37.7831 53.6951H37.7824Z" fill="white"/>
<path id="Vector_166" d="M33.9464 56.7904C33.9464 56.7904 30.6891 48.0621 31.7694 48.1491C32.8497 48.2361 35.0461 51.9418 35.2745 53.3994C35.503 54.8562 35.6105 57.9379 33.9464 56.7904Z" fill="#F4F3E6"/>
<path id="Vector_167" d="M38.3116 55.0873C38.3116 55.0873 35.0543 46.359 36.1346 46.446C37.2149 46.5322 39.4113 50.2386 39.6398 51.6963C39.8682 53.1531 39.9757 56.2348 38.3116 55.0873Z" fill="#F4F3E6"/>
<path id="Vector_168" d="M44.2622 55.8154C44.2622 55.8154 46.3228 48.2051 46.7931 45.9948C47.2634 43.7838 48.4602 44.0456 48.4826 46.364C48.505 48.6824 47.4172 54.4894 46.5863 55.2784C45.7554 56.0673 44.5317 57.6656 44.2622 55.8154Z" fill="url(#paint54_linear_312_4075)"/>
<path id="Vector_169" d="M36.6573 48.9533C37.0702 50.1039 37.121 51.1417 36.7708 51.271C36.4207 51.4004 35.801 50.5721 35.3882 49.4208C34.9753 48.2703 34.9245 47.2325 35.2747 47.1031C35.6248 46.9738 36.2445 47.8021 36.6573 48.9533Z" fill="url(#paint55_linear_312_4075)"/>
<path id="Vector_170" d="M41.6783 46.7463C42.0912 47.8968 42.142 48.9346 41.7918 49.064C41.4417 49.1933 40.822 48.3651 40.4092 47.2138C39.9963 46.0633 39.9455 45.0255 40.2957 44.8961C40.6458 44.7668 41.2655 45.5951 41.6783 46.7463Z" fill="url(#paint56_linear_312_4075)"/>
<path id="Vector_171" d="M30.8586 54.6489C31.1333 54.393 30.693 53.4548 29.8751 52.5533C29.0573 51.6519 28.1716 51.1285 27.8968 51.3844C27.6221 51.6402 28.0624 52.5784 28.8803 53.4799C29.6981 54.3814 30.5839 54.9047 30.8586 54.6489Z" fill="url(#paint57_linear_312_4075)"/>
<path id="Vector_172" d="M32.5495 53.0746C32.8242 52.8188 32.3839 51.8806 31.566 50.9791C30.7482 50.0777 29.8625 49.5543 29.5878 49.8102C29.313 50.066 29.7533 51.0042 30.5712 51.9057C31.3891 52.8071 32.2748 53.3305 32.5495 53.0746Z" fill="#F4F3E6"/>
<path id="Vector_173" d="M42.3008 61.218C42.3008 61.218 47.5649 76.3615 47.0998 90.4506C46.6347 104.539 44.4248 117.875 43.6484 122.409C42.8712 126.943 43.4348 134.186 43.3818 138.452C43.3288 142.718 42.4023 149.16 42.4023 149.16L44.3852 151.809C44.3852 151.809 45.4021 146.185 45.75 138.016C46.0979 129.846 45.585 123.142 46.404 119.281C47.2237 115.421 47.9904 107.402 48.4242 98.4482C48.858 89.4952 49.0207 82.4091 47.7202 75.6679C46.4196 68.9259 43.7275 60.4336 43.7275 60.4336L42.3008 61.218Z" fill="#00794E"/>
<path id="Vector_174" d="M38.0676 59.7172C38.0676 59.7172 39.4331 58.7641 39.7892 57.7279C40.1454 56.6916 39.8743 56.156 40.6157 56.2241C41.357 56.2922 41.4048 56.5441 41.4048 56.5441C41.4048 56.5441 41.0539 55.4155 41.6407 55.1507C42.2276 54.8867 42.2552 55.2574 42.2552 55.2574C42.2552 55.2574 42.7621 54.2166 43.4071 54.1455C44.0514 54.0744 44.6151 54.6598 44.6084 55.0554C44.6017 55.451 44.5494 56.296 44.9309 55.9964C45.3131 55.6969 45.2639 54.5592 45.5192 54.2983C45.7738 54.0373 45.9694 53.9495 46.4293 53.7241C46.8892 53.4987 48.3943 51.8989 48.7788 52.1183C49.1632 52.3376 49.3633 53.4707 49.4059 53.7529C49.4484 54.035 50.9371 53.9579 51.9696 54.442C53.0021 54.9261 53.6867 55.6855 54.5976 55.9964C55.5084 56.3073 57.2658 57.3141 56.1818 57.4919C55.0978 57.6696 53.7816 57.4412 53.7816 57.4412C53.7816 57.4412 53.845 58.4896 52.3474 58.4434L50.8498 58.3973C50.8498 58.3973 50.6997 59.2868 49.4275 58.9744C48.1554 58.662 47.5379 58.2195 47.5379 58.2195C47.5379 58.2195 48.7347 58.9767 49.2678 59.923C49.8001 60.87 50.7505 61.1264 49.9882 61.3602C49.226 61.5939 48.5316 60.8935 48.1979 61.2634C47.8642 61.6325 47.3371 61.7543 46.8347 61.2399C46.3322 60.7255 46.0261 60.398 46.0261 60.398C46.0261 60.398 46.1463 61.6469 45.2587 61.1991C44.371 60.7513 43.7976 60.2248 43.7976 60.2248C43.7976 60.2248 44.5009 61.2316 43.9775 61.4767C43.4542 61.7217 42.8308 61.491 42.0178 61.1363C41.2047 60.7815 38.2729 60.311 37.604 60.7059L38.0721 59.7195L38.0676 59.7172Z" fill="#008456"/>
<path id="Vector_175" d="M38.1572 60.1801C38.1572 60.1801 42.2806 58.3147 44.1119 57.9917C45.9433 57.6687 47.8814 56.3579 49.0139 56.2489C50.1465 56.1408 52.1077 56.1151 53.1612 56.2974" stroke="#49AC76" stroke-width="2.39" stroke-linecap="round" stroke-linejoin="round"/>
<path id="Vector_176" d="M46.6548 57.1133C46.6548 57.1133 48.1196 57.7888 49.7396 57.6488" stroke="#49AC76" stroke-width="2.39" stroke-linecap="round" stroke-linejoin="round"/>
<path id="Vector_177" d="M45.3623 57.6449C45.3623 57.6449 46.2216 56.3748 46.7076 55.6351C47.1937 54.896 47.4236 54.7833 47.7551 53.8945" stroke="#49AC76" stroke-width="2.39" stroke-linecap="round" stroke-linejoin="round"/>
<path id="Vector_178" d="M41.3379 59.0048C41.361 58.8141 41.9225 58.2907 42.2271 57.8459C42.413 57.5736 42.613 57.2726 42.7795 56.9655C43.2178 56.1568 43.4253 55.4609 43.4253 55.4609" stroke="#49AC76" stroke-width="2.39" stroke-linecap="round" stroke-linejoin="round"/>
<path id="Vector_179" d="M43.6862 56.9424C44.0199 56.5732 42.9217 57.8289 42.0542 58.0989" stroke="#49AC76" stroke-width="2.39" stroke-linecap="round" stroke-linejoin="round"/>
<path id="Vector_180" d="M42.9404 58.3281C42.9404 58.3281 44.2268 58.3788 44.9958 58.8175C45.0876 58.8697 45.1891 58.9272 45.2981 58.9877C46.1029 59.437 47.293 60.0664 47.5811 60.0898" stroke="#49AC76" stroke-width="2.39" stroke-linecap="round" stroke-linejoin="round"/>
<path id="Vector_181" d="M47.0656 58.969C47.6054 59.0568 45.8905 58.7277 45.1499 58.9047" stroke="#49AC76" stroke-width="2.39" stroke-linecap="round" stroke-linejoin="round"/>
<path id="Vector_182" d="M40.0796 59.3555C40.0796 59.3555 42.3604 59.8532 43.2742 59.6762C44.188 59.4992 45.5916 60.2783 45.5916 60.2783" stroke="#49AC76" stroke-width="2.39" stroke-linecap="round" stroke-linejoin="round"/>
<path id="Vector_183" d="M42.7209 62.1173C46.2776 60.8064 48.4979 57.8972 47.68 55.6194C46.8622 53.3416 43.316 52.5577 39.7593 53.8686C36.2026 55.1795 33.9823 58.0887 34.8001 60.3665C35.618 62.6443 39.1642 63.4282 42.7209 62.1173Z" fill="#E8E6D6"/>
<path id="Vector_184" d="M41.6848 53.4825C41.6848 53.4825 40.8516 44.1899 41.8699 44.5658C42.8875 44.9417 44.0253 49.1088 43.8603 50.5748C43.6953 52.0407 42.9853 55.0392 41.6848 53.4825Z" fill="#F4F3E6"/>
<path id="Vector_185" d="M44.1271 52.6309C44.1271 52.6309 43.294 43.3383 44.3123 43.7142C45.3306 44.0902 46.4677 48.2573 46.3027 49.7232C46.1377 51.1892 45.4277 54.1876 44.1271 52.6309Z" fill="#F4F3E6"/>
<path id="Vector_186" d="M50.4162 55.2297C50.4162 55.2297 53.6616 53.384 55.6131 54.0391C57.5654 54.6941 52.3177 56.8265 47.2335 57.8598C42.1494 58.8938 50.4162 55.2297 50.4162 55.2297Z" fill="url(#paint58_linear_312_4075)"/>
<path id="Vector_187" d="M38.8096 54.3275C38.8096 54.3275 36.163 45.3896 37.2343 45.553C38.3057 45.7156 40.2415 49.5688 40.3685 51.0385C40.4954 52.5083 40.3901 55.5899 38.8096 54.3275Z" fill="white"/>
<path id="Vector_188" d="M34.6812 57.2103C34.6812 57.2103 32.0346 48.2724 33.1059 48.4358C34.1772 48.5984 36.1131 52.4516 36.24 53.9214C36.367 55.3911 36.2617 58.4727 34.6812 57.2103Z" fill="white"/>
<path id="Vector_189" d="M40.9429 55.179C40.9429 55.179 38.2963 46.2412 39.3676 46.4046C40.439 46.5672 42.3748 50.4204 42.5018 51.8901C42.6287 53.3598 42.5234 56.4415 40.9429 55.179Z" fill="white"/>
<path id="Vector_190" d="M33.6116 59.1855C33.6116 59.1855 25.3328 55.0978 26.1772 54.4102C27.0215 53.7226 31.1299 54.8928 32.2819 55.7945C33.4346 56.6961 35.599 58.864 33.6116 59.1855Z" fill="white"/>
<path id="Vector_191" d="M33.2337 58.7739C33.2337 58.7739 28.3004 50.8943 29.3754 50.7581C30.4505 50.622 33.342 53.8005 33.8571 55.1809C34.3715 56.5614 35.0927 59.5568 33.2337 58.7747V58.7739Z" fill="white"/>
<path id="Vector_192" d="M33.9618 58.6969C33.9618 58.6969 26.2168 53.6478 27.1358 53.0661C28.0541 52.4844 31.9975 54.1379 33.0368 55.1712C34.076 56.2045 35.9731 58.6159 33.9618 58.6969Z" fill="#F4F3E6"/>
<path id="Vector_193" d="M32.6497 60.5987C32.6497 60.5987 23.9864 57.4324 24.7531 56.6578C25.5199 55.8825 29.7283 56.6003 30.9691 57.3718C32.2107 58.1434 34.5915 60.0639 32.6489 60.5987H32.6497Z" fill="#F4F3E6"/>
<path id="Vector_194" d="M35.1687 56.51C35.1687 56.51 29.4514 49.1947 30.5064 48.945C31.5613 48.6954 34.7648 51.5517 35.4188 52.8701C36.0728 54.1885 37.0979 57.0917 35.1687 56.51Z" fill="white"/>
<path id="Vector_195" d="M41.8608 61.471C41.8608 61.471 36.8356 47.8986 37.9152 47.9848C38.9955 48.071 41.1919 51.7775 41.4203 53.2351C41.6488 54.692 43.5242 62.6185 41.8601 61.471H41.8608Z" fill="#F4F3E6"/>
<path id="Vector_196" d="M36.5143 56.8217C36.5143 56.8217 33.2569 48.0933 34.3372 48.1803C35.4175 48.2666 37.614 51.973 37.8424 53.4306C38.0709 54.8875 38.1784 57.9691 36.5143 56.8217Z" fill="#F4F3E6"/>
<path id="Vector_197" d="M42.9352 55.3685C42.9352 55.3685 39.6778 46.6402 40.7581 46.7272C41.8384 46.8134 44.0349 50.5199 44.2633 51.9775C44.4918 53.4344 44.5993 56.516 42.9352 55.3685Z" fill="#F4F3E6"/>
<path id="Vector_198" d="M43.5273 53.2075C43.5273 53.2075 44.9638 43.9906 45.8596 44.6078C46.7555 45.225 46.8526 49.5472 46.3389 50.9277C45.8253 52.3081 44.4128 55.0388 43.5273 53.2075Z" fill="url(#paint59_linear_312_4075)"/>
<path id="Vector_199" d="M35.811 62.7596C35.6915 62.8421 30.1713 66.6681 29.4449 67.7467C28.7185 68.8246 29.1366 69.8836 32.6126 67.5871C36.0887 65.2906 38.153 62.1016 38.153 62.1016L35.8102 62.7596H35.811Z" fill="url(#paint60_linear_312_4075)"/>
<path id="Vector_200" d="M38.7113 59.3974C38.6426 59.526 35.4704 65.4926 35.3136 66.7876C35.1568 68.0826 36.0072 68.8299 38.0558 65.1726C40.1044 61.5161 40.4941 57.7227 40.4941 57.7227L38.7113 59.3966V59.3974Z" fill="url(#paint61_linear_312_4075)"/>
<path id="Vector_201" d="M39.1479 60.4203C39.124 60.5201 38.0258 65.1554 38.2744 66.1274C38.5238 67.0994 39.5294 67.6002 40.2984 64.7523C41.0673 61.9044 40.2745 59.0625 40.2745 59.0625L39.1479 60.4203Z" fill="url(#paint62_linear_312_4075)"/>
<path id="Vector_202" d="M39.7671 59.3785C39.7858 59.5003 40.6361 65.1409 41.2535 66.0955C41.8702 67.0509 42.9908 67.125 42.5541 63.6152C42.1173 60.1054 40.2546 57.3438 40.2546 57.3438L39.7678 59.3785H39.7671Z" fill="url(#paint63_linear_312_4075)"/>
<path id="Vector_203" d="M40.788 59.8649C40.8746 59.9518 44.8777 63.9646 45.9349 64.3587C46.9921 64.7528 47.935 64.1356 45.5183 61.5819C43.1016 59.0283 39.981 57.9375 39.981 57.9375L40.788 59.8649Z" fill="url(#paint64_linear_312_4075)"/>
<path id="Vector_204" d="M33.9907 62.6719C33.8533 62.7165 27.4865 64.7936 26.4876 65.6174C25.4887 66.4419 25.5917 67.5772 29.5695 66.3776C33.5473 65.1779 36.4216 62.7157 36.4216 62.7157L33.9907 62.6719Z" fill="url(#paint65_linear_312_4075)"/>
<path id="Vector_205" d="M45.768 57.9666C45.768 57.9666 48.3609 56.7442 50.7783 56.8327C53.1957 56.9212 50.7671 58.7888 47.9749 59.5097C45.1827 60.2305 43.1184 60.7767 43.7336 59.608C44.3488 58.4386 45.768 57.9673 45.768 57.9673V57.9666Z" fill="url(#paint66_linear_312_4075)"/>
<path id="Vector_206" d="M45.0339 59.7226C45.0339 59.7226 50.3898 60.2067 51.061 60.765C51.7322 61.3232 51.4567 62.9177 47.9963 62.6174C44.5359 62.3171 43.2675 60.5184 43.6348 60.0388C44.0021 59.5592 45.0339 59.7219 45.0339 59.7219V59.7226Z" fill="url(#paint67_linear_312_4075)"/>
<path id="Vector_207" d="M44.2044 57.7268C44.2044 57.7268 50.4884 51.003 52.0995 50.4455C53.7106 49.8888 56.5087 48.3578 55.5001 50.6422C54.4915 52.9266 49.1527 56.6519 47.4065 57.4333C45.6602 58.2147 42.3835 60.6837 44.0618 57.8456" fill="url(#paint68_linear_312_4075)"/>
<path id="Vector_208" d="M31.9396 59.5636C31.9396 59.5636 27.116 58.0999 26.0947 58.3193C25.0734 58.5386 25.852 59.727 27.1586 60.4683C28.4658 61.2096 32.8594 64.8116 39.2329 62.3971L31.9389 59.5636H31.9396Z" fill="url(#paint69_linear_312_4075)"/>
<path id="Vector_209" d="M43.126 56.8555C43.126 56.8555 49.6817 47.4381 50.8829 46.5304C52.0849 45.6227 53.1555 46.4646 52.7941 48.0039C52.4328 49.5432 49.1583 53.4297 48.0728 54.028C46.9873 54.6263 46.3206 55.6218 43.126 56.8555Z" fill="url(#paint70_linear_312_4075)"/>
<path id="Vector_210" d="M44.5684 56.9462C44.5684 56.9462 45.1537 50.8585 47.2351 48.0151C49.5256 44.8843 51.0128 45.3926 50.6149 46.7512C50.217 48.1089 46.0585 53.6338 44.5684 56.9469V56.9462Z" fill="url(#paint71_linear_312_4075)"/>
<path id="Vector_211" d="M43.0692 58.2936C43.0692 58.2936 43.2394 54.3148 42.7317 51.3277C42.2241 48.3406 41.2587 45.1954 42.2935 44.9609C43.3282 44.7264 45.2089 48.0547 45.4082 51.01C45.6075 53.9661 44.6855 58.0999 44.133 58.4865C43.5806 58.8722 43.332 59.0356 43.0699 58.2943L43.0692 58.2936Z" fill="url(#paint72_linear_312_4075)"/>
<path id="Vector_212" d="M37.4474 54.4895C37.4474 54.4895 35.0897 50.6575 34.32 50.8466C33.5502 51.0365 34.2595 53.0811 35.1942 54.8125C36.1297 56.5447 40.4382 61.0658 41.5722 60.9199C42.7063 60.7739 37.4466 54.4895 37.4466 54.4895H37.4474Z" fill="url(#paint73_linear_312_4075)"/>
<path id="Vector_213" d="M34.7419 57.885C34.7419 57.885 31.2643 56.168 29.3703 56.1112C27.4762 56.0545 27.3919 57.3139 28.1884 57.8404C28.985 58.3669 34.5709 61.2511 36.0088 60.8502C37.4467 60.45 35.9827 58.4493 34.7419 57.885Z" fill="url(#paint74_linear_312_4075)"/>
<path id="Vector_214" d="M41.4332 61.0781C41.4332 61.0781 35.6876 59.9495 32.8946 58.8247C30.1009 57.7006 27.8679 58.2808 28.5682 59.2808C29.2685 60.2808 32.7946 62.7717 35.9571 62.7286C39.1203 62.6854 42.6994 62.1363 41.4332 61.0781Z" fill="url(#paint75_linear_312_4075)"/>
<path id="Vector_215" d="M29.2036 60.7077C29.2036 60.7077 24.4592 60.1033 24.0762 60.3748C23.6932 60.6464 25.2647 62.5874 27.4544 63.1486C29.6441 63.7099 35.8146 63.4346 38.344 62.6002C40.8726 61.7659 29.2036 60.7077 29.2036 60.7077Z" fill="url(#paint76_linear_312_4075)"/>
<path id="Vector_216" d="M42.3972 59.051C42.3972 59.051 44.3159 58.2001 45.2969 55.6237C46.2779 53.0466 47.1611 53.3703 47.0648 54.4384C46.9685 55.5064 44.2972 59.1017 43.105 59.5586C41.9127 60.0155 42.3972 59.051 42.3972 59.051Z" fill="url(#paint77_linear_312_4075)"/>
<path id="Vector_217" d="M42.2114 61.0443C42.2114 61.0443 40.937 53.2592 40.4502 51.052C39.9634 48.8447 41.1579 48.5747 42.1367 50.67C43.1155 52.766 44.528 58.5012 44.0995 59.57C43.6709 60.6388 43.2207 62.6093 42.2114 61.0443Z" fill="url(#paint78_linear_312_4075)"/>
<path id="Vector_218" d="M42.7256 61.7917C42.7256 61.7917 44.0022 58.6412 45.3274 57.9672C46.6526 57.2932 45.2998 60.3681 44.5196 60.8439C43.7394 61.3197 43.293 62.1858 42.7256 61.7917Z" fill="white"/>
<path id="Vector_219" d="M42.079 60.881C42.079 60.881 40.4693 54.6497 39.3345 53.1852C38.1997 51.72 36.8626 50.3411 36.2385 50.8562C35.6144 51.3713 37.7316 55.7881 38.0407 56.3539C38.3498 56.9189 40.6582 60.3606 42.0782 60.8818L42.079 60.881Z" fill="url(#paint79_linear_312_4075)"/>
<path id="Vector_220" d="M42.4121 61.2191C42.4121 61.2191 38.1902 58.7342 35.448 55.0565C33.993 53.1042 32.8701 51.2298 32.3281 51.9507C31.7861 52.6715 32.555 55.4877 33.8048 57.3099C34.4551 58.2577 38.7606 63.1305 42.4121 61.2198V61.2191Z" fill="url(#paint80_linear_312_4075)"/>
<path id="Vector_221" d="M43.3398 61.8736C43.3398 61.8736 41.012 59.7594 39.6809 60.4213C38.3497 61.0824 40.8127 63.0128 41.6586 62.6709C42.5044 62.329 42.8785 61.8857 43.3398 61.8736Z" fill="white"/>
<path id="Vector_222" d="M40.9061 62.1724C40.9061 62.1724 37.7974 60.8214 36.4662 61.4833C35.1351 62.1452 39.2547 63.2821 40.1006 62.9402C40.9464 62.5983 40.4455 62.1845 40.9069 62.1724H40.9061Z" fill="white"/>
<path id="Vector_223" d="M47.7442 89.3889C47.7442 89.3889 40.5286 97.3207 37.2802 101.914C34.0319 106.507 30.3423 117.676 30.3423 117.676L33.4913 122.239C33.4913 122.239 37.1988 111.827 39.5856 107.672C41.9725 103.517 48.3288 90.4547 48.5565 89.6143C48.7835 88.7739 47.7442 89.3889 47.7442 89.3889Z" fill="#2D2A2B"/>
<path id="Vector_224" d="M47.7992 87.1968C47.7992 87.1968 38.6395 84.805 34.3288 84.8125C30.018 84.8201 19.875 85.2399 18.8911 88.053C17.9071 90.8661 26.5651 92.3669 28.89 92.5605C31.2148 92.7542 46.2202 88.6392 47.7992 87.1968Z" fill="#231F20"/>
<path id="Vector_225" d="M46.0711 86.7148C46.0711 86.7148 37.8924 89.4871 33.0217 89.6399C28.1518 89.7927 19.8618 90.5022 18.8913 88.0499C18.8913 88.0499 18.5225 91.335 19.4326 92.6414C20.3419 93.9477 25.3574 94.2813 27.1171 94.0922C28.8767 93.9031 45.3918 91.6278 46.1943 91.031C46.9969 90.4349 47.1962 86.9524 46.0719 86.7156L46.0711 86.7148Z" fill="#333132"/>
<path id="Vector_226" d="M69.7516 78.2526C69.7516 78.2526 68.0957 77.2519 66.1845 78.0007C64.2733 78.7496 47.7993 87.1958 47.7993 87.1958C47.7993 87.1958 59.9827 88.021 63.1579 86.7192C66.3331 85.4182 71.2164 84.6663 71.4016 82.6104C71.586 80.5544 70.699 78.3033 69.7524 78.2526H69.7516Z" fill="#231F20"/>
<path id="Vector_227" d="M48.4704 86.7043C48.4704 86.7043 68.2771 83.1718 69.7247 81.3904C71.1723 79.6098 69.0073 77.9336 69.0073 77.9336C69.0073 77.9336 71.7203 78.4063 72.5662 80.2225C73.412 82.0379 73.0791 84.2028 73.0791 84.2028C73.0791 84.2028 72.6595 86.5046 68.3906 87.4183C63.9567 88.3669 52.2675 90.8676 49.3775 90.419C46.4875 89.9697 48.4697 86.7043 48.4697 86.7043H48.4704Z" fill="#333132"/>
<path id="Vector_228" d="M47.4285 90.558C47.4285 90.558 50.7448 103.221 50.741 106.532C50.7373 109.843 51.463 119.604 49.2285 127.865L56.3389 122.915C56.3389 122.915 56.1336 111.04 54.6568 105.512C53.6355 101.688 49.3778 90.4219 49.3778 90.4219L47.4277 90.558H47.4285Z" fill="#2D2A2B"/>
<path id="Vector_229" d="M46.0708 86.7149C46.0708 86.7149 46.8017 89.2307 46.4881 90.1165L46.1738 91.003C46.1738 91.003 48.315 91.8759 49.355 91.0522C50.395 90.2284 49.8455 87.9909 49.6133 87.649C48.8615 86.5424 48.4696 86.7035 48.4696 86.7035L46.0708 86.7149Z" fill="#231F20"/>
<path id="Vector_230" d="M77.3228 75.3036C77.3228 75.3036 78.7569 69.284 85.5172 68.9724C92.2774 68.6607 79.7812 72.1902 77.3228 75.3036Z" fill="white"/>
<path id="Vector_231" d="M14.4593 68.9715C14.4593 68.9715 13.0252 62.9519 6.26492 62.6403C-0.495326 62.3294 12.0009 65.8581 14.4593 68.9715Z" fill="white"/>
<path id="Vector_232" d="M8.06451 40.1511C8.06451 40.1511 8.17873 34.1103 4.80719 30.1731C2.56373 27.5529 -0.306851 26.0628 0.710732 29.6444C1.30351 31.7299 7.03946 31.0158 8.06376 40.1511H8.06451Z" fill="white"/>
</g>
<defs>
<linearGradient id="paint0_linear_312_4075" x1="58.3472" y1="49.7563" x2="58.627" y2="45.7281" gradientUnits="userSpaceOnUse">
<stop stop-color="#E8E6D6"/>
<stop offset="0.78" stop-color="white"/>
</linearGradient>
<linearGradient id="paint1_linear_312_4075" x1="70.5694" y1="45.575" x2="70.0079" y2="44.0783" gradientUnits="userSpaceOnUse">
<stop stop-color="white"/>
<stop offset="0.78" stop-color="white"/>
</linearGradient>
<linearGradient id="paint2_linear_312_4075" x1="65.6712" y1="42.0987" x2="65.1097" y2="40.602" gradientUnits="userSpaceOnUse">
<stop stop-color="white"/>
<stop offset="0.78" stop-color="white"/>
</linearGradient>
<linearGradient id="paint3_linear_312_4075" x1="76.5168" y1="51.1944" x2="76.5821" y2="49.5952" gradientUnits="userSpaceOnUse">
<stop stop-color="white"/>
<stop offset="0.78" stop-color="white"/>
</linearGradient>
<linearGradient id="paint4_linear_312_4075" x1="54.1895" y1="51.427" x2="51.7592" y2="46.8584" gradientUnits="userSpaceOnUse">
<stop stop-color="#E8E6D6"/>
<stop offset="0.78" stop-color="white"/>
</linearGradient>
<linearGradient id="paint5_linear_312_4075" x1="59.9497" y1="46.7704" x2="60.5228" y2="41.1288" gradientUnits="userSpaceOnUse">
<stop stop-color="#E8E6D6"/>
<stop offset="0.78" stop-color="white"/>
</linearGradient>
<linearGradient id="paint6_linear_312_4075" x1="66.1482" y1="59.4568" x2="71.6859" y2="65.2984" gradientUnits="userSpaceOnUse">
<stop stop-color="#E8E6D6"/>
<stop offset="0.78" stop-color="white"/>
</linearGradient>
<linearGradient id="paint7_linear_312_4075" x1="63.87" y1="54.5275" x2="66.0955" y2="62.3057" gradientUnits="userSpaceOnUse">
<stop stop-color="#E8E6D6"/>
<stop offset="0.78" stop-color="white"/>
</linearGradient>
<linearGradient id="paint8_linear_312_4075" x1="63.377" y1="55.5693" x2="63.8838" y2="61.2324" gradientUnits="userSpaceOnUse">
<stop stop-color="#E8E6D6"/>
<stop offset="0.78" stop-color="white"/>
</linearGradient>
<linearGradient id="paint9_linear_312_4075" x1="63.2756" y1="53.7495" x2="61.0064" y2="60.1644" gradientUnits="userSpaceOnUse">
<stop stop-color="#E8E6D6"/>
<stop offset="0.78" stop-color="white"/>
</linearGradient>
<linearGradient id="paint10_linear_312_4075" x1="62.8746" y1="53.7881" x2="57.2621" y2="57.5448" gradientUnits="userSpaceOnUse">
<stop stop-color="#E8E6D6"/>
<stop offset="0.78" stop-color="white"/>
</linearGradient>
<linearGradient id="paint11_linear_312_4075" x1="68.2097" y1="60.1664" x2="75.1516" y2="64.1829" gradientUnits="userSpaceOnUse">
<stop stop-color="#E8E6D6"/>
<stop offset="0.78" stop-color="white"/>
</linearGradient>
<linearGradient id="paint12_linear_312_4075" x1="56.7875" y1="54.2023" x2="54.8759" y2="50.6094" gradientUnits="userSpaceOnUse">
<stop stop-color="#E8E6D6"/>
<stop offset="0.78" stop-color="white"/>
</linearGradient>
<linearGradient id="paint13_linear_312_4075" x1="58.3578" y1="55.3585" x2="53.7137" y2="55.047" gradientUnits="userSpaceOnUse">
<stop stop-color="#E8E6D6"/>
<stop offset="0.78" stop-color="white"/>
</linearGradient>
<linearGradient id="paint14_linear_312_4075" x1="58.2325" y1="50.9616" x2="51.6873" y2="44.0075" gradientUnits="userSpaceOnUse">
<stop stop-color="#E8E6D6"/>
<stop offset="0.78" stop-color="white"/>
</linearGradient>
<linearGradient id="paint15_linear_312_4075" x1="72.57" y1="57.9607" x2="77.4661" y2="56.5033" gradientUnits="userSpaceOnUse">
<stop stop-color="#E8E6D6"/>
<stop offset="0.78" stop-color="white"/>
</linearGradient>
<linearGradient id="paint16_linear_312_4075" x1="58.4663" y1="48.7506" x2="54.8759" y2="42.0009" gradientUnits="userSpaceOnUse">
<stop stop-color="#E8E6D6"/>
<stop offset="0.78" stop-color="white"/>
</linearGradient>
<linearGradient id="paint17_linear_312_4075" x1="59.6271" y1="47.6756" x2="57.0047" y2="41.3716" gradientUnits="userSpaceOnUse">
<stop stop-color="white"/>
<stop offset="0.78" stop-color="white"/>
</linearGradient>
<linearGradient id="paint18_linear_312_4075" x1="60.1904" y1="50.9233" x2="62.2836" y2="42.5458" gradientUnits="userSpaceOnUse">
<stop stop-color="#E8E6D6"/>
<stop offset="0.78" stop-color="white"/>
</linearGradient>
<linearGradient id="paint19_linear_312_4075" x1="62.8131" y1="54.6534" x2="66.4877" y2="52.1173" gradientUnits="userSpaceOnUse">
<stop stop-color="#E8E6D6"/>
<stop offset="0.78" stop-color="white"/>
</linearGradient>
<linearGradient id="paint20_linear_312_4075" x1="69.2362" y1="56.5019" x2="74.3859" y2="54.6851" gradientUnits="userSpaceOnUse">
<stop stop-color="#E8E6D6"/>
<stop offset="0.78" stop-color="white"/>
</linearGradient>
<linearGradient id="paint21_linear_312_4075" x1="63.9213" y1="56.7097" x2="71.3161" y2="57.5157" gradientUnits="userSpaceOnUse">
<stop stop-color="#E8E6D6"/>
<stop offset="0.78" stop-color="white"/>
</linearGradient>
<linearGradient id="paint22_linear_312_4075" x1="68.2166" y1="59.2146" x2="76.5712" y2="60.1893" gradientUnits="userSpaceOnUse">
<stop stop-color="#E8E6D6"/>
<stop offset="0.78" stop-color="white"/>
</linearGradient>
<linearGradient id="paint23_linear_312_4075" x1="58.326" y1="52.8602" x2="60.2785" y2="49.3393" gradientUnits="userSpaceOnUse">
<stop stop-color="#E8E6D6"/>
<stop offset="0.78" stop-color="white"/>
</linearGradient>
<linearGradient id="paint24_linear_312_4075" x1="59.6793" y1="55.1225" x2="61.6311" y2="51.6014" gradientUnits="userSpaceOnUse">
<stop stop-color="#E8E6D6"/>
<stop offset="0.78" stop-color="white"/>
</linearGradient>
<linearGradient id="paint25_linear_312_4075" x1="62.9735" y1="56.1373" x2="64.9253" y2="52.6161" gradientUnits="userSpaceOnUse">
<stop stop-color="#E8E6D6"/>
<stop offset="0.78" stop-color="white"/>
</linearGradient>
<linearGradient id="paint26_linear_312_4075" x1="64.6239" y1="57.8823" x2="66.6691" y2="54.1924" gradientUnits="userSpaceOnUse">
<stop stop-color="#E8E6D6"/>
<stop offset="0.78" stop-color="white"/>
</linearGradient>
<linearGradient id="paint27_linear_312_4075" x1="56.3092" y1="23.5939" x2="58.6233" y2="17.3951" gradientUnits="userSpaceOnUse">
<stop stop-color="#E8E6D6"/>
<stop offset="0.78" stop-color="white"/>
</linearGradient>
<linearGradient id="paint28_linear_312_4075" x1="40.7869" y1="9.01908" x2="42.6272" y2="7.16843" gradientUnits="userSpaceOnUse">
<stop stop-color="white"/>
<stop offset="0.78" stop-color="white"/>
</linearGradient>
<linearGradient id="paint29_linear_312_4075" x1="50.4243" y1="7.15104" x2="52.2646" y2="5.30115" gradientUnits="userSpaceOnUse">
<stop stop-color="white"/>
<stop offset="0.78" stop-color="white"/>
</linearGradient>
<linearGradient id="paint30_linear_312_4075" x1="28.1506" y1="13.3908" x2="29.1377" y2="10.9617" gradientUnits="userSpaceOnUse">
<stop stop-color="white"/>
<stop offset="0.78" stop-color="white"/>
</linearGradient>
<linearGradient id="paint31_linear_312_4075" x1="61.4259" y1="28.9328" x2="68.1019" y2="23.7584" gradientUnits="userSpaceOnUse">
<stop stop-color="#E8E6D6"/>
<stop offset="0.78" stop-color="white"/>
</linearGradient>
<linearGradient id="paint32_linear_312_4075" x1="55.8863" y1="18.0421" x2="58.8605" y2="9.23576" gradientUnits="userSpaceOnUse">
<stop stop-color="#E8E6D6"/>
<stop offset="0.78" stop-color="white"/>
</linearGradient>
<linearGradient id="paint33_linear_312_4075" x1="38.1955" y1="32.8081" x2="26.0518" y2="37.8329" gradientUnits="userSpaceOnUse">
<stop stop-color="#E8E6D6"/>
<stop offset="0.78" stop-color="white"/>
</linearGradient>
<linearGradient id="paint34_linear_312_4075" x1="44.8642" y1="26.9976" x2="36.3142" y2="37.0786" gradientUnits="userSpaceOnUse">
<stop stop-color="#E8E6D6"/>
<stop offset="0.78" stop-color="white"/>
</linearGradient>
<linearGradient id="paint35_linear_312_4075" x1="44.9154" y1="28.8747" x2="40.3304" y2="36.9681" gradientUnits="userSpaceOnUse">
<stop stop-color="#E8E6D6"/>
<stop offset="0.78" stop-color="white"/>
</linearGradient>
<linearGradient id="paint36_linear_312_4075" x1="46.2654" y1="26.2537" x2="45.2952" y2="37.3931" gradientUnits="userSpaceOnUse">
<stop stop-color="#E8E6D6"/>
<stop offset="0.78" stop-color="white"/>
</linearGradient>
<linearGradient id="paint37_linear_312_4075" x1="46.8699" y1="26.5832" x2="52.7799" y2="36.0292" gradientUnits="userSpaceOnUse">
<stop stop-color="#E8E6D6"/>
<stop offset="0.78" stop-color="white"/>
</linearGradient>
<linearGradient id="paint38_linear_312_4075" x1="34.6377" y1="32.4776" x2="21.5933" y2="33.8796" gradientUnits="userSpaceOnUse">
<stop stop-color="#E8E6D6"/>
<stop offset="0.78" stop-color="white"/>
</linearGradient>
<linearGradient id="paint39_linear_312_4075" x1="55.6943" y1="31.3229" x2="60.9445" y2="27.2536" gradientUnits="userSpaceOnUse">
<stop stop-color="#E8E6D6"/>
<stop offset="0.78" stop-color="white"/>
</linearGradient>
<linearGradient id="paint40_linear_312_4075" x1="52.5768" y1="31.9834" x2="59.7648" y2="34.6037" gradientUnits="userSpaceOnUse">
<stop stop-color="#E8E6D6"/>
<stop offset="0.78" stop-color="white"/>
</linearGradient>
<linearGradient id="paint41_linear_312_4075" x1="55.6782" y1="25.4865" x2="70.066" y2="19.4737" gradientUnits="userSpaceOnUse">
<stop stop-color="#E8E6D6"/>
<stop offset="0.78" stop-color="white"/>
</linearGradient>
<linearGradient id="paint42_linear_312_4075" x1="29.5718" y1="26.2097" x2="23.1743" y2="20.733" gradientUnits="userSpaceOnUse">
<stop stop-color="#E8E6D6"/>
<stop offset="0.78" stop-color="white"/>
</linearGradient>
<linearGradient id="paint43_linear_312_4075" x1="56.7957" y1="22.0157" x2="66.6604" y2="14.3712" gradientUnits="userSpaceOnUse">
<stop stop-color="#E8E6D6"/>
<stop offset="0.78" stop-color="white"/>
</linearGradient>
<linearGradient id="paint44_linear_312_4075" x1="55.7628" y1="19.62" x2="63.8974" y2="11.9965" gradientUnits="userSpaceOnUse">
<stop stop-color="white"/>
<stop offset="0.78" stop-color="white"/>
</linearGradient>
<linearGradient id="paint45_linear_312_4075" x1="52.7738" y1="24.0963" x2="55.3421" y2="10.1553" gradientUnits="userSpaceOnUse">
<stop stop-color="#E8E6D6"/>
<stop offset="0.78" stop-color="white"/>
</linearGradient>
<linearGradient id="paint46_linear_312_4075" x1="46.374" y1="27.8953" x2="42.5572" y2="21.5945" gradientUnits="userSpaceOnUse">
<stop stop-color="#E8E6D6"/>
<stop offset="0.78" stop-color="white"/>
</linearGradient>
<linearGradient id="paint47_linear_312_4075" x1="35.531" y1="26.289" x2="28.9951" y2="20.0955" gradientUnits="userSpaceOnUse">
<stop stop-color="#E8E6D6"/>
<stop offset="0.78" stop-color="white"/>
</linearGradient>
<linearGradient id="paint48_linear_312_4075" x1="43.3506" y1="30.2214" x2="31.7056" y2="26.5186" gradientUnits="userSpaceOnUse">
<stop stop-color="#E8E6D6"/>
<stop offset="0.78" stop-color="white"/>
</linearGradient>
<linearGradient id="paint49_linear_312_4075" x1="35.2599" y1="31.0464" x2="22.0605" y2="26.9592" gradientUnits="userSpaceOnUse">
<stop stop-color="#E8E6D6"/>
<stop offset="0.78" stop-color="white"/>
</linearGradient>
<linearGradient id="paint50_linear_312_4075" x1="54.2795" y1="28.2637" x2="53.7492" y2="21.659" gradientUnits="userSpaceOnUse">
<stop stop-color="#E8E6D6"/>
<stop offset="0.78" stop-color="white"/>
</linearGradient>
<linearGradient id="paint51_linear_312_4075" x1="50.7541" y1="30.7295" x2="50.2246" y2="24.1248" gradientUnits="userSpaceOnUse">
<stop stop-color="#E8E6D6"/>
<stop offset="0.78" stop-color="white"/>
</linearGradient>
<linearGradient id="paint52_linear_312_4075" x1="45.1497" y1="30.0102" x2="44.6194" y2="23.4055" gradientUnits="userSpaceOnUse">
<stop stop-color="#E8E6D6"/>
<stop offset="0.78" stop-color="white"/>
</linearGradient>
<linearGradient id="paint53_linear_312_4075" x1="41.5222" y1="31.4992" x2="40.9666" y2="24.5776" gradientUnits="userSpaceOnUse">
<stop stop-color="#E8E6D6"/>
<stop offset="0.78" stop-color="white"/>
</linearGradient>
<linearGradient id="paint54_linear_312_4075" x1="45.8033" y1="55.8782" x2="46.3001" y2="52.2173" gradientUnits="userSpaceOnUse">
<stop stop-color="#E8E6D6"/>
<stop offset="0.78" stop-color="white"/>
</linearGradient>
<linearGradient id="paint55_linear_312_4075" x1="35.6062" y1="49.8607" x2="36.3847" y2="48.6255" gradientUnits="userSpaceOnUse">
<stop stop-color="white"/>
<stop offset="0.78" stop-color="white"/>
</linearGradient>
<linearGradient id="paint56_linear_312_4075" x1="40.6277" y1="47.653" x2="41.4055" y2="46.4181" gradientUnits="userSpaceOnUse">
<stop stop-color="white"/>
<stop offset="0.78" stop-color="white"/>
</linearGradient>
<linearGradient id="paint57_linear_312_4075" x1="29.25" y1="53.8013" x2="29.4888" y2="52.3567" gradientUnits="userSpaceOnUse">
<stop stop-color="white"/>
<stop offset="0.78" stop-color="white"/>
</linearGradient>
<linearGradient id="paint58_linear_312_4075" x1="49.2332" y1="58.1545" x2="52.2461" y2="54.5156" gradientUnits="userSpaceOnUse">
<stop stop-color="#E8E6D6"/>
<stop offset="0.78" stop-color="white"/>
</linearGradient>
<linearGradient id="paint59_linear_312_4075" x1="44.9105" y1="52.9107" x2="45.4457" y2="47.7482" gradientUnits="userSpaceOnUse">
<stop stop-color="#E8E6D6"/>
<stop offset="0.78" stop-color="white"/>
</linearGradient>
<linearGradient id="paint60_linear_312_4075" x1="37.0488" y1="63.134" x2="31.029" y2="67.3464" gradientUnits="userSpaceOnUse">
<stop stop-color="#E8E6D6"/>
<stop offset="0.78" stop-color="white"/>
</linearGradient>
<linearGradient id="paint61_linear_312_4075" x1="39.9826" y1="59.1522" x2="36.5525" y2="65.6993" gradientUnits="userSpaceOnUse">
<stop stop-color="#E8E6D6"/>
<stop offset="0.78" stop-color="white"/>
</linearGradient>
<linearGradient id="paint62_linear_312_4075" x1="40.2437" y1="60.1481" x2="38.74" y2="65.1236" gradientUnits="userSpaceOnUse">
<stop stop-color="#E8E6D6"/>
<stop offset="0.78" stop-color="white"/>
</linearGradient>
<linearGradient id="paint63_linear_312_4075" x1="40.6552" y1="58.5657" x2="41.4991" y2="64.7442" gradientUnits="userSpaceOnUse">
<stop stop-color="#E8E6D6"/>
<stop offset="0.78" stop-color="white"/>
</linearGradient>
<linearGradient id="paint64_linear_312_4075" x1="41.0221" y1="58.664" x2="45.3783" y2="63.0702" gradientUnits="userSpaceOnUse">
<stop stop-color="#E8E6D6"/>
<stop offset="0.78" stop-color="white"/>
</linearGradient>
<linearGradient id="paint65_linear_312_4075" x1="35.0782" y1="63.386" x2="28.1351" y2="65.7211" gradientUnits="userSpaceOnUse">
<stop stop-color="#E8E6D6"/>
<stop offset="0.78" stop-color="white"/>
</linearGradient>
<linearGradient id="paint66_linear_312_4075" x1="46.4003" y1="60.1642" x2="48.7703" y2="57.3029" gradientUnits="userSpaceOnUse">
<stop stop-color="#E8E6D6"/>
<stop offset="0.78" stop-color="white"/>
</linearGradient>
<linearGradient id="paint67_linear_312_4075" x1="44.7825" y1="60.9054" x2="49.0066" y2="61.4669" gradientUnits="userSpaceOnUse">
<stop stop-color="#E8E6D6"/>
<stop offset="0.78" stop-color="white"/>
</linearGradient>
<linearGradient id="paint68_linear_312_4075" x1="45.6916" y1="56.9902" x2="52.8152" y2="51.9658" gradientUnits="userSpaceOnUse">
<stop stop-color="#E8E6D6"/>
<stop offset="0.78" stop-color="white"/>
</linearGradient>
<linearGradient id="paint69_linear_312_4075" x1="31.5682" y1="60.599" x2="27.4325" y2="58.3984" gradientUnits="userSpaceOnUse">
<stop stop-color="#E8E6D6"/>
<stop offset="0.78" stop-color="white"/>
</linearGradient>
<linearGradient id="paint70_linear_312_4075" x1="45.8825" y1="54.9629" x2="50.335" y2="49.5868" gradientUnits="userSpaceOnUse">
<stop stop-color="#E8E6D6"/>
<stop offset="0.78" stop-color="white"/>
</linearGradient>
<linearGradient id="paint71_linear_312_4075" x1="45.0288" y1="53.7934" x2="48.537" y2="48.6385" gradientUnits="userSpaceOnUse">
<stop stop-color="white"/>
<stop offset="0.78" stop-color="white"/>
</linearGradient>
<linearGradient id="paint72_linear_312_4075" x1="43.9436" y1="56.5904" x2="43.623" y2="48.6874" gradientUnits="userSpaceOnUse">
<stop stop-color="#E8E6D6"/>
<stop offset="0.78" stop-color="white"/>
</linearGradient>
<linearGradient id="paint73_linear_312_4075" x1="40.9161" y1="59.4447" x2="38.0777" y2="56.4901" gradientUnits="userSpaceOnUse">
<stop stop-color="#E8E6D6"/>
<stop offset="0.78" stop-color="white"/>
</linearGradient>
<linearGradient id="paint74_linear_312_4075" x1="34.822" y1="59.9117" x2="30.5248" y2="57.3394" gradientUnits="userSpaceOnUse">
<stop stop-color="#E8E6D6"/>
<stop offset="0.78" stop-color="white"/>
</linearGradient>
<linearGradient id="paint75_linear_312_4075" x1="39.5493" y1="61.0851" x2="32.7698" y2="60.4692" gradientUnits="userSpaceOnUse">
<stop stop-color="#E8E6D6"/>
<stop offset="0.78" stop-color="white"/>
</linearGradient>
<linearGradient id="paint76_linear_312_4075" x1="35.245" y1="62.533" x2="27.5738" y2="61.8949" gradientUnits="userSpaceOnUse">
<stop stop-color="#E8E6D6"/>
<stop offset="0.78" stop-color="white"/>
</linearGradient>
<linearGradient id="paint77_linear_312_4075" x1="45.2638" y1="58.672" x2="44.1635" y2="55.1487" gradientUnits="userSpaceOnUse">
<stop stop-color="#E8E6D6"/>
<stop offset="0.78" stop-color="white"/>
</linearGradient>
<linearGradient id="paint78_linear_312_4075" x1="43.6408" y1="60.451" x2="42.541" y2="56.9268" gradientUnits="userSpaceOnUse">
<stop stop-color="#E8E6D6"/>
<stop offset="0.78" stop-color="white"/>
</linearGradient>
<linearGradient id="paint79_linear_312_4075" x1="40.5033" y1="60.7501" x2="39.4037" y2="57.2267" gradientUnits="userSpaceOnUse">
<stop stop-color="#E8E6D6"/>
<stop offset="0.78" stop-color="white"/>
</linearGradient>
<linearGradient id="paint80_linear_312_4075" x1="38.7078" y1="62.0047" x2="37.5548" y2="58.3113" gradientUnits="userSpaceOnUse">
<stop stop-color="#E8E6D6"/>
<stop offset="0.78" stop-color="white"/>
</linearGradient>
<clipPath id="clip0_312_4075">
<rect width="87" height="157" fill="white" transform="translate(0.5)"/>
</clipPath>
</defs>
</svg>
