<svg width="88" height="82" viewBox="0 0 88 82" fill="none" xmlns="http://www.w3.org/2000/svg">
<g clip-path="url(#clip0_42_610)">
<path d="M27.676 49.2078H22.2427V54.6406H27.676V49.2078ZM76.6238 27.3496H82.057V38.2836H87.4903V21.8582H76.6141V27.3496H76.6238ZM87.5 49.2078V43.7164H82.0667V49.2078H87.5ZM38.5522 21.8582V16.4254H33.1189V27.3496H43.9854V21.8582H38.5522ZM16.8095 71.066V76.4988H22.2427V71.066H16.8095ZM65.7573 16.4254H60.324V21.8582H65.7573V16.4254ZM22.2427 54.6406H11.3762V60.132H16.8095V65.5648H22.2427V54.6308V54.6406ZM27.676 16.4156H22.2427V21.8484H27.676V16.4156ZM11.3665 21.8484V27.3398H22.233V21.8484H11.3665ZM43.9757 65.5648V54.6308H38.5424V65.5648H43.9757ZM49.4089 71.0563H43.9757V76.489H49.4089V71.0563ZM38.5327 49.198H43.966V43.7066H38.5327V49.198ZM49.4089 38.2738H43.9757V43.7066H54.8519V32.7824H49.4187V38.2738H49.4089ZM71.1808 49.198H76.6141V43.7066H82.0473V38.2738H71.1711V49.198H71.1808ZM71.1808 71.0563H76.6141V65.5648H71.1808V71.0563ZM49.4089 54.6308H54.8422V49.198H49.4089V54.6308ZM65.7476 49.198V38.2738H60.3143V49.198H65.7476ZM54.8519 60.132H49.4187V71.0563H54.8519V60.132ZM33.1092 60.132V54.6406H27.676V60.132H33.1092ZM71.1905 21.8484H65.7573V27.3398H60.324V21.8484H49.4284V27.3398H54.8616V32.7726H71.2002V21.8484H71.1905ZM43.9854 27.3398V32.7726H49.4187V27.3398H43.9854ZM27.676 71.0563H33.1092V76.489H22.233V81.9805H43.9757V76.489H38.5424V65.5551H27.6662V71.0465L27.676 71.0563ZM54.8519 81.9902V76.4988H49.4187V81.9902H54.8519ZM27.676 32.7824V27.3496H22.2427V43.7164H27.676V38.2836H33.1092V43.7164H38.5424V32.7922H27.6662L27.676 32.7824ZM33.1092 54.6406H38.5424V49.2078H33.1092V54.6406ZM60.3143 81.9902H87.4903V54.6406H60.3143V81.9902ZM65.7476 60.132H82.057V76.4988H65.7476V60.132ZM71.1905 0V16.4254H87.5V0H71.1905ZM82.0667 10.9242H76.6335V5.49142H82.0667V10.9242ZM5.93325 21.8582H0.5V27.3496H5.93325V21.8582ZM43.9854 5.49142V0H33.1189V10.9242H38.5522V5.49142H43.9854ZM5.93325 54.6406H0.5V60.132H5.93325V54.6406ZM11.3665 65.5746V71.066H16.7997V65.5746H11.3665ZM54.8616 0H49.4284V10.9242H38.5522V16.4156H54.8616V0ZM16.8095 32.7824H0.5V38.2738H11.3665V43.7066H0.5V49.198H16.8095V32.7726V32.7824ZM27.676 0H22.2427V10.9242H27.676V0ZM16.8095 0H0.5V16.4254H16.8095V0ZM11.3762 10.9242H5.94297V5.49142H11.3762V10.9242ZM5.94297 65.5746H0.5V82H16.8095V76.5086H5.93325V65.5746H5.94297ZM65.7573 0H60.324V10.9242H65.7573V0Z" fill="#EEF3F9"/>
</g>
<defs>
<clipPath id="clip0_42_610">
<rect width="87" height="82" fill="white" transform="translate(0.5)"/>
</clipPath>
</defs>
</svg>
