<svg width="56" height="94" viewBox="0 0 56 94" fill="none" xmlns="http://www.w3.org/2000/svg">
<g id="Frame" clip-path="url(#clip0_312_4333)">
<g id="Group">
<g id="Layer_1">
<path id="Vector" d="M40.7226 19.7286C40.7752 18.3882 41.0603 17.0362 41.0153 16.597C39.976 6.58984 36.6857 0.5 28.1315 0.5C19.5773 0.5 16.2381 5.86568 14.5085 16.7319C14.426 17.2557 14.1558 19.1431 14.2009 21.0652C14.1446 22.3787 14.2009 24.6398 14.3097 26.9894H14.501C14.501 26.9894 14.501 26.9586 14.501 26.9432C15.0075 16.6086 21.4607 13.1034 28.214 13.1034C35.5113 13.1034 39.5633 16.0732 39.9122 28.0371C39.8935 28.8229 39.8635 29.6318 39.8147 30.4908C39.8522 30.3637 39.8897 30.1634 39.931 29.9207C39.9235 31.0301 39.886 32.2087 39.8147 33.4837C40.2612 31.9584 40.9177 21.539 40.7451 19.8827C40.7414 19.8288 40.7301 19.7826 40.7264 19.7286H40.7226Z" fill="url(#paint0_linear_312_4333)"/>
<path id="Vector_2" d="M16.7175 8.05616C17.4491 6.32666 18.0719 5.22502 18.9573 4.28516C18.297 5.00931 17.8318 5.84902 17.5166 6.77733C17.6742 6.62325 17.6629 6.64251 17.5091 6.80044C14.8228 14.743 23.7634 29.3764 29.3837 38.0161C44.5486 61.3278 55.9993 80.0749 55.9993 80.0749C54.9525 80.1365 43.787 92.6975 43.4756 93.5026C43.4756 93.5026 20.5218 50.5425 15.9483 42.727C12.733 37.2304 10.9321 33.8022 11.206 29.7038C11.4124 26.5991 13.0294 17.3161 16.7175 8.06001V8.05616Z" fill="url(#paint1_linear_312_4333)"/>
<g id="Group_2" style="mix-blend-mode:multiply">
<g id="Vector_3" style="mix-blend-mode:multiply">
<path d="M55.5755 79.8888C54.3524 77.8897 43.2056 59.7511 29.1662 38.1652C23.546 29.5254 16.1473 17.1107 16.8002 9.04489L16.909 7.79688C16.8827 7.85851 16.5638 9.68045 16.5938 9.59956C16.3087 17.7232 23.516 29.8066 29.0199 38.2692C42.9017 59.6125 53.9547 77.5892 55.3841 79.9158C54.4011 80.6284 52.3001 82.7431 49.141 86.2098C47.0775 88.4708 44.5263 91.3752 43.5245 92.6732C40.8983 87.7621 20.5708 49.7632 16.3237 42.5062C13.2622 37.2715 11.6939 34.1977 11.6226 30.8004C11.5626 30.7695 11.5026 30.7426 11.4463 30.7118C11.4913 34.19 13.0671 37.2908 16.1736 42.6025C20.4545 49.9211 41.0971 88.5094 43.4345 92.8851L43.4983 93.0045L43.5808 92.8967C44.5188 91.6602 47.1526 88.6634 49.2686 86.3407C52.4952 82.8009 54.6075 80.6746 55.5492 80.0236L55.6205 79.9774L55.5755 79.9042V79.8888Z" fill="#292929"/>
</g>
</g>
<path id="Vector_4" d="M19.6326 3.63672C19.6889 3.65213 18.4846 4.39169 17.6779 6.4563C17.2877 7.4809 17.0626 8.8098 17.1152 10.3467C17.1677 11.8836 17.4678 13.6247 18.0156 15.5005C19.0961 19.2561 20.9008 23.5548 23.4708 28.1232C26.022 32.7069 29.2486 37.6142 32.5615 42.7334C45.8017 63.2062 56.0855 80.2431 55.9993 80.0736C55.8867 79.8502 45.4266 63.3949 32.1938 42.9337C28.8847 37.8222 25.6769 32.9611 23.1706 28.3312C20.6456 23.7166 18.7134 19.3832 17.7004 15.5776C17.1902 13.6786 16.9238 11.9106 16.9088 10.3544C16.8938 8.79825 17.1602 7.45394 17.5804 6.42934C17.9968 5.39703 18.5559 4.69984 18.9573 4.26458C19.3738 3.83317 19.6326 3.64442 19.6289 3.64057L19.6326 3.63672Z" fill="url(#paint2_linear_312_4333)"/>
<path id="Vector_5" d="M37.0421 4.2853C37.0421 4.2853 37.0193 4.26177 37.0078 4.25C37.0193 4.26177 37.0307 4.27353 37.0421 4.2853Z" fill="url(#paint3_linear_312_4333)"/>
<path id="Vector_6" d="M36.3662 3.63672C36.5988 3.82931 36.8089 4.03731 37.0078 4.24917C36.7977 4.02576 36.5838 3.81776 36.3662 3.63672Z" fill="url(#paint4_linear_312_4333)"/>
<path id="Vector_7" d="M39.5144 7.99067C38.7528 6.51155 37.9236 5.22887 37.0382 4.28516C37.6985 5.00931 38.1637 5.84902 38.4789 6.77733C38.3251 6.62325 38.3326 6.64251 38.4864 6.80044C41.1727 14.743 32.2321 29.3764 26.6118 38.0161C11.4506 61.3239 0 80.0711 0 80.0711C1.04676 80.1327 12.2122 92.6937 12.5237 93.4987C12.5237 93.4987 35.4774 50.5386 40.0472 42.7232C43.2625 37.2265 46.0088 32.766 46.0088 28.6599C46.0088 24.5538 42.8123 13.8995 39.5144 7.98682V7.99067Z" fill="url(#paint5_linear_312_4333)"/>
<g id="Vector_8" style="mix-blend-mode:multiply">
<path d="M45.5173 29.6457C45.4273 32.1726 43.0449 36.7525 40.1672 41.6559L39.6757 42.4956C35.4324 49.7487 15.1011 87.7553 12.4748 92.6626C11.4694 91.3607 8.9181 88.4602 6.85834 86.1992C3.69929 82.7363 1.60201 80.6178 0.615272 79.9052C2.72381 76.4693 13.334 59.2321 26.9795 38.2586C32.716 29.4416 40.1372 16.9345 39.3605 8.84168C39.3493 8.74539 39.173 8.1522 39.0942 7.79012C39.0116 7.42804 38.6665 6.75781 38.6665 6.75781C38.7077 7.00819 39.1617 8.59516 39.188 8.85709C39.9683 16.8921 32.5622 29.3645 26.8369 38.1623C13.0901 59.2899 2.41991 76.6234 0.423928 79.8859L0.378906 79.9591L0.450191 80.0092C1.3919 80.664 3.50794 82.7864 6.73078 86.3263C8.84681 88.649 11.4806 91.6457 12.4186 92.8822L12.5011 92.99L12.5649 92.8706C14.906 88.4949 35.5487 49.9028 39.8258 42.5881L40.3173 41.7484C43.1949 36.8411 45.4948 32.9083 45.7274 29.2605C45.6674 29.2451 45.5774 29.665 45.5173 29.6496V29.6457Z" fill="#292929"/>
</g>
<path id="Vector_9" d="M36.3662 3.63672C36.3099 3.65213 37.5142 4.39169 38.3209 6.4563C38.7111 7.4809 38.9362 8.8098 38.8837 10.3467C38.8311 11.8836 38.531 13.6247 37.9832 15.5005C36.9027 19.2561 35.0943 23.5548 32.5243 28.1232C29.9768 32.7069 26.7465 37.6142 23.4373 42.7334C10.2008 63.2062 -0.0867301 80.2431 -0.000437675 80.0736C0.112118 79.8502 10.5723 63.3949 23.805 42.9337C27.1141 37.8222 30.322 32.9611 32.8319 28.3312C35.3569 23.7166 37.2891 19.3832 38.2984 15.5776C38.8086 13.6786 39.075 11.9106 39.09 10.3544C39.105 8.79825 38.8386 7.45394 38.4147 6.42934C37.9982 5.39703 37.4392 4.69984 37.0378 4.26458C36.6213 3.83317 36.3624 3.64442 36.3662 3.64057V3.63672Z" fill="url(#paint6_linear_312_4333)"/>
</g>
</g>
</g>
<defs>
<linearGradient id="paint0_linear_312_4333" x1="14.1784" y1="16.9938" x2="41.019" y2="16.9938" gradientUnits="userSpaceOnUse">
<stop offset="0.05" stop-color="#040404"/>
<stop offset="0.21" stop-color="#0E0E0E"/>
<stop offset="0.32" stop-color="#0E0E0E"/>
<stop offset="0.48" stop-color="#383838"/>
<stop offset="0.63" stop-color="#383838"/>
<stop offset="0.67" stop-color="#2A2A2A"/>
<stop offset="0.76" stop-color="#161616"/>
<stop offset="0.81" stop-color="#0F0F0F"/>
<stop offset="1" stop-color="#040404"/>
</linearGradient>
<linearGradient id="paint1_linear_312_4333" x1="-9.41411" y1="32.0265" x2="41.1385" y2="51.9365" gradientUnits="userSpaceOnUse">
<stop offset="0.25" stop-color="#0E0E0E"/>
<stop offset="0.27" stop-color="#151515"/>
<stop offset="0.32" stop-color="#282828"/>
<stop offset="0.38" stop-color="#343434"/>
<stop offset="0.43" stop-color="#383838"/>
<stop offset="0.62"/>
<stop offset="0.74"/>
<stop offset="0.8"/>
<stop offset="0.87" stop-color="#0D0D0D"/>
<stop offset="1" stop-color="#050505"/>
</linearGradient>
<linearGradient id="paint2_linear_312_4333" x1="46.0006" y1="57.9676" x2="16.7149" y2="10.6082" gradientUnits="userSpaceOnUse">
<stop offset="0.13" stop-color="#151515"/>
<stop offset="0.29" stop-color="#181818"/>
<stop offset="0.44" stop-color="#151515"/>
<stop offset="0.63" stop-color="#181818"/>
<stop offset="0.88" stop-color="#151515"/>
</linearGradient>
<linearGradient id="paint3_linear_312_4333" x1="37.0307" y1="4.26177" x2="37.023" y2="4.26552" gradientUnits="userSpaceOnUse">
<stop offset="0.21" stop-color="#0E0E0E"/>
<stop offset="0.32" stop-color="#121212"/>
<stop offset="0.35" stop-color="#151515"/>
<stop offset="0.64" stop-color="#0E0E0E"/>
<stop offset="0.88" stop-color="#0E0E0E"/>
<stop offset="1" stop-color="#0D0D0D"/>
</linearGradient>
<linearGradient id="paint4_linear_312_4333" x1="36.8577" y1="3.84857" x2="36.6565" y2="3.95582" gradientUnits="userSpaceOnUse">
<stop offset="0.21" stop-color="#0E0E0E"/>
<stop offset="0.32" stop-color="#121212"/>
<stop offset="0.35" stop-color="#151515"/>
<stop offset="0.64" stop-color="#0E0E0E"/>
<stop offset="0.88" stop-color="#0E0E0E"/>
<stop offset="1" stop-color="#0D0D0D"/>
</linearGradient>
<linearGradient id="paint5_linear_312_4333" x1="64.1265" y1="27.3387" x2="15.7066" y2="52.5038" gradientUnits="userSpaceOnUse">
<stop offset="0.21" stop-color="#0E0E0E"/>
<stop offset="0.28" stop-color="#121212"/>
<stop offset="0.35" stop-color="#1C1C1C"/>
<stop offset="0.39" stop-color="#2D2D2D"/>
<stop offset="0.44" stop-color="#383838"/>
<stop offset="0.45" stop-color="#353535"/>
<stop offset="0.59" stop-color="#181818"/>
<stop offset="0.68" stop-color="#0E0E0E"/>
<stop offset="0.88" stop-color="#080808"/>
<stop offset="1" stop-color="#080808"/>
</linearGradient>
<linearGradient id="paint6_linear_312_4333" x1="9.99447" y1="57.9676" x2="39.2839" y2="10.6083" gradientUnits="userSpaceOnUse">
<stop offset="0.13" stop-color="#151515"/>
<stop offset="0.29" stop-color="#181818"/>
<stop offset="0.44" stop-color="#151515"/>
<stop offset="0.63" stop-color="#181818"/>
<stop offset="0.88" stop-color="#151515"/>
</linearGradient>
<clipPath id="clip0_312_4333">
<rect width="56" height="93" fill="white" transform="translate(0 0.5)"/>
</clipPath>
</defs>
</svg>
