<svg width="550" height="237" viewBox="0 0 550 237" fill="none" xmlns="http://www.w3.org/2000/svg">
<rect x="294.5" y="105.5" width="121" height="47" rx="23.5" fill="#526FEE"/>
<path d="M344.058 133.808V130.912H341.85V129.584H344.058V127.856H341.85V126.512H344.058V122.784H345.706V133.808H344.058ZM341.786 124.432V125.744H333.77V124.432H337.018V122.752H338.666V124.432H341.786ZM336.074 129.216C336.074 130.16 336.794 130.72 337.834 130.72C338.89 130.72 339.61 130.16 339.61 129.216C339.61 128.288 338.89 127.696 337.834 127.696C336.794 127.696 336.074 128.288 336.074 129.216ZM341.162 129.216C341.162 130.88 339.802 132.016 337.834 132.016C335.882 132.016 334.522 130.88 334.522 129.216C334.522 127.536 335.882 126.416 337.834 126.416C339.802 126.416 341.162 127.536 341.162 129.216ZM337.962 135.616H346.042V136.96H336.298V132.88H337.962V135.616ZM349.609 129.2L349.113 127.936C352.009 127.728 353.817 126.72 354.025 125.44H349.753V124.144H354.153V122.768H355.801V124.144H360.201V125.44H355.929C356.137 126.72 357.945 127.728 360.841 127.936L360.329 129.2C357.817 128.992 355.881 128.16 354.969 126.88C354.073 128.16 352.137 128.992 349.609 129.2ZM358.265 134.8C358.265 134.016 357.097 133.6 354.953 133.6C352.825 133.6 351.657 134.016 351.657 134.8C351.657 135.584 352.825 135.984 354.953 135.984C357.097 135.984 358.265 135.584 358.265 134.8ZM361.513 131.136H355.801V132.4C358.409 132.56 359.929 133.392 359.929 134.8C359.929 136.368 358.089 137.232 354.953 137.232C351.833 137.232 349.977 136.368 349.977 134.8C349.977 133.376 351.529 132.544 354.153 132.4V131.136H348.441V129.824H361.513V131.136ZM370.743 130.912L369.127 130.768C369.495 128.528 369.527 126.848 369.527 125.632H363.799V124.304H371.143V125.264C371.143 126.528 371.143 128.352 370.743 130.912ZM367.511 128.448V132.752C369.015 132.688 370.535 132.608 371.943 132.416L372.023 133.632C369.047 134.128 365.735 134.192 363.207 134.192L363.031 132.832C363.911 132.832 364.887 132.816 365.895 132.8V128.448H367.511ZM376.503 128.72V130.112H374.375V137.232H372.711V122.784H374.375V128.72H376.503Z" fill="white"/>
<rect x="294.5" y="105.5" width="121" height="47" rx="23.5" stroke="#526FEE"/>
<rect x="23.5" y="105.5" width="121" height="47" rx="23.5" fill="white"/>
<path d="M70.3699 128.976L68.7539 128.8C69.0419 127.248 69.0899 126.112 69.1059 125.216H63.4579V123.872H70.7219V124.704C70.7219 125.68 70.7219 127.104 70.3699 128.976ZM71.5699 129.696L71.6819 130.896C68.6739 131.424 65.2659 131.504 62.7539 131.504L62.5779 130.16C63.4419 130.16 64.4339 130.16 65.4579 130.128V127.168H67.0899V130.08C68.5939 130.016 70.1459 129.92 71.5699 129.696ZM66.4179 132.672V135.616H74.5779V136.96H64.7539V132.672H66.4179ZM74.1139 127.36H76.0339V128.72H74.1139V133.632H72.4499V122.784H74.1139V127.36ZM79.9366 129.424V132.464C82.2246 132.448 84.2246 132.336 86.5126 131.968L86.6886 133.312C84.2086 133.744 82.0486 133.824 79.5046 133.824H78.2726V128.096H83.3126V125.408H78.2406V124.064H84.9766V129.424H79.9366ZM87.7126 122.752H89.3766V137.264H87.7126V122.752ZM99.7434 130.912L98.1274 130.768C98.4954 128.528 98.5274 126.848 98.5274 125.632H92.7994V124.304H100.143V125.264C100.143 126.528 100.143 128.352 99.7434 130.912ZM96.5114 128.448V132.752C98.0154 132.688 99.5354 132.608 100.943 132.416L101.023 133.632C98.0474 134.128 94.7354 134.192 92.2074 134.192L92.0314 132.832C92.9114 132.832 93.8874 132.816 94.8954 132.8V128.448H96.5114ZM105.503 128.72V130.112H103.375V137.232H101.711V122.784H103.375V128.72H105.503Z" fill="#333333"/>
<rect x="23.5" y="105.5" width="121" height="47" rx="23.5" stroke="#333333"/>
<rect x="140.5" y="0.5" width="159" height="47" rx="23.5" fill="#B59378"/>
<path d="M175.029 24.856H169.301V27.224H173.461V32.232H171.813V28.552H163.269V27.224H167.637V24.856H161.941V23.528H171.429C171.749 21.976 171.781 20.808 171.781 19.768H163.573V18.44H173.397V19.544C173.397 20.632 173.397 21.88 173.077 23.528H175.029V24.856ZM185.412 23.72L185.604 25.064C183.332 25.432 181.38 25.496 178.612 25.496H177.396V21.304H182.356V19.8H177.364V18.456H183.972V22.552H179.028V24.152C181.508 24.152 183.316 24.072 185.412 23.72ZM186.932 30.728V29.224H180.74V30.728H186.932ZM186.932 27.928V26.44H188.564V32.056H179.092V26.44H180.74V27.928H186.932ZM186.916 17.784H188.564V25.768H186.916V17.784ZM193.475 20.84V27.432C195.139 27.416 196.451 27.336 197.939 27.032L198.083 28.392C196.339 28.728 194.851 28.792 192.819 28.792H191.859V19.496H197.203V20.84H193.475ZM202.131 17.768H203.699V32.216H202.131V24.824H200.419V31.512H198.867V18.072H200.419V23.48H202.131V17.768ZM213.793 21.656H216.417V17.8H218.065V28.36H216.417V23.016H213.793V21.656ZM214.689 25.032L213.873 26.312C212.273 25.768 211.105 24.632 210.497 23.208C209.857 24.776 208.641 26.04 206.929 26.632L206.081 25.336C208.321 24.552 209.633 22.648 209.633 20.696V20.2H206.577V18.872H214.305V20.2H211.297V20.696C211.297 22.472 212.529 24.28 214.689 25.032ZM210.353 30.616H218.433V31.96H208.705V27.448H210.353V30.616ZM231.136 28.808V25.912H228.928V24.584H231.136V22.856H228.928V21.512H231.136V17.784H232.784V28.808H231.136ZM228.864 19.432V20.744H220.848V19.432H224.096V17.752H225.744V19.432H228.864ZM223.152 24.216C223.152 25.16 223.872 25.72 224.912 25.72C225.968 25.72 226.688 25.16 226.688 24.216C226.688 23.288 225.968 22.696 224.912 22.696C223.872 22.696 223.152 23.288 223.152 24.216ZM228.24 24.216C228.24 25.88 226.88 27.016 224.912 27.016C222.96 27.016 221.6 25.88 221.6 24.216C221.6 22.536 222.96 21.416 224.912 21.416C226.88 21.416 228.24 22.536 228.24 24.216ZM225.04 30.616H233.12V31.96H223.376V27.88H225.04V30.616ZM236.687 24.2L236.191 22.936C239.087 22.728 240.895 21.72 241.103 20.44H236.831V19.144H241.231V17.768H242.879V19.144H247.279V20.44H243.007C243.215 21.72 245.023 22.728 247.919 22.936L247.407 24.2C244.895 23.992 242.959 23.16 242.047 21.88C241.151 23.16 239.215 23.992 236.687 24.2ZM245.343 29.8C245.343 29.016 244.175 28.6 242.031 28.6C239.903 28.6 238.735 29.016 238.735 29.8C238.735 30.584 239.903 30.984 242.031 30.984C244.175 30.984 245.343 30.584 245.343 29.8ZM248.591 26.136H242.879V27.4C245.487 27.56 247.007 28.392 247.007 29.8C247.007 31.368 245.167 32.232 242.031 32.232C238.911 32.232 237.055 31.368 237.055 29.8C237.055 28.376 238.607 27.544 241.231 27.4V26.136H235.519V24.824H248.591V26.136ZM257.742 26.264H260.574V17.768H262.222V28.76H260.574V27.416H257.742V26.264ZM254.862 19.544C253.661 19.544 252.846 20.056 252.846 20.872C252.846 21.688 253.661 22.2 254.862 22.2C256.046 22.2 256.862 21.688 256.862 20.872C256.862 20.056 256.046 19.544 254.862 19.544ZM254.862 23.416C252.734 23.416 251.278 22.408 251.278 20.872C251.278 19.336 252.734 18.328 254.862 18.328C256.974 18.328 258.43 19.336 258.43 20.872C258.43 22.408 256.974 23.416 254.862 23.416ZM254.206 28.296V25.608C252.83 25.672 251.518 25.688 250.382 25.688L250.174 24.344C252.83 24.328 256.382 24.296 259.438 23.912L259.566 25.096C258.35 25.304 257.086 25.448 255.854 25.512V28.296H254.206ZM253.774 30.616H262.558V31.96H252.126V27.688H253.774V30.616ZM273.452 24.584L272.652 25.864C271.036 25.352 269.884 24.312 269.26 22.968C268.62 24.504 267.404 25.736 265.676 26.328L264.844 25.032C267.116 24.248 268.38 22.392 268.38 20.424V20.136H265.308V18.808H273.068V20.136H270.044V20.408C270.044 22.2 271.244 23.88 273.452 24.584ZM271.596 30.936C273.612 30.936 274.78 30.424 274.78 29.496C274.78 28.552 273.612 28.056 271.596 28.056C269.58 28.056 268.412 28.552 268.412 29.496C268.412 30.424 269.58 30.936 271.596 30.936ZM271.596 26.76C274.572 26.76 276.412 27.768 276.412 29.496C276.412 31.208 274.572 32.232 271.596 32.232C268.62 32.232 266.78 31.208 266.78 29.496C266.78 27.768 268.62 26.76 271.596 26.76ZM276.252 21.304H278.3V22.664H276.252V26.424H274.604V17.784H276.252V21.304Z" fill="white"/>
<rect x="140.5" y="0.5" width="159" height="47" rx="23.5" stroke="#B59378"/>
<path d="M0 217C0 205.954 8.95431 197 20 197H65C76.0457 197 85 205.954 85 217C85 228.046 76.0457 237 65 237H20C8.9543 237 0 228.046 0 217Z" fill="#D9D9D9"/>
<path d="M30.3899 215.904V219.408H28.8539V211.04H30.3899V214.544H31.8939V210.768H33.4619V219.888H31.8939V215.904H30.3899ZM28.3579 212.4V213.696H21.1579V212.4H23.9579V210.912H25.5739V212.4H28.3579ZM23.1579 216.816C23.1579 217.6 23.7979 218.112 24.7739 218.112C25.7339 218.112 26.4059 217.6 26.4059 216.816C26.4059 216.032 25.7339 215.52 24.7739 215.52C23.7979 215.52 23.1579 216.032 23.1579 216.816ZM27.8779 216.816C27.8779 218.32 26.5979 219.312 24.7739 219.312C22.9659 219.312 21.6859 218.32 21.6859 216.816C21.6859 215.328 22.9659 214.32 24.7739 214.32C26.5979 214.32 27.8779 215.328 27.8779 216.816ZM28.6619 223.984C30.7419 223.984 31.8939 223.52 31.8939 222.656C31.8939 221.792 30.7419 221.344 28.6619 221.344C26.5979 221.344 25.4139 221.792 25.4139 222.656C25.4139 223.52 26.5979 223.984 28.6619 223.984ZM28.6619 220.096C31.7179 220.096 33.5419 221.024 33.5419 222.656C33.5419 224.288 31.7179 225.232 28.6619 225.232C25.6059 225.232 23.7659 224.288 23.7659 222.656C23.7659 221.024 25.6059 220.096 28.6619 220.096ZM43.7166 214.416H46.2766V210.784H47.9246V219.392H46.2766V215.76H43.7166V214.416ZM44.5486 217.632L43.7326 218.928C42.1326 218.368 40.9806 217.232 40.3726 215.84C39.7326 217.424 38.5166 218.704 36.8046 219.312L35.9566 218C38.1966 217.2 39.4926 215.28 39.4926 213.296V213.088H36.4366V211.76H44.1646V213.088H41.1566V213.28C41.1566 215.088 42.3886 216.88 44.5486 217.632ZM43.1246 223.968C45.1566 223.968 46.3406 223.456 46.3406 222.512C46.3406 221.568 45.1566 221.056 43.1246 221.056C41.0606 221.056 39.8926 221.568 39.8926 222.512C39.8926 223.456 41.0606 223.968 43.1246 223.968ZM43.1246 219.776C46.1326 219.776 47.9886 220.8 47.9886 222.512C47.9886 224.24 46.1326 225.248 43.1246 225.248C40.1006 225.248 38.2446 224.24 38.2446 222.512C38.2446 220.8 40.1006 219.776 43.1246 219.776ZM59.4754 216.912L59.6354 218.224C57.5714 218.56 55.7954 218.608 52.6914 218.608H51.4914V211.616H58.4034V212.944H53.1234V214.432H57.9874V215.728H53.1234V217.296C55.9074 217.296 57.5554 217.232 59.4754 216.912ZM54.7394 221.376V223.744H60.9634V221.376H54.7394ZM53.1234 225.056V220.064H62.5794V225.056H53.1234ZM60.9314 210.784H62.5794V219.392H60.9314V210.784Z" fill="#777777"/>
<path d="M97 217C97 205.954 105.954 197 117 197H162C173.046 197 182 205.954 182 217C182 228.046 173.046 237 162 237H117C105.954 237 97 228.046 97 217Z" fill="#D9D9D9"/>
<path d="M125.87 216.976L124.254 216.8C124.542 215.248 124.59 214.112 124.606 213.216H118.958V211.872H126.222V212.704C126.222 213.68 126.222 215.104 125.87 216.976ZM127.07 217.696L127.182 218.896C124.174 219.424 120.766 219.504 118.254 219.504L118.078 218.16C118.942 218.16 119.934 218.16 120.958 218.128V215.168H122.59V218.08C124.094 218.016 125.646 217.92 127.07 217.696ZM121.918 220.672V223.616H130.078V224.96H120.254V220.672H121.918ZM129.614 215.36H131.534V216.72H129.614V221.632H127.95V210.784H129.614V215.36ZM135.437 217.424V220.464C137.725 220.448 139.725 220.336 142.013 219.968L142.189 221.312C139.709 221.744 137.549 221.824 135.005 221.824H133.773V216.096H138.813V213.408H133.741V212.064H140.477V217.424H135.437ZM143.213 210.752H144.877V225.264H143.213V210.752ZM156.475 216.912L156.635 218.224C154.571 218.56 152.795 218.608 149.691 218.608H148.491V211.616H155.403V212.944H150.123V214.432H154.987V215.728H150.123V217.296C152.907 217.296 154.555 217.232 156.475 216.912ZM151.739 221.376V223.744H157.963V221.376H151.739ZM150.123 225.056V220.064H159.579V225.056H150.123ZM157.931 210.784H159.579V219.392H157.931V210.784Z" fill="#777777"/>
<path d="M213 217C213 205.954 221.954 197 233 197H278C289.046 197 298 205.954 298 217C298 228.046 289.046 237 278 237H233C221.954 237 213 228.046 213 217Z" fill="#D9D9D9"/>
<path d="M244.558 221.808V218.912H242.35V217.584H244.558V215.856H242.35V214.512H244.558V210.784H246.206V221.808H244.558ZM242.286 212.432V213.744H234.27V212.432H237.518V210.752H239.166V212.432H242.286ZM236.574 217.216C236.574 218.16 237.294 218.72 238.334 218.72C239.39 218.72 240.11 218.16 240.11 217.216C240.11 216.288 239.39 215.696 238.334 215.696C237.294 215.696 236.574 216.288 236.574 217.216ZM241.662 217.216C241.662 218.88 240.302 220.016 238.334 220.016C236.382 220.016 235.022 218.88 235.022 217.216C235.022 215.536 236.382 214.416 238.334 214.416C240.302 214.416 241.662 215.536 241.662 217.216ZM238.462 223.616H246.542V224.96H236.798V220.88H238.462V223.616ZM250.109 217.2L249.613 215.936C252.509 215.728 254.317 214.72 254.525 213.44H250.253V212.144H254.653V210.768H256.301V212.144H260.701V213.44H256.429C256.637 214.72 258.445 215.728 261.341 215.936L260.829 217.2C258.317 216.992 256.381 216.16 255.469 214.88C254.573 216.16 252.637 216.992 250.109 217.2ZM258.765 222.8C258.765 222.016 257.597 221.6 255.453 221.6C253.325 221.6 252.157 222.016 252.157 222.8C252.157 223.584 253.325 223.984 255.453 223.984C257.597 223.984 258.765 223.584 258.765 222.8ZM262.013 219.136H256.301V220.4C258.909 220.56 260.429 221.392 260.429 222.8C260.429 224.368 258.589 225.232 255.453 225.232C252.333 225.232 250.477 224.368 250.477 222.8C250.477 221.376 252.029 220.544 254.653 220.4V219.136H248.941V217.824H262.013V219.136ZM272.475 216.912L272.635 218.224C270.571 218.56 268.795 218.608 265.691 218.608H264.491V211.616H271.403V212.944H266.123V214.432H270.987V215.728H266.123V217.296C268.907 217.296 270.555 217.232 272.475 216.912ZM267.739 221.376V223.744H273.963V221.376H267.739ZM266.123 225.056V220.064H275.579V225.056H266.123ZM273.931 210.784H275.579V219.392H273.931V210.784Z" fill="#777777"/>
<path d="M310 217C310 205.954 318.954 197 330 197H404C415.046 197 424 205.954 424 217C424 228.046 415.046 237 404 237H330C318.954 237 310 228.046 310 217Z" fill="#D9D9D9"/>
<path d="M338.715 214.656H341.339V210.8H342.987V221.36H341.339V216.016H338.715V214.656ZM339.611 218.032L338.795 219.312C337.195 218.768 336.027 217.632 335.419 216.208C334.779 217.776 333.563 219.04 331.851 219.632L331.003 218.336C333.243 217.552 334.555 215.648 334.555 213.696V213.2H331.499V211.872H339.227V213.2H336.219V213.696C336.219 215.472 337.451 217.28 339.611 218.032ZM335.275 223.616H343.355V224.96H333.627V220.448H335.275V223.616ZM347.77 217.552V220.48C349.114 220.464 350.41 220.384 351.962 220.128L352.09 221.472C350.234 221.776 348.762 221.84 347.114 221.84H346.186V216.24H349.498V213.616H346.154V212.272H351.098V217.552H347.77ZM353.578 214.448V211.04H355.13V224.512H353.578V219.392H351.85V218.048H353.578V215.792H351.85V214.448H353.578ZM356.49 210.784H358.058V225.216H356.49V210.784ZM370.777 221.536V215.392H367.849V214.032H370.777V210.784H372.425V221.536H370.777ZM368.985 217.984L368.105 219.264C366.553 218.688 365.417 217.52 364.809 216.064C364.169 217.68 362.969 218.96 361.305 219.6L360.425 218.32C362.681 217.52 363.929 215.488 363.929 213.344V211.664H365.609V213.376C365.609 215.328 366.825 217.2 368.985 217.984ZM364.681 223.616H372.761V224.96H363.017V220.4H364.681V223.616ZM385.431 210.8H387.079V219.024H385.431V210.8ZM377.623 219.744H387.079V225.056H377.623V219.744ZM385.463 221.056H379.239V223.744H385.463V221.056ZM379.287 211.504C381.495 211.504 383.111 212.896 383.111 214.912C383.111 216.928 381.495 218.32 379.287 218.32C377.079 218.32 375.447 216.928 375.447 214.912C375.447 212.896 377.079 211.504 379.287 211.504ZM379.287 212.864C377.991 212.864 377.063 213.68 377.063 214.912C377.063 216.16 377.991 216.96 379.287 216.96C380.567 216.96 381.511 216.16 381.511 214.912C381.511 213.68 380.567 212.864 379.287 212.864ZM398.694 216.912L398.854 218.224C396.79 218.56 395.014 218.608 391.91 218.608H390.71V211.616H397.622V212.944H392.342V214.432H397.206V215.728H392.342V217.296C395.126 217.296 396.774 217.232 398.694 216.912ZM393.958 221.376V223.744H400.182V221.376H393.958ZM392.342 225.056V220.064H401.798V225.056H392.342ZM400.15 210.784H401.798V219.392H400.15V210.784Z" fill="#777777"/>
<path d="M436 217C436 205.954 444.954 197 456 197H530C541.046 197 550 205.954 550 217C550 228.046 541.046 237 530 237H456C444.954 237 436 228.046 436 217Z" fill="#D9D9D9"/>
<path d="M458.811 215.36C458.811 216.688 459.771 217.552 461.035 217.552C462.299 217.552 463.275 216.688 463.275 215.36C463.275 214.048 462.299 213.184 461.035 213.184C459.771 213.184 458.811 214.048 458.811 215.36ZM464.891 215.36C464.891 217.472 463.227 218.976 461.035 218.976C458.859 218.976 457.195 217.472 457.195 215.36C457.195 213.248 458.859 211.76 461.035 211.76C463.227 211.76 464.891 213.248 464.891 215.36ZM460.811 220.288V223.616H468.875V224.96H459.147V220.288H460.811ZM468.299 215.072H470.347V216.432H468.299V221.376H466.651V210.784H468.299V215.072ZM480.218 217.584L479.418 218.864C477.802 218.352 476.65 217.312 476.026 215.968C475.386 217.504 474.17 218.736 472.442 219.328L471.61 218.032C473.882 217.248 475.146 215.392 475.146 213.424V213.136H472.074V211.808H479.834V213.136H476.81V213.408C476.81 215.2 478.01 216.88 480.218 217.584ZM478.362 223.936C480.378 223.936 481.546 223.424 481.546 222.496C481.546 221.552 480.378 221.056 478.362 221.056C476.346 221.056 475.178 221.552 475.178 222.496C475.178 223.424 476.346 223.936 478.362 223.936ZM478.362 219.76C481.338 219.76 483.178 220.768 483.178 222.496C483.178 224.208 481.338 225.232 478.362 225.232C475.386 225.232 473.546 224.208 473.546 222.496C473.546 220.768 475.386 219.76 478.362 219.76ZM483.018 214.304H485.066V215.664H483.018V219.424H481.37V210.784H483.018V214.304ZM487.785 218.528L487.209 217.232C490.009 216.896 491.993 215.376 492.137 213.824H487.689V212.496H492.153V210.784H493.801V212.496H498.281V213.824H493.817C493.961 215.36 495.945 216.896 498.745 217.232L498.153 218.528C495.801 218.224 493.913 217.152 492.969 215.712C492.041 217.152 490.153 218.208 487.785 218.528ZM499.513 219.472V220.832H493.801V225.264H492.153V220.832H486.457V219.472H499.513ZM504.247 213.248V217.536H511.127V213.248H504.247ZM508.519 222.112H514.263V223.456H501.175V222.112H506.871V218.848H502.631V211.936H512.743V218.848H508.519V222.112ZM524.694 216.912L524.854 218.224C522.79 218.56 521.014 218.608 517.91 218.608H516.71V211.616H523.622V212.944H518.342V214.432H523.206V215.728H518.342V217.296C521.126 217.296 522.774 217.232 524.694 216.912ZM519.958 221.376V223.744H526.182V221.376H519.958ZM518.342 225.056V220.064H527.798V225.056H518.342ZM526.15 210.784H527.798V219.392H526.15V210.784Z" fill="#777777"/>
<path d="M141 19.5C138.5 19.5 136.5 21.5 136.5 24C136.5 26.5 138.5 28.5 141 28.5C143.5 28.5 145.5 26.5 145.5 24C145.5 21.5 143.5 19.5 141 19.5Z" fill="white"/>
<path d="M82.9393 107.061C83.5251 107.646 84.4749 107.646 85.0607 107.061L94.6066 97.5147C95.1924 96.9289 95.1924 95.9792 94.6066 95.3934C94.0208 94.8076 93.0711 94.8076 92.4853 95.3934L84 103.879L75.5147 95.3934C74.9289 94.8076 73.9792 94.8076 73.3934 95.3934C72.8076 95.9792 72.8076 96.9289 73.3934 97.5147L82.9393 107.061ZM138 24C138 23.5852 138.081 23.1964 138.225 22.8451L135.451 21.7048C135.159 22.4142 135 23.1901 135 24H138ZM139.845 21.2254C140.196 21.081 140.585 21 141 21V18C140.19 18 139.414 18.159 138.705 18.4505L139.845 21.2254ZM141 21C141.415 21 141.804 21.081 142.155 21.2254L143.295 18.4505C142.586 18.159 141.81 18 141 18V21ZM143.775 22.8451C143.919 23.1964 144 23.5852 144 24H147C147 23.1901 146.841 22.4142 146.549 21.7048L143.775 22.8451ZM144 24C144 24.4148 143.919 24.8036 143.775 25.1549L146.549 26.2952C146.841 25.5858 147 24.8099 147 24H144ZM142.155 26.7747C141.804 26.919 141.415 27 141 27V30C141.81 30 142.586 29.841 143.295 29.5495L142.155 26.7747ZM141 27C140.585 27 140.196 26.919 139.845 26.7747L138.705 29.5495C139.414 29.841 140.19 30 141 30V27ZM138.225 25.1549C138.081 24.8036 138 24.4148 138 24H135C135 24.8099 135.159 25.5858 135.451 26.2952L138.225 25.1549ZM85.5 106V102.9H82.5V106H85.5ZM85.5 96.7V90.5H82.5V96.7H85.5ZM85.5 84.3V78.1H82.5V84.3H85.5ZM85.5 71.9V65.7H82.5V71.9H85.5ZM85.5 59.5V53.3H82.5V59.5H85.5ZM85.5 47.1V44H82.5V47.1H85.5ZM85.5 44C85.5 43.1797 85.5533 42.3726 85.6564 41.5818L82.6816 41.1938C82.5618 42.1129 82.5 43.0496 82.5 44H85.5ZM86.9032 36.9188C87.5265 35.4156 88.3428 34.0118 89.3214 32.7383L86.9426 30.9103C85.8061 32.3893 84.8572 34.0209 84.132 35.7697L86.9032 36.9188ZM92.7383 29.3214C94.0118 28.3428 95.4156 27.5265 96.9188 26.9032L95.7697 24.132C94.021 24.8572 92.3893 25.8061 90.9103 26.9426L92.7383 29.3214ZM101.582 25.6564C102.373 25.5533 103.18 25.5 104 25.5V22.5C103.05 22.5 102.113 22.5618 101.194 22.6816L101.582 25.6564ZM104 25.5H106.708V22.5H104V25.5ZM112.125 25.5H117.542V22.5H112.125V25.5ZM122.958 25.5H128.375V22.5H122.958V25.5ZM133.792 25.5H136.5V22.5H133.792V25.5Z" fill="black"/>
<path d="M299 19.5C296.5 19.5 294.5 21.5 294.5 24C294.5 26.5 296.5 28.5 299 28.5C301.5 28.5 303.5 26.5 303.5 24C303.5 21.5 301.5 19.5 299 19.5Z" fill="white"/>
<path d="M353.939 107.061C354.525 107.646 355.475 107.646 356.061 107.061L365.607 97.5147C366.192 96.9289 366.192 95.9792 365.607 95.3934C365.021 94.8076 364.071 94.8076 363.485 95.3934L355 103.879L346.515 95.3934C345.929 94.8076 344.979 94.8076 344.393 95.3934C343.808 95.9792 343.808 96.9289 344.393 97.5147L353.939 107.061ZM305 24C305 23.1901 304.841 22.4142 304.549 21.7048L301.775 22.8451C301.919 23.1964 302 23.5852 302 24H305ZM301.295 18.4505C300.586 18.159 299.81 18 299 18V21C299.415 21 299.804 21.081 300.155 21.2254L301.295 18.4505ZM299 18C298.19 18 297.414 18.159 296.705 18.4505L297.845 21.2254C298.196 21.081 298.585 21 299 21V18ZM293.451 21.7048C293.159 22.4142 293 23.1901 293 24H296C296 23.5852 296.081 23.1964 296.225 22.8451L293.451 21.7048ZM293 24C293 24.8099 293.159 25.5858 293.451 26.2952L296.225 25.1549C296.081 24.8036 296 24.4148 296 24H293ZM296.705 29.5495C297.414 29.841 298.19 30 299 30V27C298.585 27 298.196 26.919 297.845 26.7747L296.705 29.5495ZM299 30C299.81 30 300.586 29.841 301.295 29.5495L300.155 26.7747C299.804 26.919 299.415 27 299 27V30ZM304.549 26.2952C304.841 25.5858 305 24.8099 305 24H302C302 24.4148 301.919 24.8036 301.775 25.1549L304.549 26.2952ZM303.5 25.5H306.125V22.5H303.5V25.5ZM311.375 25.5H316.625V22.5H311.375V25.5ZM321.875 25.5H327.125V22.5H321.875V25.5ZM332.375 25.5H335V22.5H332.375V25.5ZM335 25.5C335.82 25.5 336.627 25.5533 337.418 25.6564L337.806 22.6816C336.887 22.5618 335.95 22.5 335 22.5V25.5ZM342.081 26.9032C343.584 27.5265 344.988 28.3428 346.262 29.3214L348.09 26.9426C346.611 25.8061 344.979 24.8572 343.23 24.132L342.081 26.9032ZM349.679 32.7383C350.657 34.0118 351.473 35.4156 352.097 36.9188L354.868 35.7697C354.143 34.021 353.194 32.3893 352.057 30.9103L349.679 32.7383ZM353.344 41.5818C353.447 42.3726 353.5 43.1797 353.5 44H356.5C356.5 43.0496 356.438 42.1129 356.318 41.1938L353.344 41.5818ZM353.5 44V47.1H356.5V44H353.5ZM353.5 53.3V59.5H356.5V53.3H353.5ZM353.5 65.7V71.9H356.5V65.7H353.5ZM353.5 78.1V84.3H356.5V78.1H353.5ZM353.5 90.5V96.7H356.5V90.5H353.5ZM353.5 102.9V106H356.5V102.9H353.5Z" fill="black"/>
<path d="M84 147.5C81.5 147.5 79.5 149.5 79.5 152C79.5 154.5 81.5 156.5 84 156.5C86.5 156.5 88.5 154.5 88.5 152C88.5 149.5 86.5 147.5 84 147.5Z" fill="white"/>
<path d="M41.4393 198.061C42.0251 198.646 42.9749 198.646 43.5607 198.061L53.1066 188.515C53.6924 187.929 53.6924 186.979 53.1066 186.393C52.5208 185.808 51.5711 185.808 50.9853 186.393L42.5 194.879L34.0147 186.393C33.4289 185.808 32.4792 185.808 31.8934 186.393C31.3076 186.979 31.3076 187.929 31.8934 188.515L41.4393 198.061ZM84 155C83.5852 155 83.1964 154.919 82.8451 154.775L81.7048 157.549C82.4142 157.841 83.1901 158 84 158V155ZM81.2253 153.155C81.081 152.804 81 152.415 81 152H78C78 152.81 78.159 153.586 78.4505 154.295L81.2253 153.155ZM81 152C81 151.585 81.081 151.196 81.2253 150.845L78.4505 149.705C78.159 150.414 78 151.19 78 152H81ZM82.8451 149.225C83.1964 149.081 83.5852 149 84 149V146C83.1901 146 82.4142 146.159 81.7048 146.451L82.8451 149.225ZM84 149C84.4148 149 84.8036 149.081 85.1549 149.225L86.2952 146.451C85.5858 146.159 84.8099 146 84 146V149ZM86.7747 150.845C86.919 151.196 87 151.585 87 152H90C90 151.19 89.841 150.414 89.5495 149.705L86.7747 150.845ZM87 152C87 152.415 86.919 152.804 86.7747 153.155L89.5495 154.295C89.841 153.586 90 152.81 90 152H87ZM85.1549 154.775C84.8036 154.919 84.4148 155 84 155V158C84.8099 158 85.5858 157.841 86.2952 157.549L85.1549 154.775ZM44 197V196.375H41V197H44ZM44 195.125V194.5H41V195.125H44ZM44 194.5C44 193.68 44.0533 192.873 44.1564 192.082L41.1816 191.694C41.0618 192.613 41 193.55 41 194.5H44ZM45.4032 187.419C46.0265 185.916 46.8428 184.512 47.8214 183.238L45.4426 181.41C44.3061 182.889 43.3572 184.521 42.632 186.27L45.4032 187.419ZM51.2383 179.821C52.5118 178.843 53.9156 178.027 55.4188 177.403L54.2697 174.632C52.521 175.357 50.8893 176.306 49.4103 177.443L51.2383 179.821ZM60.0818 176.156C60.8726 176.053 61.6797 176 62.5 176V173C61.5496 173 60.6129 173.062 59.6938 173.182L60.0818 176.156ZM62.5 176H63.375V173H62.5V176ZM65.125 176H66V173H65.125V176ZM66 176C67.3004 176 68.5725 175.873 69.804 175.629L69.2218 172.686C68.181 172.892 67.1039 173 66 173V176ZM76.8356 172.715C78.9614 171.291 80.7914 169.461 82.2146 167.336L79.7217 165.667C78.5167 167.467 76.9666 169.017 75.1666 170.222L76.8356 172.715ZM85.1289 160.304C85.3725 159.072 85.5 157.8 85.5 156.5H82.5C82.5 157.604 82.3918 158.681 82.1859 159.722L85.1289 160.304Z" fill="black"/>
<path d="M84 147.5C81.5 147.5 79.5 149.5 79.5 152C79.5 154.5 81.5 156.5 84 156.5C86.5 156.5 88.5 154.5 88.5 152C88.5 149.5 86.5 147.5 84 147.5Z" fill="white"/>
<path d="M138.439 198.061C139.025 198.646 139.975 198.646 140.561 198.061L150.107 188.515C150.692 187.929 150.692 186.979 150.107 186.393C149.521 185.808 148.571 185.808 147.985 186.393L139.5 194.879L131.015 186.393C130.429 185.808 129.479 185.808 128.893 186.393C128.308 186.979 128.308 187.929 128.893 188.515L138.439 198.061ZM84 155C83.5852 155 83.1964 154.919 82.8451 154.775L81.7048 157.549C82.4142 157.841 83.1901 158 84 158V155ZM81.2254 153.155C81.081 152.804 81 152.415 81 152H78C78 152.81 78.159 153.586 78.4505 154.295L81.2254 153.155ZM81 152C81 151.585 81.081 151.196 81.2254 150.845L78.4505 149.705C78.159 150.414 78 151.19 78 152H81ZM82.8451 149.225C83.1964 149.081 83.5852 149 84 149V146C83.1901 146 82.4142 146.159 81.7048 146.451L82.8451 149.225ZM84 149C84.4148 149 84.8036 149.081 85.1549 149.225L86.2952 146.451C85.5858 146.159 84.8099 146 84 146V149ZM86.7747 150.845C86.919 151.196 87 151.585 87 152H90C90 151.19 89.841 150.414 89.5495 149.705L86.7747 150.845ZM87 152C87 152.415 86.919 152.804 86.7747 153.155L89.5495 154.295C89.841 153.586 90 152.81 90 152H87ZM85.1549 154.775C84.8036 154.919 84.4148 155 84 155V158C84.8099 158 85.5858 157.841 86.2952 157.549L85.1549 154.775ZM82.5 156.5C82.5 157.8 82.6275 159.072 82.8711 160.304L85.8141 159.722C85.6082 158.681 85.5 157.604 85.5 156.5H82.5ZM85.7854 167.336C87.2086 169.461 89.0386 171.291 91.1644 172.715L92.8334 170.222C91.0334 169.017 89.4833 167.467 88.2783 165.667L85.7854 167.336ZM98.196 175.629C99.4275 175.873 100.7 176 102 176V173C100.896 173 99.819 172.892 98.7782 172.686L98.196 175.629ZM102 176H106.375V173H102V176ZM115.125 176H119.5V173H115.125V176ZM119.5 176C120.32 176 121.127 176.053 121.918 176.156L122.306 173.182C121.387 173.062 120.45 173 119.5 173V176ZM126.581 177.403C128.084 178.027 129.488 178.843 130.762 179.821L132.59 177.443C131.111 176.306 129.479 175.357 127.73 174.632L126.581 177.403ZM134.179 183.238C135.157 184.512 135.973 185.916 136.597 187.419L139.368 186.27C138.643 184.521 137.694 182.889 136.557 181.41L134.179 183.238ZM137.844 192.082C137.947 192.873 138 193.68 138 194.5H141C141 193.55 140.938 192.613 140.818 191.694L137.844 192.082ZM138 194.5V195.125H141V194.5H138ZM138 196.375V197H141V196.375H138Z" fill="black"/>
<path d="M355 147.5C352.5 147.5 350.5 149.5 350.5 152C350.5 154.5 352.5 156.5 355 156.5C357.5 156.5 359.5 154.5 359.5 152C359.5 149.5 357.5 147.5 355 147.5Z" fill="white"/>
<path d="M254.439 198.061C255.025 198.646 255.975 198.646 256.561 198.061L266.107 188.515C266.692 187.929 266.692 186.979 266.107 186.393C265.521 185.808 264.571 185.808 263.985 186.393L255.5 194.879L247.015 186.393C246.429 185.808 245.479 185.808 244.893 186.393C244.308 186.979 244.308 187.929 244.893 188.515L254.439 198.061ZM355 155C354.585 155 354.196 154.919 353.845 154.775L352.705 157.549C353.414 157.841 354.19 158 355 158V155ZM352.225 153.155C352.081 152.804 352 152.415 352 152H349C349 152.81 349.159 153.586 349.451 154.295L352.225 153.155ZM352 152C352 151.585 352.081 151.196 352.225 150.845L349.451 149.705C349.159 150.414 349 151.19 349 152H352ZM353.845 149.225C354.196 149.081 354.585 149 355 149V146C354.19 146 353.414 146.159 352.705 146.451L353.845 149.225ZM355 149C355.415 149 355.804 149.081 356.155 149.225L357.295 146.451C356.586 146.159 355.81 146 355 146V149ZM357.775 150.845C357.919 151.196 358 151.585 358 152H361C361 151.19 360.841 150.414 360.549 149.705L357.775 150.845ZM358 152C358 152.415 357.919 152.804 357.775 153.155L360.549 154.295C360.841 153.586 361 152.81 361 152H358ZM356.155 154.775C355.804 154.919 355.415 155 355 155V158C355.81 158 356.586 157.841 357.295 157.549L356.155 154.775ZM257 197V196.375H254V197H257ZM257 195.125V194.5H254V195.125H257ZM257 194.5C257 193.68 257.053 192.873 257.156 192.082L254.182 191.694C254.062 192.613 254 193.55 254 194.5H257ZM258.403 187.419C259.027 185.916 259.843 184.512 260.821 183.238L258.443 181.41C257.306 182.889 256.357 184.521 255.632 186.27L258.403 187.419ZM264.238 179.821C265.512 178.843 266.916 178.027 268.419 177.403L267.27 174.632C265.521 175.357 263.889 176.306 262.41 177.443L264.238 179.821ZM273.082 176.156C273.873 176.053 274.68 176 275.5 176V173C274.55 173 273.613 173.062 272.694 173.182L273.082 176.156ZM275.5 176H278.575V173H275.5V176ZM284.725 176H290.875V173H284.725V176ZM297.025 176H303.175V173H297.025V176ZM309.325 176H315.475V173H309.325V176ZM321.625 176H327.775V173H321.625V176ZM333.925 176H337V173H333.925V176ZM337 176C338.3 176 339.572 175.873 340.804 175.629L340.222 172.686C339.181 172.892 338.104 173 337 173V176ZM347.836 172.715C349.961 171.291 351.791 169.461 353.215 167.336L350.722 165.667C349.517 167.467 347.967 169.017 346.167 170.222L347.836 172.715ZM356.129 160.304C356.372 159.072 356.5 157.8 356.5 156.5H353.5C353.5 157.604 353.392 158.681 353.186 159.722L356.129 160.304Z" fill="black"/>
<path d="M355 147.5C352.5 147.5 350.5 149.5 350.5 152C350.5 154.5 352.5 156.5 355 156.5C357.5 156.5 359.5 154.5 359.5 152C359.5 149.5 357.5 147.5 355 147.5Z" fill="white"/>
<path d="M491.939 198.061C492.525 198.646 493.475 198.646 494.061 198.061L503.607 188.515C504.192 187.929 504.192 186.979 503.607 186.393C503.021 185.808 502.071 185.808 501.485 186.393L493 194.879L484.515 186.393C483.929 185.808 482.979 185.808 482.393 186.393C481.808 186.979 481.808 187.929 482.393 188.515L491.939 198.061ZM355 155C354.585 155 354.196 154.919 353.845 154.775L352.705 157.549C353.414 157.841 354.19 158 355 158V155ZM352.225 153.155C352.081 152.804 352 152.415 352 152H349C349 152.81 349.159 153.586 349.451 154.295L352.225 153.155ZM352 152C352 151.585 352.081 151.196 352.225 150.845L349.451 149.705C349.159 150.414 349 151.19 349 152H352ZM353.845 149.225C354.196 149.081 354.585 149 355 149V146C354.19 146 353.414 146.159 352.705 146.451L353.845 149.225ZM355 149C355.415 149 355.804 149.081 356.155 149.225L357.295 146.451C356.586 146.159 355.81 146 355 146V149ZM357.775 150.845C357.919 151.196 358 151.585 358 152H361C361 151.19 360.841 150.414 360.549 149.705L357.775 150.845ZM358 152C358 152.415 357.919 152.804 357.775 153.155L360.549 154.295C360.841 153.586 361 152.81 361 152H358ZM356.155 154.775C355.804 154.919 355.415 155 355 155V158C355.81 158 356.586 157.841 357.295 157.549L356.155 154.775ZM353.5 156.5C353.5 157.8 353.627 159.072 353.871 160.304L356.814 159.722C356.608 158.681 356.5 157.604 356.5 156.5H353.5ZM356.785 167.336C358.209 169.461 360.039 171.291 362.164 172.715L363.833 170.222C362.033 169.017 360.483 167.467 359.278 165.667L356.785 167.336ZM369.196 175.629C370.428 175.873 371.7 176 373 176V173C371.896 173 370.819 172.892 369.778 172.686L369.196 175.629ZM373 176H376.125V173H373V176ZM382.375 176H388.625V173H382.375V176ZM394.875 176H401.125V173H394.875V176ZM407.375 176H413.625V173H407.375V176ZM419.875 176H426.125V173H419.875V176ZM432.375 176H438.625V173H432.375V176ZM444.875 176H451.125V173H444.875V176ZM457.375 176H463.625V173H457.375V176ZM469.875 176H473V173H469.875V176ZM473 176C473.82 176 474.627 176.053 475.418 176.156L475.806 173.182C474.887 173.062 473.95 173 473 173V176ZM480.081 177.403C481.584 178.027 482.988 178.843 484.262 179.821L486.09 177.443C484.611 176.306 482.979 175.357 481.23 174.632L480.081 177.403ZM487.679 183.238C488.657 184.512 489.473 185.916 490.097 187.419L492.868 186.27C492.143 184.521 491.194 182.889 490.057 181.41L487.679 183.238ZM491.344 192.082C491.447 192.873 491.5 193.68 491.5 194.5H494.5C494.5 193.55 494.438 192.613 494.318 191.694L491.344 192.082ZM491.5 194.5V195.125H494.5V194.5H491.5ZM491.5 196.375V197H494.5V196.375H491.5Z" fill="black"/>
<path d="M355 147.5C352.5 147.5 350.5 149.5 350.5 152C350.5 154.5 352.5 156.5 355 156.5C357.5 156.5 359.5 154.5 359.5 152C359.5 149.5 357.5 147.5 355 147.5Z" fill="white"/>
<path d="M366.011 198.128C366.634 198.674 367.582 198.612 368.128 197.989L377.026 187.836C377.572 187.213 377.51 186.265 376.887 185.719C376.264 185.173 375.316 185.236 374.77 185.859L366.861 194.883L357.836 186.974C357.213 186.428 356.265 186.49 355.719 187.113C355.173 187.736 355.236 188.684 355.859 189.23L366.011 198.128ZM355 155C354.585 155 354.196 154.919 353.845 154.775L352.705 157.549C353.414 157.841 354.19 158 355 158V155ZM352.225 153.155C352.081 152.804 352 152.415 352 152H349C349 152.81 349.159 153.586 349.451 154.295L352.225 153.155ZM352 152C352 151.585 352.081 151.196 352.225 150.845L349.451 149.705C349.159 150.414 349 151.19 349 152H352ZM353.845 149.225C354.196 149.081 354.585 149 355 149V146C354.19 146 353.414 146.159 352.705 146.451L353.845 149.225ZM355 149C355.415 149 355.804 149.081 356.155 149.225L357.295 146.451C356.586 146.159 355.81 146 355 146V149ZM357.775 150.845C357.919 151.196 358 151.585 358 152H361C361 151.19 360.841 150.414 360.549 149.705L357.775 150.845ZM358 152C358 152.415 357.919 152.804 357.775 153.155L360.549 154.295C360.841 153.586 361 152.81 361 152H358ZM356.155 154.775C355.804 154.919 355.415 155 355 155V158C355.81 158 356.586 157.841 357.295 157.549L356.155 154.775ZM353.5 156.5C353.5 157.462 353.523 158.381 353.569 159.262L356.565 159.109C356.522 158.281 356.5 157.413 356.5 156.5H353.5ZM354.196 164.758C354.568 166.762 355.07 168.531 355.66 170.149L358.479 169.122C357.944 167.654 357.486 166.045 357.146 164.212L354.196 164.758ZM357.944 175.204C358.773 176.774 359.713 178.388 360.535 179.899L363.17 178.466C362.266 176.804 361.437 175.395 360.597 173.804L357.944 175.204ZM362.788 184.56C363.385 186.021 363.925 187.617 364.369 189.429L367.283 188.714C366.801 186.749 366.214 185.013 365.565 183.426L362.788 184.56ZM365.268 194.499C365.364 195.324 365.443 196.189 365.503 197.099L368.497 196.901C368.434 195.944 368.35 195.029 368.248 194.152L365.268 194.499Z" fill="black"/>
</svg>
